<svg width="200" height="199" viewBox="0 0 200 199" fill="none" xmlns="http://www.w3.org/2000/svg">
<g filter="url(#filter0_d_2310_2238)">
<circle cx="100" cy="97" r="81" fill="white"/>
</g>
<g clip-path="url(#clip0_2310_2238)">
<path d="M60.8438 78.8437C60.8438 67.2458 70.2458 57.8438 81.8438 57.8438H124.861C128.568 57.8438 132.123 59.3163 134.745 61.9375C137.366 64.5587 138.838 68.1138 138.838 71.8207V114.838C138.838 126.436 129.436 135.838 117.838 135.838H74.8207C71.1138 135.838 67.5587 134.366 64.9375 131.745C62.3163 129.123 60.8438 125.568 60.8438 121.861V78.8437Z" fill="#36261A"/>
<path d="M124.861 61.389C127.627 61.3925 130.278 62.4927 132.234 64.4482C134.189 66.4038 135.29 69.0551 135.293 71.8207V121.293C135.293 127.368 130.368 132.293 124.293 132.293H74.8207C72.0551 132.29 69.4038 131.189 67.4482 129.234C65.4927 127.278 64.3925 124.627 64.389 121.861V72.389C64.389 66.3138 69.3138 61.389 75.389 61.389H124.861ZM124.861 57.8438H74.8437C67.1118 57.8438 60.8438 64.1118 60.8438 71.8437V121.861C60.8438 125.568 62.3163 129.123 64.9375 131.745C67.5587 134.366 71.1138 135.838 74.8207 135.838H124.838C132.57 135.838 138.838 129.57 138.838 121.838V71.8207C138.838 68.1138 137.366 64.5587 134.745 61.9375C132.123 59.3163 128.568 57.8438 124.861 57.8438Z" fill="#FF7F18"/>
<path d="M99.7574 103.612H90.5044L88.1911 110.578C88.1645 110.791 88.0168 110.897 87.748 110.897H83.5646C83.2987 110.897 83.2057 110.765 83.2854 110.499L91.5812 86.821C91.823 86.1075 91.9443 85.3587 91.9402 84.6053C91.9402 84.4458 92.0332 84.366 92.2194 84.366H97.9803C98.0468 84.3664 98.1118 84.3853 98.1681 84.4205C98.2244 84.4557 98.2699 84.5059 98.2994 84.5654L107.552 110.57C107.632 110.809 107.552 110.928 107.313 110.928H102.589C102.501 110.931 102.415 110.905 102.343 110.855C102.272 110.805 102.218 110.733 102.19 110.649L99.7574 103.612ZM91.5413 99.7433H98.7204C98.614 99.3711 98.0616 97.6753 97.063 94.656C96.0644 91.6366 95.4071 89.5686 95.091 88.4518H95.0511C94.732 89.8108 93.5621 93.5747 91.5413 99.7433ZM115.711 87.4592C115.393 87.7874 114.998 88.0312 114.562 88.1686C114.126 88.3061 113.663 88.3328 113.214 88.2464C112.766 88.16 112.345 87.9632 111.992 87.6738C111.638 87.3844 111.362 87.0114 111.189 86.5886C111.015 86.1658 110.95 85.7064 110.998 85.252C111.047 84.7976 111.208 84.3624 111.466 83.9857C111.725 83.609 112.074 83.3027 112.48 83.0945C112.887 82.8862 113.34 82.7825 113.796 82.7928C114.151 82.7762 114.504 82.8347 114.834 82.9646C115.164 83.0944 115.463 83.2926 115.711 83.5462C116.199 84.0769 116.457 84.7797 116.429 85.5005C116.447 85.8585 116.393 86.2166 116.27 86.5532C116.147 86.8898 115.956 87.198 115.711 87.4592ZM111.204 110.552V91.8065C111.197 91.763 111.201 91.7186 111.214 91.6768C111.228 91.6349 111.251 91.5969 111.282 91.5658C111.313 91.5347 111.351 91.5114 111.393 91.4978C111.435 91.4842 111.48 91.4806 111.523 91.4874H115.955C115.998 91.4816 116.042 91.4858 116.083 91.4998C116.125 91.5137 116.162 91.5371 116.193 91.5679C116.224 91.5988 116.247 91.6364 116.261 91.6778C116.275 91.7192 116.279 91.7632 116.274 91.8065V110.578C116.279 110.622 116.275 110.666 116.261 110.707C116.247 110.748 116.224 110.786 116.193 110.817C116.162 110.848 116.125 110.871 116.083 110.885C116.042 110.899 115.998 110.903 115.955 110.897H111.567C111.52 110.904 111.471 110.9 111.425 110.886C111.379 110.871 111.337 110.846 111.302 110.813C111.267 110.78 111.24 110.739 111.223 110.694C111.206 110.648 111.199 110.6 111.204 110.552Z" fill="#FF7F18"/>
</g>
<defs>
<filter id="filter0_d_2310_2238" x="0.932835" y="0.513858" width="198.134" height="198.134" filterUnits="userSpaceOnUse" color-interpolation-filters="sRGB">
<feFlood flood-opacity="0" result="BackgroundImageFix"/>
<feColorMatrix in="SourceAlpha" type="matrix" values="0 0 0 0 0 0 0 0 0 0 0 0 0 0 0 0 0 0 127 0" result="hardAlpha"/>
<feOffset dy="2.58102"/>
<feGaussianBlur stdDeviation="9.03358"/>
<feComposite in2="hardAlpha" operator="out"/>
<feColorMatrix type="matrix" values="0 0 0 0 0.695898 0 0 0 0 0.695898 0 0 0 0 0.695898 0 0 0 0.25 0"/>
<feBlend mode="normal" in2="BackgroundImageFix" result="effect1_dropShadow_2310_2238"/>
<feBlend mode="normal" in="SourceGraphic" in2="effect1_dropShadow_2310_2238" result="shape"/>
</filter>
<clipPath id="clip0_2310_2238">
<rect width="77.9947" height="77.9947" fill="white" transform="translate(60.8438 57.8438)"/>
</clipPath>
</defs>
</svg>
