<svg width="200" height="199" viewBox="0 0 200 199" fill="none" xmlns="http://www.w3.org/2000/svg">
<g filter="url(#filter0_d_2228_488)">
<circle cx="100" cy="97" r="81" fill="white"/>
</g>
<circle cx="100" cy="97" r="81" fill="#F7FAFB"/>
<path d="M65.4212 82.4331C62.1036 82.4331 59.4141 85.1226 59.4141 88.4402V116.473C59.4141 119.791 62.1036 122.48 65.4212 122.48C68.7388 122.48 71.4283 119.791 71.4283 116.473V88.4402C71.4283 85.1226 68.7388 82.4331 65.4212 82.4331ZM133.502 82.4331C130.184 82.4331 127.495 85.1226 127.495 88.4402V116.473C127.495 119.791 130.184 122.48 133.502 122.48C136.819 122.48 139.509 119.791 139.509 116.473V88.4402C139.509 85.1226 136.82 82.4331 133.502 82.4331ZM121.487 82.4331H77.4354C76.3295 82.4331 75.433 83.3297 75.433 84.4355V116.473C75.432 121.232 78.7803 125.333 83.4425 126.285V140.502C83.4425 143.819 86.132 146.509 89.4496 146.509C92.7673 146.509 95.4568 143.819 95.4568 140.502V126.485H103.466V140.502C103.466 143.819 106.156 146.509 109.473 146.509C112.791 146.509 115.481 143.819 115.481 140.502V126.285C120.143 125.333 123.491 121.232 123.49 116.473V84.4355C123.49 83.3297 122.593 82.4331 121.487 82.4331ZM114.019 58.693L118.9 53.8152C119.696 53.0469 119.718 51.7793 118.95 50.9838C118.181 50.1884 116.914 50.1664 116.118 50.9346C116.102 50.9507 116.085 50.9671 116.069 50.9838L110.382 56.6706C106.937 55.1739 103.22 54.4015 99.4634 54.4015C95.7067 54.4015 91.9901 55.1739 88.5444 56.6706L82.8578 50.9798C82.0624 50.2115 80.7947 50.2336 80.0264 51.029C79.277 51.8051 79.277 53.0352 80.0264 53.8111L84.9041 58.6928C81.977 60.6296 79.5784 63.265 77.9248 66.3609C76.2713 69.4569 75.4149 72.916 75.433 76.4258C75.433 77.5317 76.3295 78.4282 77.4354 78.4282H121.488C122.594 78.4282 123.49 77.5317 123.49 76.4258C123.508 72.916 122.652 69.457 120.998 66.361C119.344 63.2651 116.946 60.6298 114.019 58.693Z" fill="#4CAF50"/>
<path d="M89.4438 70.418C90.5498 70.418 91.4463 69.5214 91.4463 68.4155C91.4463 67.3096 90.5498 66.4131 89.4438 66.4131C88.3379 66.4131 87.4414 67.3096 87.4414 68.4155C87.4414 69.5214 88.3379 70.418 89.4438 70.418Z" fill="#FAFAFA"/>
<path d="M109.471 70.418C110.577 70.418 111.474 69.5214 111.474 68.4155C111.474 67.3096 110.577 66.4131 109.471 66.4131C108.365 66.4131 107.469 67.3096 107.469 68.4155C107.469 69.5214 108.365 70.418 109.471 70.418Z" fill="#FAFAFA"/>
<defs>
<filter id="filter0_d_2228_488" x="0.977737" y="0.552347" width="198.045" height="198.045" filterUnits="userSpaceOnUse" color-interpolation-filters="sRGB">
<feFlood flood-opacity="0" result="BackgroundImageFix"/>
<feColorMatrix in="SourceAlpha" type="matrix" values="0 0 0 0 0 0 0 0 0 0 0 0 0 0 0 0 0 0 127 0" result="hardAlpha"/>
<feOffset dy="2.57461"/>
<feGaussianBlur stdDeviation="9.01113"/>
<feComposite in2="hardAlpha" operator="out"/>
<feColorMatrix type="matrix" values="0 0 0 0 0.695898 0 0 0 0 0.695898 0 0 0 0 0.695898 0 0 0 0.25 0"/>
<feBlend mode="normal" in2="BackgroundImageFix" result="effect1_dropShadow_2228_488"/>
<feBlend mode="normal" in="SourceGraphic" in2="effect1_dropShadow_2228_488" result="shape"/>
</filter>
</defs>
</svg>
