<svg width="148" height="148" viewBox="0 0 148 148" fill="none" xmlns="http://www.w3.org/2000/svg">
<g filter="url(#filter0_d_1273_144)">
<circle cx="74" cy="72" r="60" fill="white"/>
</g>
<path d="M43.0977 89.6356V47.9913H49.9246V92.5029H43.0977V89.6356Z" fill="#FEBE76"/>
<path d="M105.904 90.0452V91.1375C105.904 92.3663 104.948 93.3221 103.583 93.3221H101.398V87.8605H103.583C104.948 87.8605 105.904 88.8163 105.904 90.0452Z" fill="#FF7979"/>
<path d="M105.906 61.099V77.074L96.0749 70.6567L93.6172 72.9778L105.906 61.099Z" fill="#FFB95A"/>
<path d="M105.905 77.074H81.3281L91.1589 70.6567L93.6166 72.9778L96.0743 70.6567L105.905 77.074Z" fill="#FCD884"/>
<path d="M101.4 87.8605V93.3221H99.4883V87.8605H101.4Z" fill="#D65B5B"/>
<path d="M99.4882 90.5913V93.3221H78.7344V87.8605H99.4882V90.5913Z" fill="#5165A2"/>
<path d="M56.75 51.2682V45.5336H89.5192L96.7558 52.9067V61.099H81.3269V77.074H96.8923V87.8606H74.3635L69.7212 90.5913L74.3635 93.3221H96.8923V97.5548H56.75V94.6875V51.2682Z" fill="#D7DEED"/>
<path d="M93.6166 72.9778L91.1589 70.6567L81.3281 77.074V61.099L93.6166 72.9778Z" fill="#FFB95A"/>
<path d="M85.1522 42.6663L85.2888 45.5336H56.7522V94.6875H52.5195V42.6663H85.1522Z" fill="#AFB9D2"/>
<path d="M78.7342 92.0932V93.3221H74.365L69.7227 90.5913L74.365 87.8605H78.7342V92.0932Z" fill="#F0DFB4"/>
<path d="M46.3746 61.2356C46.3746 61.1269 46.3314 61.0227 46.2546 60.9459C46.1778 60.8691 46.0736 60.826 45.965 60.826H43.0977V61.6452H45.965C46.0736 61.6452 46.1778 61.602 46.2546 61.5252C46.3314 61.4484 46.3746 61.3442 46.3746 61.2356ZM46.3746 56.1836C46.3746 56.075 46.3314 55.9708 46.2546 55.894C46.1778 55.8172 46.0736 55.774 45.965 55.774H43.0977V56.5933H45.965C46.0736 56.5933 46.1778 56.5501 46.2546 56.4733C46.3314 56.3965 46.3746 56.2923 46.3746 56.1836ZM47.74 53.5894C47.74 53.4808 47.6968 53.3766 47.62 53.2998C47.5432 53.223 47.439 53.1798 47.3303 53.1798H43.0977V53.999H47.3303C47.439 53.999 47.5432 53.9559 47.62 53.8791C47.6968 53.8022 47.74 53.6981 47.74 53.5894ZM46.3746 50.9952C46.3746 50.8865 46.3314 50.7824 46.2546 50.7055C46.1778 50.6287 46.0736 50.5856 45.965 50.5856H43.0977V51.4048H45.965C46.0736 51.4048 46.1778 51.3616 46.2546 51.2848C46.3314 51.208 46.3746 51.1038 46.3746 50.9952ZM47.74 58.7779C47.74 58.6692 47.6968 58.5651 47.62 58.4882C47.5432 58.4114 47.439 58.3683 47.3303 58.3683H43.0977V59.1875H47.3303C47.439 59.1875 47.5432 59.1443 47.62 59.0675C47.6968 58.9907 47.74 58.8865 47.74 58.7779ZM46.3746 81.8529C46.3746 81.7442 46.3314 81.6401 46.2546 81.5632C46.1778 81.4864 46.0736 81.4433 45.965 81.4433H43.0977V82.2625H45.965C46.0736 82.2625 46.1778 82.2193 46.2546 82.1425C46.3314 82.0657 46.3746 81.9615 46.3746 81.8529ZM47.74 84.4471C47.74 84.3385 47.6968 84.2343 47.62 84.1575C47.5432 84.0807 47.439 84.0375 47.3303 84.0375H43.0977V84.8567H47.3303C47.439 84.8567 47.5432 84.8136 47.62 84.7368C47.6968 84.6599 47.74 84.5558 47.74 84.4471ZM47.74 79.3952C47.74 79.2866 47.6968 79.1824 47.62 79.1055C47.5432 79.0287 47.439 78.9856 47.3303 78.9856H43.0977V79.8048H47.3303C47.439 79.8048 47.5432 79.7616 47.62 79.6848C47.6968 79.608 47.74 79.5038 47.74 79.3952ZM47.74 89.6356C47.74 89.5269 47.6968 89.4228 47.62 89.3459C47.5432 89.2691 47.439 89.226 47.3303 89.226H43.0977V90.0452H47.3303C47.439 90.0452 47.5432 90.002 47.62 89.9252C47.6968 89.8484 47.74 89.7442 47.74 89.6356ZM46.3746 87.0413C46.3746 86.9327 46.3314 86.8285 46.2546 86.7517C46.1778 86.6749 46.0736 86.6317 45.965 86.6317H43.0977V87.451H45.965C46.0736 87.451 46.1778 87.4078 46.2546 87.331C46.3314 87.2542 46.3746 87.15 46.3746 87.0413ZM47.74 63.9663C47.74 63.8577 47.6968 63.7535 47.62 63.6767C47.5432 63.5999 47.439 63.5567 47.3303 63.5567H43.0977V64.376H47.3303C47.439 64.376 47.5432 64.3328 47.62 64.256C47.6968 64.1792 47.74 64.075 47.74 63.9663ZM46.3746 66.424C46.3746 66.3154 46.3314 66.2112 46.2546 66.1344C46.1778 66.0576 46.0736 66.0144 45.965 66.0144H43.0977V66.8337H45.965C46.0736 66.8337 46.1778 66.7905 46.2546 66.7137C46.3314 66.6369 46.3746 66.5327 46.3746 66.424ZM47.74 69.0183C47.74 68.9096 47.6968 68.8054 47.62 68.7286C47.5432 68.6518 47.439 68.6087 47.3303 68.6087H43.0977V69.4279H47.3303C47.439 69.4279 47.5432 69.3847 47.62 69.3079C47.6968 69.2311 47.74 69.1269 47.74 69.0183ZM46.3746 71.6125C46.3746 71.5039 46.3314 71.3997 46.2546 71.3229C46.1778 71.246 46.0736 71.2029 45.965 71.2029H43.0977V72.0221H45.965C46.0736 72.0221 46.1778 71.979 46.2546 71.9021C46.3314 71.8253 46.3746 71.7211 46.3746 71.6125ZM47.74 74.2067C47.74 74.0981 47.6968 73.9939 47.62 73.9171C47.5432 73.8403 47.439 73.7971 47.3303 73.7971H43.0977V74.6163H47.3303C47.439 74.6163 47.5432 74.5732 47.62 74.4964C47.6968 74.4195 47.74 74.3154 47.74 74.2067ZM46.3746 76.6644C46.3746 76.5558 46.3314 76.4516 46.2546 76.3748C46.1778 76.298 46.0736 76.2548 45.965 76.2548H43.0977V77.074H45.965C46.0736 77.074 46.1778 77.0309 46.2546 76.9541C46.3314 76.8772 46.3746 76.7731 46.3746 76.6644Z" fill="#E8A664"/>
<path d="M85.9695 100.422H47.1926C47.084 100.422 46.9798 100.379 46.903 100.302C46.8261 100.225 46.783 100.121 46.783 100.012C46.783 99.9038 46.8261 99.7996 46.903 99.7228C46.9798 99.646 47.084 99.6028 47.1926 99.6028H85.9695C86.0782 99.6028 86.1824 99.646 86.2592 99.7228C86.336 99.7996 86.3791 99.9038 86.3791 100.012C86.3791 100.121 86.336 100.225 86.2592 100.302C86.1824 100.379 86.0782 100.422 85.9695 100.422ZM96.7561 102.334H69.858C69.7494 102.334 69.6452 102.29 69.5683 102.214C69.4915 102.137 69.4484 102.033 69.4484 101.924C69.4484 101.815 69.4915 101.711 69.5683 101.634C69.6452 101.558 69.7494 101.514 69.858 101.514H96.7561C96.8647 101.514 96.9689 101.558 97.0457 101.634C97.1225 101.711 97.1657 101.815 97.1657 101.924C97.1657 102.033 97.1225 102.137 97.0457 102.214C96.9689 102.29 96.8647 102.334 96.7561 102.334ZM102.9 102.334H99.6234C99.5147 102.334 99.4106 102.29 99.3337 102.214C99.2569 102.137 99.2138 102.033 99.2138 101.924C99.2138 101.815 99.2569 101.711 99.3337 101.634C99.4106 101.558 99.5147 101.514 99.6234 101.514H102.9C103.009 101.514 103.113 101.558 103.19 101.634C103.267 101.711 103.31 101.815 103.31 101.924C103.31 102.033 103.267 102.137 103.19 102.214C103.113 102.29 103.009 102.334 102.9 102.334ZM58.3888 102.197H45.5541C45.4455 102.197 45.3413 102.154 45.2645 102.077C45.1877 102 45.1445 101.896 45.1445 101.787C45.1445 101.679 45.1877 101.575 45.2645 101.498C45.3413 101.421 45.4455 101.378 45.5541 101.378H58.3888C58.4974 101.378 58.6016 101.421 58.6784 101.498C58.7552 101.575 58.7984 101.679 58.7984 101.787C58.7984 101.896 58.7552 102 58.6784 102.077C58.6016 102.154 58.4974 102.197 58.3888 102.197ZM73.408 59.7336H59.6176C59.509 59.7336 59.4048 59.6904 59.328 59.6136C59.2511 59.5368 59.208 59.4326 59.208 59.324C59.208 59.2153 59.2511 59.1112 59.328 59.0343C59.4048 58.9575 59.509 58.9144 59.6176 58.9144H73.408C73.5166 58.9144 73.6208 58.9575 73.6976 59.0343C73.7745 59.1112 73.8176 59.2153 73.8176 59.324C73.8176 59.4326 73.7745 59.5368 73.6976 59.6136C73.6208 59.6904 73.5166 59.7336 73.408 59.7336ZM69.4484 63.1471H59.6176C59.509 63.1471 59.4048 63.1039 59.328 63.0271C59.2511 62.9503 59.208 62.8461 59.208 62.7374C59.208 62.6288 59.2511 62.5246 59.328 62.4478C59.4048 62.371 59.509 62.3278 59.6176 62.3278H69.4484C69.557 62.3278 69.6612 62.371 69.738 62.4478C69.8148 62.5246 69.858 62.6288 69.858 62.7374C69.858 62.8461 69.8148 62.9503 69.738 63.0271C69.6612 63.1039 69.557 63.1471 69.4484 63.1471ZM78.4599 66.6971H62.4849C62.3763 66.6971 62.2721 66.6539 62.1953 66.5771C62.1185 66.5003 62.0753 66.3961 62.0753 66.2874C62.0753 66.1788 62.1185 66.0746 62.1953 65.9978C62.2721 65.921 62.3763 65.8778 62.4849 65.8778H78.4599C78.5686 65.8778 78.6727 65.921 78.7496 65.9978C78.8264 66.0746 78.8695 66.1788 78.8695 66.2874C78.8695 66.3961 78.8264 66.5003 78.7496 66.5771C78.6727 66.6539 78.5686 66.6971 78.4599 66.6971ZM78.4599 70.2471H59.6176C59.509 70.2471 59.4048 70.2039 59.328 70.1271C59.2511 70.0503 59.208 69.9461 59.208 69.8374C59.208 69.7288 59.2511 69.6246 59.328 69.5478C59.4048 69.471 59.509 69.4278 59.6176 69.4278H78.4599C78.5686 69.4278 78.6727 69.471 78.7496 69.5478C78.8264 69.6246 78.8695 69.7288 78.8695 69.8374C78.8695 69.9461 78.8264 70.0503 78.7496 70.1271C78.6727 70.2039 78.5686 70.2471 78.4599 70.2471Z" fill="#AFB9D2"/>
<path d="M105.905 61.099L93.6166 73.2509L81.3281 61.099H96.757H105.905Z" fill="#FFE678"/>
<defs>
<filter id="filter0_d_1273_144" x="0.666667" y="0.571429" width="146.667" height="146.667" filterUnits="userSpaceOnUse" color-interpolation-filters="sRGB">
<feFlood flood-opacity="0" result="BackgroundImageFix"/>
<feColorMatrix in="SourceAlpha" type="matrix" values="0 0 0 0 0 0 0 0 0 0 0 0 0 0 0 0 0 0 127 0" result="hardAlpha"/>
<feOffset dy="1.90476"/>
<feGaussianBlur stdDeviation="6.66667"/>
<feComposite in2="hardAlpha" operator="out"/>
<feColorMatrix type="matrix" values="0 0 0 0 0.695898 0 0 0 0 0.695898 0 0 0 0 0.695898 0 0 0 0.25 0"/>
<feBlend mode="normal" in2="BackgroundImageFix" result="effect1_dropShadow_1273_144"/>
<feBlend mode="normal" in="SourceGraphic" in2="effect1_dropShadow_1273_144" result="shape"/>
</filter>
</defs>
</svg>
