<svg width="20" height="20" viewBox="0 0 20 20" fill="none" xmlns="http://www.w3.org/2000/svg">
<circle cx="10" cy="10" r="10" fill="#87FF7C"/>
<path d="M8.77343 13.2799C8.69305 13.28 8.61346 13.2641 8.53923 13.2333C8.46499 13.2025 8.39759 13.1573 8.34088 13.1003L6.16428 10.9237C6.05616 10.8077 5.9973 10.6542 6.0001 10.4957C6.00289 10.3371 6.06713 10.1858 6.17928 10.0736C6.29142 9.9615 6.44272 9.89726 6.6013 9.89446C6.75987 9.89167 6.91334 9.95053 7.02937 10.0586L8.77343 11.8019L12.6908 7.88449C12.8069 7.77637 12.9603 7.71751 13.1189 7.72031C13.2775 7.72311 13.4288 7.78735 13.5409 7.89949C13.6531 8.01164 13.7173 8.16294 13.7201 8.32151C13.7229 8.48008 13.664 8.63355 13.5559 8.74959L9.20842 13.1028C9.15123 13.1596 9.08333 13.2045 9.00866 13.2349C8.934 13.2653 8.85404 13.2806 8.77343 13.2799Z" fill="#43555A"/>
</svg>
