<svg width="148" height="148" viewBox="0 0 148 148" fill="none" xmlns="http://www.w3.org/2000/svg">
<g filter="url(#filter0_d_1778_93)">
<circle cx="74" cy="72" r="60" fill="white"/>
</g>
<g clip-path="url(#clip0_1778_93)">
<path fill-rule="evenodd" clip-rule="evenodd" d="M82.3224 56.8559H73.8987C73.5795 56.8559 73.2735 56.7292 73.0478 56.5035C72.8221 56.2778 72.6953 55.9717 72.6953 55.6525C72.6953 55.3334 72.8221 55.0273 73.0478 54.8016C73.2735 54.5759 73.5795 54.4492 73.8987 54.4492H82.3224C82.6416 54.4492 82.9477 54.3224 83.1734 54.0967C83.399 53.871 83.5258 53.5649 83.5258 53.2458V44.822C83.5258 44.5029 83.6526 44.1968 83.8783 43.9711C84.104 43.7454 84.4101 43.6187 84.7292 43.6187C85.0484 43.6187 85.3545 43.7454 85.5801 43.9711C85.8058 44.1968 85.9326 44.5029 85.9326 44.822V53.2458C85.9326 54.2032 85.5522 55.1215 84.8752 55.7985C84.1982 56.4756 83.2799 56.8559 82.3224 56.8559ZM88.3394 61.6695H73.8987C73.5795 61.6695 73.2735 61.5427 73.0478 61.317C72.8221 61.0914 72.6953 60.7853 72.6953 60.4661C72.6953 60.1469 72.8221 59.8409 73.0478 59.6152C73.2735 59.3895 73.5795 59.2627 73.8987 59.2627H88.3394C88.6585 59.2627 88.9646 59.3895 89.1903 59.6152C89.416 59.8409 89.5428 60.1469 89.5428 60.4661C89.5428 60.7853 89.416 61.0914 89.1903 61.317C88.9646 61.5427 88.6585 61.6695 88.3394 61.6695ZM84.7292 101.381C84.4101 101.381 84.104 101.255 83.8783 101.029C83.6526 100.803 83.5258 100.497 83.5258 100.178V91.7542C83.5258 91.4351 83.399 91.129 83.1734 90.9033C82.9477 90.6776 82.6416 90.5509 82.3224 90.5509H73.8987C73.5795 90.5509 73.2735 90.4241 73.0478 90.1984C72.8221 89.9727 72.6953 89.6666 72.6953 89.3475C72.6953 89.0283 72.8221 88.7222 73.0478 88.4965C73.2735 88.2709 73.5795 88.1441 73.8987 88.1441H82.3224C83.2799 88.1441 84.1982 88.5244 84.8752 89.2015C85.5522 89.8785 85.9326 90.7968 85.9326 91.7542V100.178C85.9326 100.497 85.8058 100.803 85.5801 101.029C85.3545 101.255 85.0484 101.381 84.7292 101.381ZM88.3394 85.7373H73.8987C73.5795 85.7373 73.2735 85.6105 73.0478 85.3848C72.8221 85.1591 72.6953 84.8531 72.6953 84.5339C72.6953 84.2147 72.8221 83.9087 73.0478 83.683C73.2735 83.4573 73.5795 83.3305 73.8987 83.3305H88.3394C88.6585 83.3305 88.9646 83.4573 89.1903 83.683C89.416 83.9087 89.5428 84.2147 89.5428 84.5339C89.5428 84.8531 89.416 85.1591 89.1903 85.3848C88.9646 85.6105 88.6585 85.7373 88.3394 85.7373ZM103.983 73.7034H73.8987C73.5795 73.7034 73.2735 73.5766 73.0478 73.3509C72.8221 73.1253 72.6953 72.8192 72.6953 72.5C72.6953 72.1808 72.8221 71.8748 73.0478 71.6491C73.2735 71.4234 73.5795 71.2966 73.8987 71.2966H103.983C104.303 71.2966 104.609 71.4234 104.834 71.6491C105.06 71.8748 105.187 72.1808 105.187 72.5C105.187 72.8192 105.06 73.1253 104.834 73.3509C104.609 73.5766 104.303 73.7034 103.983 73.7034Z" fill="#BDC3C7"/>
<path fill-rule="evenodd" clip-rule="evenodd" d="M96.7631 89.3475C96.444 89.3475 96.1379 89.2207 95.9122 88.995C95.6865 88.7694 95.5597 88.4633 95.5597 88.1441V80.9238C95.5597 80.6046 95.4329 80.2985 95.2073 80.0728C94.9816 79.8472 94.6755 79.7204 94.3563 79.7204H73.8987C73.5795 79.7204 73.2735 79.5936 73.0478 79.3679C72.8221 79.1422 72.6953 78.8362 72.6953 78.517C72.6953 78.1978 72.8221 77.8917 73.0478 77.6661C73.2735 77.4404 73.5795 77.3136 73.8987 77.3136H94.3563C95.3138 77.3136 96.2321 77.694 96.9091 78.371C97.5861 79.048 97.9665 79.9663 97.9665 80.9238V88.1441C97.9665 88.4633 97.8397 88.7694 97.614 88.995C97.3884 89.2207 97.0823 89.3475 96.7631 89.3475ZM94.3563 67.6865H73.8987C73.5795 67.6865 73.2735 67.5597 73.0478 67.334C72.8221 67.1083 72.6953 66.8023 72.6953 66.4831C72.6953 66.1639 72.8221 65.8579 73.0478 65.6322C73.2735 65.4065 73.5795 65.2797 73.8987 65.2797H94.3563C94.6755 65.2797 94.9816 65.1529 95.2073 64.9272C95.4329 64.7016 95.5597 64.3955 95.5597 64.0763V56.856C95.5597 56.5368 95.6865 56.2307 95.9122 56.0051C96.1379 55.7794 96.444 55.6526 96.7631 55.6526C97.0823 55.6526 97.3884 55.7794 97.614 56.0051C97.8397 56.2307 97.9665 56.5368 97.9665 56.856V64.0763C97.9665 65.0338 97.5861 65.9521 96.9091 66.6291C96.2321 67.3061 95.3138 67.6865 94.3563 67.6865Z" fill="#BDC3C7"/>
<path fill-rule="evenodd" clip-rule="evenodd" d="M51.035 72.5C51.0338 84.6771 60.5694 94.7218 72.7297 95.3523C73.3795 95.374 73.897 95.9059 73.8994 96.5557V106.195C73.8984 106.358 73.8644 106.52 73.7994 106.67C73.7343 106.82 73.6396 106.955 73.5208 107.068C73.4021 107.18 73.2618 107.267 73.1085 107.324C72.9552 107.381 72.7919 107.406 72.6286 107.398C71.9595 107.37 71.2917 107.319 70.6262 107.244C70.1629 107.186 69.7312 106.978 69.3967 106.653C69.0622 106.327 68.8432 105.901 68.7729 105.439L68.0148 100.802C64.4691 100.07 61.0955 98.6684 58.0748 96.6725L54.248 99.4174C53.8705 99.6951 53.413 99.8429 52.9444 99.8386C52.4757 99.8343 52.021 99.678 51.6487 99.3933C50.8106 98.6945 50.0036 97.9594 49.2299 97.1899C48.4545 96.4193 47.7195 95.6091 47.0277 94.7627C46.7424 94.3901 46.5859 93.935 46.5815 93.4658C46.5772 92.9966 46.7253 92.5387 47.0036 92.161L49.7474 88.3366C47.7526 85.3129 46.3517 81.937 45.6197 78.3894L40.9867 77.63C40.5186 77.552 40.0888 77.323 39.7629 76.978C39.437 76.6329 39.2329 76.1908 39.1816 75.719C38.9447 73.5594 38.9447 71.3804 39.1816 69.2207C39.3019 68.2689 40.0384 67.5119 40.9867 67.3663L45.6197 66.6082C46.3517 63.0605 47.7526 59.6846 49.7474 56.661L47.0036 52.8342C46.7264 52.4569 46.579 51.9999 46.5833 51.5317C46.5877 51.0635 46.7436 50.6094 47.0277 50.2373C47.7136 49.3865 48.4477 48.5766 49.2299 47.8136C49.9978 47.0377 50.8051 46.3018 51.6487 45.609C52.021 45.3243 52.4757 45.1681 52.9444 45.1637C53.413 45.1594 53.8705 45.3072 54.248 45.585L58.0748 48.3311C61.0957 46.3352 64.4692 44.9332 68.0148 44.1999L68.7729 39.5644C68.8446 39.1019 69.0637 38.675 69.3977 38.3472C69.7316 38.0193 70.1625 37.8081 70.6262 37.7449C71.2934 37.6784 71.9623 37.6307 72.6322 37.6017C72.7953 37.594 72.9582 37.6195 73.1112 37.6764C73.2642 37.7334 73.4041 37.8207 73.5224 37.9331C73.6408 38.0455 73.7352 38.1807 73.8 38.3306C73.8648 38.4804 73.8986 38.6418 73.8994 38.8051V48.4466C73.8958 49.0964 73.3795 49.6283 72.7297 49.65C60.5706 50.2806 51.035 60.3241 51.035 72.5Z" fill="#3B97D3"/>
<path fill-rule="evenodd" clip-rule="evenodd" d="M73.9003 89.4004C73.9018 89.5502 73.8727 89.6987 73.8149 89.8369C73.7572 89.9752 73.6719 90.1002 73.5643 90.2044C73.4566 90.3087 73.329 90.3899 73.189 90.4433C73.049 90.4966 72.8996 90.5209 72.7499 90.5147C63.2431 89.913 55.8398 82.026 55.8398 72.4999C55.8398 62.9739 63.2431 55.0869 72.7499 54.4852C72.8996 54.479 73.049 54.5033 73.189 54.5566C73.329 54.61 73.4566 54.6912 73.5643 54.7955C73.6719 54.8997 73.7572 55.0247 73.8149 55.163C73.8727 55.3012 73.9018 55.4497 73.9003 55.5995V89.4004Z" fill="#285680"/>
<path fill-rule="evenodd" clip-rule="evenodd" d="M84.7313 46.0254C84.2572 46.0254 83.7877 45.932 83.3497 45.7506C82.9117 45.5692 82.5137 45.3032 82.1785 44.968C81.8433 44.6328 81.5773 44.2348 81.3959 43.7968C81.2145 43.3588 81.1211 42.8893 81.1211 42.4152C81.1211 41.9411 81.2145 41.4717 81.3959 41.0337C81.5773 40.5957 81.8433 40.1977 82.1785 39.8624C82.5137 39.5272 82.9117 39.2613 83.3497 39.0799C83.7877 38.8984 84.2572 38.8051 84.7313 38.8051C85.6887 38.8051 86.607 39.1854 87.284 39.8624C87.9611 40.5395 88.3414 41.4577 88.3414 42.4152C88.3414 43.3727 87.9611 44.291 87.284 44.968C86.607 45.645 85.6887 46.0254 84.7313 46.0254ZM84.7313 106.195C83.7738 106.195 82.8555 105.815 82.1785 105.137C81.5015 104.46 81.1211 103.542 81.1211 102.585C81.1211 101.627 81.5015 100.709 82.1785 100.032C82.8555 99.3549 83.7738 98.9745 84.7313 98.9745C85.6887 98.9745 86.607 99.3549 87.284 100.032C87.9611 100.709 88.3414 101.627 88.3414 102.585C88.3414 103.542 87.9611 104.46 87.284 105.137C86.607 105.815 85.6887 106.195 84.7313 106.195ZM96.7652 94.161C95.8077 94.161 94.8894 93.7806 94.2124 93.1036C93.5353 92.4266 93.155 91.5083 93.155 90.5508C93.155 89.5933 93.5353 88.6751 94.2124 87.998C94.8894 87.321 95.8077 86.9407 96.7652 86.9407C97.7226 86.9407 98.6409 87.321 99.3179 87.998C99.995 88.6751 100.375 89.5933 100.375 90.5508C100.375 91.5083 99.995 92.4266 99.3179 93.1036C98.6409 93.7806 97.7226 94.161 96.7652 94.161ZM106.392 76.1101C105.435 76.1101 104.517 75.7298 103.84 75.0527C103.162 74.3757 102.782 73.4574 102.782 72.5C102.782 71.5425 103.162 70.6242 103.84 69.9472C104.517 69.2702 105.435 68.8898 106.392 68.8898C107.35 68.8898 108.268 69.2702 108.945 69.9472C109.622 70.6242 110.002 71.5425 110.002 72.5C110.002 73.4574 109.622 74.3757 108.945 75.0527C108.268 75.7298 107.35 76.1101 106.392 76.1101ZM96.7652 58.0593C96.2911 58.0593 95.8216 57.9659 95.3836 57.7845C94.9456 57.6031 94.5476 57.3371 94.2124 57.0019C93.8772 56.6667 93.6112 56.2687 93.4298 55.8307C93.2484 55.3927 93.155 54.9232 93.155 54.4491C93.155 53.975 93.2484 53.5056 93.4298 53.0676C93.6112 52.6296 93.8772 52.2316 94.2124 51.8963C94.5476 51.5611 94.9456 51.2952 95.3836 51.1138C95.8216 50.9323 96.2911 50.839 96.7652 50.839C97.7226 50.839 98.6409 51.2193 99.3179 51.8963C99.995 52.5734 100.375 53.4916 100.375 54.4491C100.375 55.4066 99.995 56.3249 99.3179 57.0019C98.6409 57.6789 97.7226 58.0593 96.7652 58.0593Z" fill="#26B99A"/>
</g>
<defs>
<filter id="filter0_d_1778_93" x="0.666667" y="0.571429" width="146.667" height="146.667" filterUnits="userSpaceOnUse" color-interpolation-filters="sRGB">
<feFlood flood-opacity="0" result="BackgroundImageFix"/>
<feColorMatrix in="SourceAlpha" type="matrix" values="0 0 0 0 0 0 0 0 0 0 0 0 0 0 0 0 0 0 127 0" result="hardAlpha"/>
<feOffset dy="1.90476"/>
<feGaussianBlur stdDeviation="6.66667"/>
<feComposite in2="hardAlpha" operator="out"/>
<feColorMatrix type="matrix" values="0 0 0 0 0.695898 0 0 0 0 0.695898 0 0 0 0 0.695898 0 0 0 0.25 0"/>
<feBlend mode="normal" in2="BackgroundImageFix" result="effect1_dropShadow_1778_93"/>
<feBlend mode="normal" in="SourceGraphic" in2="effect1_dropShadow_1778_93" result="shape"/>
</filter>
<clipPath id="clip0_1778_93">
<rect width="71" height="71" fill="white" transform="translate(39 37)"/>
</clipPath>
</defs>
</svg>
