<svg width="148" height="148" viewBox="0 0 148 148" fill="none" xmlns="http://www.w3.org/2000/svg">
<g filter="url(#filter0_d_1273_168)">
<circle cx="74" cy="72" r="60" fill="white"/>
</g>
<path d="M105.562 59.1875V99.125C105.562 100.302 105.095 101.431 104.263 102.263C103.431 103.095 102.302 103.562 101.125 103.562H47.875C46.6981 103.562 45.5694 103.095 44.7372 102.263C43.905 101.431 43.4375 100.302 43.4375 99.125V59.1875C43.4375 58.0106 43.905 56.8819 44.7372 56.0497C45.5694 55.2175 46.6981 54.75 47.875 54.75H101.125C102.302 54.75 103.431 55.2175 104.263 56.0497C105.095 56.8819 105.562 58.0106 105.562 59.1875Z" fill="#0A5078"/>
<path d="M86.7031 54.75V81.375L88.9219 85.8125L90.1488 88.2653C90.241 88.4496 90.3826 88.6047 90.5579 88.713C90.7331 88.8214 90.9351 88.8787 91.1412 88.8787C91.3472 88.8787 91.5492 88.8214 91.7245 88.713C91.8998 88.6047 92.0414 88.4496 92.1335 88.2653L93.3594 85.8125L95.5781 81.375V54.75H86.7031Z" fill="#00325A"/>
<path d="M101.125 60.2969V98.0156C101.125 98.3098 101.008 98.592 100.8 98.8001C100.592 99.0081 100.31 99.125 100.016 99.125H51.2031C50.9089 99.125 50.6267 99.0081 50.4187 98.8001C50.2106 98.592 50.0938 98.3098 50.0938 98.0156V60.2969C50.0938 60.0027 50.2106 59.7205 50.4187 59.5124C50.6267 59.3044 50.9089 59.1875 51.2031 59.1875H100.016C100.31 59.1875 100.592 59.3044 100.8 59.5124C101.008 59.7205 101.125 60.0027 101.125 60.2969Z" fill="#00A0C8"/>
<path d="M86.7031 59.1875V81.375L88.9219 85.8125L90.1488 88.2653C90.241 88.4496 90.3826 88.6047 90.5579 88.713C90.7331 88.8214 90.9351 88.8787 91.1412 88.8787C91.3472 88.8787 91.5492 88.8214 91.7245 88.713C91.8998 88.6047 92.0414 88.4496 92.1335 88.2653L93.3594 85.8125L95.5781 81.375V59.1875H86.7031Z" fill="#0082AA"/>
<path d="M61.8376 71.8499L50.0938 83.5938V85.8125H78.9375L64.9749 71.8499C64.5588 71.434 63.9946 71.2003 63.4062 71.2003C62.8179 71.2003 62.2537 71.434 61.8376 71.8499Z" fill="#D2D2D2"/>
<path d="M101.125 85.8125L82.7249 67.4124C82.3088 66.9965 81.7446 66.7628 81.1562 66.7628C80.5679 66.7628 80.0037 66.9965 79.5876 67.4124L61.1875 85.8125H101.125Z" fill="#F0F0F0"/>
<path d="M95.5781 80.2656L86.7031 71.3906V81.375L88.9219 85.8125H93.3594L95.5781 81.375V80.2656Z" fill="#D2D2D2"/>
<path d="M101.125 85.8125H50.0938V98.0156C50.0938 98.3098 50.2106 98.592 50.4187 98.8001C50.6267 99.0081 50.9089 99.125 51.2031 99.125H100.016C100.31 99.125 100.592 99.0081 100.8 98.8001C101.008 98.592 101.125 98.3098 101.125 98.0156V85.8125Z" fill="#FAB400"/>
<path d="M90.1488 88.2653C90.241 88.4496 90.3826 88.6047 90.5579 88.713C90.7331 88.8213 90.9351 88.8787 91.1412 88.8787C91.3472 88.8787 91.5492 88.8213 91.7245 88.713C91.8998 88.6047 92.0414 88.4496 92.1335 88.2653L93.3594 85.8125H88.9219L90.1488 88.2653Z" fill="#DC9600"/>
<path d="M96.6875 81.375H87.8125L90.0312 85.8125H94.4688L96.6875 81.375Z" fill="#0A5078"/>
<path d="M90.0312 85.8125L91.2582 88.2653C91.3503 88.4496 91.492 88.6047 91.6672 88.713C91.8425 88.8213 92.0445 88.8787 92.2506 88.8787C92.4566 88.8787 92.6586 88.8213 92.8339 88.713C93.0091 88.6047 93.1508 88.4496 93.2429 88.2653L94.4688 85.8125H90.0312Z" fill="#00325A"/>
<path d="M94.4688 41.4375H90.0312C88.8109 41.4375 87.8125 42.4359 87.8125 43.6562V81.375H96.6875V43.6562C96.6875 42.4359 95.6891 41.4375 94.4688 41.4375Z" fill="#FAB400"/>
<path d="M87.8125 68.0625H96.6875V81.375H87.8125V68.0625Z" fill="#C80A50"/>
<path d="M93.3594 79.1562H91.1406C90.8464 79.1562 90.5642 79.0394 90.3562 78.8313C90.1481 78.6233 90.0312 78.3411 90.0312 78.0469C90.0312 77.7527 90.1481 77.4705 90.3562 77.2624C90.5642 77.0544 90.8464 76.9375 91.1406 76.9375H93.3594C93.6536 76.9375 93.9358 77.0544 94.1438 77.2624C94.3519 77.4705 94.4688 77.7527 94.4688 78.0469C94.4688 78.3411 94.3519 78.6233 94.1438 78.8313C93.9358 79.0394 93.6536 79.1562 93.3594 79.1562Z" fill="#FAB400"/>
<path d="M46.7656 80.2656C47.3783 80.2656 47.875 79.7689 47.875 79.1562C47.875 78.5436 47.3783 78.0469 46.7656 78.0469C46.1529 78.0469 45.6562 78.5436 45.6562 79.1562C45.6562 79.7689 46.1529 80.2656 46.7656 80.2656Z" fill="#F0F0F0"/>
<defs>
<filter id="filter0_d_1273_168" x="0.666667" y="0.571429" width="146.667" height="146.667" filterUnits="userSpaceOnUse" color-interpolation-filters="sRGB">
<feFlood flood-opacity="0" result="BackgroundImageFix"/>
<feColorMatrix in="SourceAlpha" type="matrix" values="0 0 0 0 0 0 0 0 0 0 0 0 0 0 0 0 0 0 127 0" result="hardAlpha"/>
<feOffset dy="1.90476"/>
<feGaussianBlur stdDeviation="6.66667"/>
<feComposite in2="hardAlpha" operator="out"/>
<feColorMatrix type="matrix" values="0 0 0 0 0.695898 0 0 0 0 0.695898 0 0 0 0 0.695898 0 0 0 0.25 0"/>
<feBlend mode="normal" in2="BackgroundImageFix" result="effect1_dropShadow_1273_168"/>
<feBlend mode="normal" in="SourceGraphic" in2="effect1_dropShadow_1273_168" result="shape"/>
</filter>
</defs>
</svg>
