<svg width="148" height="148" viewBox="0 0 148 148" fill="none" xmlns="http://www.w3.org/2000/svg">
<g filter="url(#filter0_d_1778_107)">
<circle cx="74" cy="72" r="60" fill="white"/>
</g>
<path fill-rule="evenodd" clip-rule="evenodd" d="M61.3398 92.946H77.821V102.334H61.3398V92.946Z" fill="#A79BA7"/>
<path fill-rule="evenodd" clip-rule="evenodd" d="M76.543 92.946H77.8211V102.334H76.543V92.946Z" fill="#837683"/>
<path fill-rule="evenodd" clip-rule="evenodd" d="M51.7656 106.336H87.3954V103.589C87.3954 102.078 85.8484 100.842 83.9575 100.842H55.2036C53.3126 100.842 51.7656 102.078 51.7656 103.589V106.336Z" fill="#ECEFF1"/>
<path fill-rule="evenodd" clip-rule="evenodd" d="M51.7656 106.336H87.3954V103.589C87.3954 102.691 86.8489 101.891 86.0087 101.388C86.1976 101.728 86.3028 102.103 86.3028 102.497V105.244H51.7656V106.336Z" fill="#D1D1D6"/>
<path fill-rule="evenodd" clip-rule="evenodd" d="M47.3908 58.6406H91.7682C93.9854 58.6406 95.7997 60.4547 95.7997 62.672V90.4059C95.7997 92.6231 93.9856 94.4374 91.7682 94.4374H47.3908C45.1736 94.4374 43.3594 92.6233 43.3594 90.4059V62.672C43.3594 60.4547 45.1735 58.6406 47.3908 58.6406Z" fill="#ECEFF1"/>
<path fill-rule="evenodd" clip-rule="evenodd" d="M94.0181 59.3306C95.0916 60.0568 95.8008 61.2854 95.8008 62.6719V90.406C95.8008 92.6232 93.9867 94.4373 91.7694 94.4373H47.3919C46.0056 94.4373 44.777 93.7281 44.0508 92.6547C44.7143 93.1048 45.4977 93.3451 46.2995 93.3447H90.6768C92.8941 93.3447 94.7082 91.5306 94.7082 89.3134V61.5794C94.7086 60.7776 94.4682 59.9941 94.0181 59.3306Z" fill="#D1D1D6"/>
<path fill-rule="evenodd" clip-rule="evenodd" d="M47.2896 62.0117H91.8693C92.0174 62.0122 92.1594 62.0713 92.2641 62.176C92.3689 62.2808 92.4279 62.4227 92.4284 62.5708V87.6757H46.7305V62.5708C46.7309 62.4227 46.79 62.2807 46.8947 62.176C46.9995 62.0712 47.1414 62.0122 47.2896 62.0117Z" fill="#D8ECFE"/>
<path fill-rule="evenodd" clip-rule="evenodd" d="M89.6836 62.0117H91.8686C92.0168 62.0122 92.1587 62.0713 92.2635 62.176C92.3682 62.2808 92.4273 62.4227 92.4278 62.5708V87.6757H90.2427V62.5708C90.2422 62.4227 90.1832 62.2808 90.0784 62.176C89.9737 62.0713 89.8317 62.0122 89.6836 62.0117Z" fill="#C4E2FF"/>
<path fill-rule="evenodd" clip-rule="evenodd" d="M85.4639 47.7005C87.0124 48.0694 88.4922 48.6828 89.8475 49.5177L92.6961 48.2526L96.0534 51.6099L94.7886 54.4575C95.6238 55.8131 96.2375 57.2933 96.6063 58.8423L99.5124 59.9608V64.7087L96.6056 65.8275C96.2367 67.376 95.6232 68.8559 94.7883 70.2112L96.0534 73.0598L92.6961 76.417L89.8485 75.1522C88.4929 75.9875 87.0127 76.6011 85.4637 76.9698L84.345 79.8759H79.5972L78.4783 76.9691C76.9297 76.6002 75.4499 75.9867 74.0946 75.1518L71.246 76.4169L67.8887 73.0597L69.1535 70.212C68.3183 68.8564 67.7047 67.3762 67.3358 65.8272L64.4297 64.7087V59.9608L67.3362 58.842C67.7051 57.2934 68.3186 55.8135 69.1537 54.4581L67.8887 51.6098L71.246 48.2524L74.0944 49.5175C75.4497 48.6826 76.9295 48.0691 78.478 47.7002L79.5969 44.7933H84.3446L85.4639 47.7005Z" fill="#FFE177"/>
<path fill-rule="evenodd" clip-rule="evenodd" d="M74.0919 75.152L71.2433 76.4171L70.8047 75.9785L73.4754 74.7924C73.6782 74.9173 73.8838 75.0372 74.0919 75.152ZM85.4611 47.7005C87.0096 48.0694 88.4894 48.6829 89.8448 49.5178L89.035 49.8774C87.6794 49.0427 85.5838 48.0691 84.035 47.7005L82.916 44.7937H84.3421L85.4611 47.7005ZM89.8457 75.1524C88.4901 75.9877 87.0099 76.6013 85.4609 76.97L84.3423 79.8762H82.9162L84.0348 76.97C85.5839 76.6014 87.6802 75.6278 89.036 74.7927L89.8457 75.1524ZM70.8047 48.6914L71.2433 48.2527L74.0918 49.5178C73.8835 49.6328 73.678 49.7527 73.4754 49.8774L70.8047 48.6914ZM91.7057 48.6914L92.6932 48.2527L96.0505 51.61L94.7856 54.4576C95.6209 55.8132 96.2345 57.2934 96.6033 58.8424L99.5095 59.9609V64.7088L96.6026 65.8276C96.2338 67.3761 95.6203 68.8559 94.7854 70.2113L96.0505 73.0599L92.6932 76.4171L91.7056 75.9785L94.6242 73.0599L93.3591 70.2113C94.1941 68.8559 94.8075 67.3761 95.1764 65.8276L98.0833 64.7088V59.9609L95.1771 58.8424C94.8083 57.2934 94.1947 55.8132 93.3594 54.4576L94.6242 51.61L91.7057 48.6914Z" fill="#FFD064"/>
<path d="M90.0742 70.4475C94.5537 65.9681 94.5537 58.7055 90.0742 54.2261C85.5948 49.7467 78.3323 49.7467 73.8529 54.2261C69.3735 58.7055 69.3735 65.9681 73.8529 70.4475C78.3323 74.9269 85.5948 74.9269 90.0742 70.4475Z" fill="#ECEFF1"/>
<path fill-rule="evenodd" clip-rule="evenodd" d="M81.9702 50.8647C75.6349 50.8647 70.5 55.9996 70.5 62.335C70.5 68.6704 75.6349 73.8052 81.9702 73.8052C82.2025 73.8052 82.4329 73.7975 82.6617 73.7839C76.6484 73.4264 71.883 68.4381 71.883 62.335C71.883 56.2319 76.6484 51.2436 82.6617 50.8861C82.4315 50.8721 82.2009 50.865 81.9702 50.8647Z" fill="#D1D1D6"/>
<path fill-rule="evenodd" clip-rule="evenodd" d="M94.0735 44.6178C92.6394 43.635 91.0907 42.8308 89.4617 42.2231C87.1366 41.3564 84.6121 40.8827 81.9682 40.8827C76.0442 40.8827 70.6811 43.2838 66.799 47.1659C62.917 51.0479 60.5158 56.411 60.5158 62.335C60.5158 64.3261 60.7837 66.2454 61.2847 68.0592C61.7993 69.9201 62.5639 71.7027 63.5577 73.3581C63.6335 73.4828 63.6839 73.6212 63.706 73.7655C63.7281 73.9097 63.7214 74.0569 63.6864 74.1986C63.6513 74.3402 63.5885 74.4735 63.5017 74.5908C63.4149 74.7081 63.3057 74.8071 63.1805 74.882C63.0553 74.9569 62.9165 75.0062 62.7721 75.0272C62.6276 75.0483 62.4805 75.0405 62.3391 75.0044C62.1977 74.9682 62.0649 74.9045 61.9483 74.8168C61.8316 74.7291 61.7335 74.6192 61.6595 74.4934C60.5633 72.6674 59.72 70.7012 59.1525 68.6484C58.5842 66.5921 58.2964 64.4684 58.2969 62.335C58.2969 55.7985 60.9465 49.8807 65.2301 45.5971C69.5138 41.3134 75.4314 38.6639 81.9679 38.6639C84.867 38.6639 87.6522 39.1898 90.2329 40.1518C91.9534 40.7934 93.5933 41.6335 95.1191 42.6552L94.9082 41.9158C94.8308 41.634 94.8677 41.3331 95.0111 41.0784C95.1544 40.8237 95.3926 40.636 95.6736 40.556C95.9547 40.476 96.256 40.5103 96.5119 40.6513C96.7679 40.7924 96.9578 41.0288 97.0403 41.3091L98.1822 45.3117C98.2301 45.4799 98.2375 45.6569 98.2039 45.8285C98.1702 46 98.0965 46.1611 97.9887 46.2987C97.8809 46.4364 97.7421 46.5465 97.5836 46.6203C97.4251 46.694 97.2514 46.7292 97.0767 46.723L92.9955 46.8696C92.703 46.8789 92.4188 46.7719 92.2051 46.572C91.9914 46.3722 91.8656 46.0958 91.8552 45.8033C91.8449 45.5109 91.951 45.2263 92.1501 45.0119C92.3492 44.7975 92.6252 44.6707 92.9176 44.6594L94.0735 44.6178ZM69.0279 82.7541L68.8171 82.0155C70.3999 83.0753 72.1052 83.9397 73.8957 84.5897C76.4207 85.5061 79.1394 86.006 81.968 86.006C88.5045 86.006 94.4223 83.3564 98.7059 79.0728C102.989 74.7892 105.639 68.8714 105.639 62.335C105.639 60.2051 105.356 58.1375 104.826 56.1682C104.285 54.1609 103.481 52.2342 102.434 50.4383C102.285 50.1866 102.043 50.0038 101.761 49.9296C101.478 49.8555 101.178 49.896 100.925 50.0424C100.672 50.1888 100.488 50.4292 100.412 50.7112C100.335 50.9931 100.374 51.2938 100.518 51.5477C101.467 53.1752 102.196 54.9213 102.685 56.7402C103.165 58.5206 103.421 60.3962 103.421 62.335C103.421 68.2589 101.019 73.622 97.1375 77.5041C93.2555 81.3861 87.8924 83.7872 81.9683 83.7872C79.3919 83.7872 76.9277 83.3363 74.6499 82.5096C72.9584 81.8951 71.3512 81.0692 69.8667 80.0518L71.0186 80.0105C71.311 79.9992 71.587 79.8724 71.7861 79.658C71.9852 79.4436 72.0913 79.159 72.0809 78.8666C72.0706 78.5742 71.9448 78.2977 71.7311 78.0979C71.5174 77.898 71.2332 77.791 70.9407 77.8003L66.8596 77.9469C66.6849 77.9407 66.5112 77.9759 66.3527 78.0497C66.1942 78.1234 66.0554 78.2336 65.9476 78.3712C65.8398 78.5088 65.7661 78.6699 65.7325 78.8415C65.6988 79.013 65.7062 79.19 65.7541 79.3582L66.8961 83.3608C66.9338 83.5031 66.9995 83.6365 67.0894 83.7531C67.1793 83.8697 67.2915 83.9673 67.4194 84.0401C67.5474 84.1129 67.6886 84.1594 67.8348 84.177C67.981 84.1947 68.1292 84.183 68.2708 84.1427C68.4124 84.1024 68.5446 84.0343 68.6596 83.9423C68.7746 83.8504 68.8701 83.7364 68.9406 83.6072C69.0111 83.4779 69.0551 83.3359 69.0701 83.1894C69.085 83.043 69.0707 82.895 69.0279 82.7541Z" fill="#A79BA7"/>
<path fill-rule="evenodd" clip-rule="evenodd" d="M83.9122 57.5444C83.8567 57.7666 83.7336 57.9661 83.56 58.1155C83.3864 58.2648 83.1707 58.3567 82.9427 58.3784C82.7147 58.4001 82.4856 58.3506 82.2869 58.2368C82.0882 58.1229 81.9297 57.9503 81.8331 57.7426L76.901 61.5806C76.6684 61.7558 76.3763 61.8325 76.0876 61.7941C75.799 61.7557 75.537 61.6053 75.3584 61.3754C75.1797 61.1455 75.0986 60.8546 75.1326 60.5654C75.1666 60.2762 75.313 60.012 75.5402 59.8299L80.4734 55.991C80.2965 55.847 80.1685 55.6517 80.1069 55.432C80.0454 55.2123 80.0533 54.9789 80.1297 54.7639C80.2061 54.5489 80.3472 54.3628 80.5336 54.2311C80.72 54.0995 80.9425 54.0288 81.1707 54.0287L83.2968 54.0323C83.4714 54.0198 83.6464 54.0489 83.8076 54.1172C83.9687 54.1855 84.1114 54.2909 84.2239 54.425C84.3365 54.559 84.4156 54.7178 84.455 54.8884C84.4943 55.0589 84.4926 55.2363 84.4501 55.4061L83.9122 57.5444Z" fill="#A79BA7"/>
<path fill-rule="evenodd" clip-rule="evenodd" d="M75.3017 63.8215H77.0886C77.2638 63.8219 77.4318 63.8916 77.5557 64.0155C77.6796 64.1394 77.7493 64.3074 77.7497 64.4826V66.7339C77.7493 66.9091 77.6796 67.0771 77.5557 67.201C77.4318 67.3249 77.2638 67.3946 77.0886 67.395H75.3017C75.1265 67.3946 74.9585 67.3249 74.8346 67.201C74.7107 67.0771 74.641 66.9091 74.6406 66.7339V64.4826C74.641 64.3074 74.7108 64.1394 74.8346 64.0156C74.9585 63.8917 75.1265 63.8219 75.3017 63.8215Z" fill="#FE646F"/>
<path fill-rule="evenodd" clip-rule="evenodd" d="M76.1367 63.8215H77.0905C77.2657 63.8219 77.4337 63.8916 77.5576 64.0155C77.6815 64.1394 77.7512 64.3074 77.7516 64.4826V66.7339C77.7512 66.9091 77.6815 67.0771 77.5576 67.201C77.4337 67.3249 77.2657 67.3946 77.0905 67.395H76.1367C76.3119 67.3946 76.4799 67.3249 76.6038 67.201C76.7277 67.0771 76.7974 66.9091 76.7978 66.7339V64.4826C76.7974 64.3074 76.7276 64.1394 76.6037 64.0156C76.4799 63.8917 76.3119 63.8219 76.1367 63.8215Z" fill="#FD4755"/>
<path fill-rule="evenodd" clip-rule="evenodd" d="M81.0751 60.6958H82.862C83.0373 60.6961 83.2052 60.7659 83.3291 60.8898C83.453 61.0137 83.5228 61.1816 83.5231 61.3568V66.734C83.5228 66.9092 83.453 67.0772 83.3291 67.2011C83.2052 67.325 83.0373 67.3947 82.862 67.395H81.0751C80.8999 67.3947 80.7319 67.325 80.608 67.2011C80.4841 67.0772 80.4144 66.9092 80.4141 66.734V61.3568C80.4144 61.1816 80.4842 61.0137 80.6081 60.8898C80.732 60.7659 80.8999 60.6962 81.0751 60.6958Z" fill="#6CF5C2"/>
<path fill-rule="evenodd" clip-rule="evenodd" d="M81.9102 60.6958H82.8639C83.0392 60.6961 83.2071 60.7659 83.331 60.8898C83.4549 61.0137 83.5247 61.1816 83.525 61.3568V66.734C83.5247 66.9092 83.4549 67.0772 83.331 67.2011C83.2071 67.325 83.0392 67.3947 82.8639 67.395H81.9102C82.0854 67.3947 82.2533 67.325 82.3772 67.2011C82.5011 67.0772 82.5709 66.9092 82.5712 66.734V61.3568C82.5709 61.1816 82.5011 61.0137 82.3772 60.8898C82.2533 60.7659 82.0854 60.6961 81.9102 60.6958Z" fill="#00E499"/>
<path fill-rule="evenodd" clip-rule="evenodd" d="M86.8485 57.4318H88.6355C88.8107 57.4321 88.9786 57.5018 89.1025 57.6257C89.2264 57.7496 89.2962 57.9176 89.2965 58.0928V66.7343C89.2962 66.9095 89.2264 67.0774 89.1025 67.2013C88.9786 67.3252 88.8107 67.395 88.6355 67.3953H86.8485C86.6733 67.395 86.5054 67.3253 86.3815 67.2014C86.2576 67.0775 86.1878 66.9095 86.1875 66.7343V58.0928C86.1878 57.9176 86.2576 57.7496 86.3815 57.6257C86.5054 57.5018 86.6733 57.4321 86.8485 57.4318Z" fill="#8AC9FE"/>
<path fill-rule="evenodd" clip-rule="evenodd" d="M87.6836 57.4318H88.6374C88.8126 57.4321 88.9805 57.5018 89.1044 57.6257C89.2283 57.7496 89.2981 57.9176 89.2984 58.0928V66.7343C89.2981 66.9095 89.2283 67.0774 89.1044 67.2013C88.9805 67.3252 88.8126 67.395 88.6374 67.3953H87.6836C87.8588 67.395 88.0268 67.3253 88.1507 67.2014C88.2746 67.0775 88.3443 66.9095 88.3446 66.7343V58.0928C88.3443 57.9176 88.2746 57.7496 88.1507 57.6257C88.0268 57.5018 87.8588 57.4321 87.6836 57.4318Z" fill="#60B7FF"/>
<defs>
<filter id="filter0_d_1778_107" x="0.666667" y="0.571429" width="146.667" height="146.667" filterUnits="userSpaceOnUse" color-interpolation-filters="sRGB">
<feFlood flood-opacity="0" result="BackgroundImageFix"/>
<feColorMatrix in="SourceAlpha" type="matrix" values="0 0 0 0 0 0 0 0 0 0 0 0 0 0 0 0 0 0 127 0" result="hardAlpha"/>
<feOffset dy="1.90476"/>
<feGaussianBlur stdDeviation="6.66667"/>
<feComposite in2="hardAlpha" operator="out"/>
<feColorMatrix type="matrix" values="0 0 0 0 0.695898 0 0 0 0 0.695898 0 0 0 0 0.695898 0 0 0 0.25 0"/>
<feBlend mode="normal" in2="BackgroundImageFix" result="effect1_dropShadow_1778_107"/>
<feBlend mode="normal" in="SourceGraphic" in2="effect1_dropShadow_1778_107" result="shape"/>
</filter>
</defs>
</svg>
