<svg width="148" height="148" viewBox="0 0 148 148" fill="none" xmlns="http://www.w3.org/2000/svg">
<g filter="url(#filter0_d_1273_186)">
<circle cx="74" cy="72" r="60" fill="white"/>
</g>
<g clip-path="url(#clip0_1273_186)">
<path fill-rule="evenodd" clip-rule="evenodd" d="M107.166 41.6731H41.8334C40.5984 41.6731 39.5859 42.7381 39.5859 44.038V87.4487L76.2086 89.7569L109.418 87.4487V44.038C109.418 42.7381 108.405 41.6731 107.166 41.6731Z" fill="#F9F3F1"/>
<path fill-rule="evenodd" clip-rule="evenodd" d="M84.4267 94.1384L74.5015 91.6035L66.3218 94.1384L60.4219 101.132L74.9673 103.991L90.3266 101.132L84.4267 94.1384Z" fill="#9FACBA"/>
<path fill-rule="evenodd" clip-rule="evenodd" d="M104.955 44.038V88.4369L109.417 87.4488V44.038C109.417 42.7381 108.405 41.6731 107.166 41.6731H102.703C104.955 41.6712 104.955 42.7381 104.955 44.038Z" fill="#DDDAEC"/>
<path fill-rule="evenodd" clip-rule="evenodd" d="M81.7903 97.4754C81.9166 97.4754 82.0364 97.5312 82.1178 97.6275L85.075 101.132L86.6421 102.845L90.323 101.132L84.4231 94.1386L75.0239 91.0714L66.3183 94.1386L63.5039 97.4753H81.7903V97.4754Z" fill="#8696A5"/>
<path fill-rule="evenodd" clip-rule="evenodd" d="M82.7891 69.6269L100.239 80.4877H100.993C101.106 80.4877 101.216 80.4425 101.296 80.3621C101.376 80.2817 101.421 80.1727 101.421 80.059V53.9101C101.421 53.7964 101.376 53.6874 101.296 53.607C101.216 53.5266 101.106 53.4814 100.993 53.4814H98.0968L82.7891 69.6269Z" fill="#B1E4F9"/>
<path fill-rule="evenodd" clip-rule="evenodd" d="M98.0938 53.4814V78.3495L98.0978 79.6429L100.236 80.4877H101.418V53.9101C101.418 53.7964 101.373 53.6874 101.293 53.607C101.212 53.5266 101.103 53.4814 100.99 53.4814H98.0938Z" fill="#75CEF8"/>
<path fill-rule="evenodd" clip-rule="evenodd" d="M57.238 62.4836L52.2735 60.8638L47.8516 62.4836V71.4856L52.1884 73.9153L57.238 71.4856L58.8578 67.4077L57.238 62.4836Z" fill="#EB5468"/>
<path fill-rule="evenodd" clip-rule="evenodd" d="M57.237 62.4836L54.1797 61.4874V72.9556L57.237 71.4857L58.9216 67.2377L57.237 62.4836Z" fill="#E5384F"/>
<path fill-rule="evenodd" clip-rule="evenodd" d="M90.3259 101.132H57.129C55.2419 101.132 53.6992 102.679 53.6992 104.566V106.538C53.6992 107.34 54.3553 108 55.1611 108H95.5903C96.3961 108 97.0522 107.34 97.0522 106.538V104.566C97.0522 102.679 95.5053 101.132 93.6183 101.132H90.3259Z" fill="#B6C4CF"/>
<path fill-rule="evenodd" clip-rule="evenodd" d="M90.3261 101.132H88.3945C90.2694 101.144 91.8041 102.687 91.8041 104.566V106.538C91.8041 107.34 91.144 108 90.3422 108H95.5902C96.396 108 97.0521 107.34 97.0521 106.538V104.566C97.0521 102.679 95.5052 101.132 93.6182 101.132H90.3261Z" fill="#9FACBA"/>
<path fill-rule="evenodd" clip-rule="evenodd" d="M109.418 87.4487H39.5859V91.7736C39.5859 93.0735 40.5982 94.1385 41.8334 94.1385H107.166C108.405 94.1385 109.418 93.0735 109.418 91.7736V87.4487Z" fill="#B6C4CF"/>
<path fill-rule="evenodd" clip-rule="evenodd" d="M109.417 87.4487H104.955V91.7736C104.955 93.0735 103.942 94.1385 102.703 94.1385H107.166C108.405 94.1385 109.417 93.0735 109.417 91.7736V87.4487Z" fill="#9FACBA"/>
<path fill-rule="evenodd" clip-rule="evenodd" d="M57.2381 62.4836L58.8579 58.6649L57.2381 53.4814H48.2802C48.1665 53.4814 48.0575 53.5266 47.9771 53.607C47.8967 53.6874 47.8516 53.7964 47.8516 53.9101V62.4836H57.2381Z" fill="#7FDBAE"/>
<path fill-rule="evenodd" clip-rule="evenodd" d="M57.238 71.4856H47.8516V80.0591C47.8516 80.1728 47.8967 80.2818 47.9771 80.3622C48.0575 80.4426 48.1665 80.4878 48.2802 80.4878H57.238V71.4856Z" fill="#FEC165"/>
<path fill-rule="evenodd" clip-rule="evenodd" d="M54.1797 62.4836H57.237L58.8568 58.6649L57.237 53.4814H54.1797V62.4836Z" fill="#26BB9E"/>
<path fill-rule="evenodd" clip-rule="evenodd" d="M54.1797 71.4856H57.237V80.4876H54.1797V71.4856Z" fill="#FDB441"/>
<path fill-rule="evenodd" clip-rule="evenodd" d="M57.2383 62.4836V71.4856C57.4488 71.271 73.6465 74.057 82.0084 70.044C87.6856 67.3227 89.358 60.0498 89.4552 53.4816H57.2383V62.4836Z" fill="#B1E4F9"/>
<path fill-rule="evenodd" clip-rule="evenodd" d="M89.3576 69.6268L83.6764 64.1195C81.8015 62.9208 79.2666 63.1355 77.6347 64.7673L72.33 70.06L61.8906 80.4875H100.238L89.3576 69.6268Z" fill="#7FDBAE"/>
<path fill-rule="evenodd" clip-rule="evenodd" d="M72.3305 70.0602L66.973 64.7108C66.1592 63.9009 64.831 63.9009 64.021 64.7108L57.2383 71.4856V80.4876H61.891L72.3305 70.0602Z" fill="#7FDBAE"/>
<path fill-rule="evenodd" clip-rule="evenodd" d="M89.3573 69.6269C88.5423 69.9544 87.682 70.1552 86.8062 70.2222C87.9359 72.5344 88.847 75.0898 89.4748 77.8313C89.6755 78.7104 89.8444 79.5965 89.9809 80.4878H100.238L98.0959 78.3496L89.3573 69.6269ZM61.8903 80.4877L72.3297 70.0603L68.1629 65.9015C67.5717 71.0039 63.8826 76.3938 58.1406 80.4878L61.8903 80.4877Z" fill="#26BB9E"/>
<path fill-rule="evenodd" clip-rule="evenodd" d="M105.133 37H97.4417C97.2754 37 97.1241 37.0962 97.0536 37.2467L94.6706 42.3332L90.3945 51.4769L93.6543 54.0686L97.485 54.7934L98.0964 53.4814L103.312 42.3332L105.521 37.6102C105.654 37.326 105.447 37 105.133 37Z" fill="#EB5468"/>
<path fill-rule="evenodd" clip-rule="evenodd" d="M94.707 54.2712L97.4849 54.7935L98.0963 53.4816L105.521 37.6102C105.654 37.326 105.446 37 105.133 37H102.785L95.6181 52.3234L94.707 54.2712Z" fill="#E5384F"/>
<path fill-rule="evenodd" clip-rule="evenodd" d="M95.0207 60.0498L92.0039 57.3932L87.9343 56.7332C85.2131 57.5592 84.2696 60.1915 83.9942 62.4672C83.9213 63.0626 83.82 63.6132 83.6743 64.1194C83.2246 65.7151 82.3688 66.8918 80.7756 67.8882C80.5052 68.0574 80.5079 68.4501 80.779 68.6182C83.8673 70.5323 86.8888 70.6127 89.3557 69.6267C93.2389 68.076 95.7576 63.8847 95.0207 60.0498Z" fill="#FEC165"/>
<path fill-rule="evenodd" clip-rule="evenodd" d="M97.486 54.7935L90.3955 51.4769L89.4561 53.4814L87.9375 56.7333L95.024 60.0498L97.486 54.7935Z" fill="#375E7D"/>
<path fill-rule="evenodd" clip-rule="evenodd" d="M92.5442 58.8876C93.2771 62.7266 90.7624 66.9178 86.879 68.4687C85.0811 69.1855 82.9916 69.3393 80.7969 68.6307C83.8784 70.5339 86.8912 70.6109 89.3574 69.6269C93.2407 68.076 95.7594 63.8846 95.0225 60.0498L94.4597 58.191L92.5442 58.8876Z" fill="#FDB441"/>
<path fill-rule="evenodd" clip-rule="evenodd" d="M92.543 58.8876L95.0213 60.0498L97.4833 54.7936L95.0011 53.6354L92.543 58.8876Z" fill="#2B4D66"/>
<path d="M70.0798 49.572H47.8526C47.5685 49.572 47.296 49.4591 47.095 49.2582C46.8941 49.0572 46.7812 48.7847 46.7812 48.5006C46.7812 48.2164 46.8941 47.9439 47.095 47.743C47.296 47.5421 47.5685 47.4292 47.8526 47.4292H70.0798C70.3639 47.4292 70.6364 47.5421 70.8374 47.743C71.0383 47.9439 71.1512 48.2164 71.1512 48.5006C71.1512 48.7847 71.0383 49.0572 70.8374 49.2582C70.6364 49.4591 70.3639 49.572 70.0798 49.572Z" fill="#2B4D66"/>
</g>
<defs>
<filter id="filter0_d_1273_186" x="0.666667" y="0.571429" width="146.667" height="146.667" filterUnits="userSpaceOnUse" color-interpolation-filters="sRGB">
<feFlood flood-opacity="0" result="BackgroundImageFix"/>
<feColorMatrix in="SourceAlpha" type="matrix" values="0 0 0 0 0 0 0 0 0 0 0 0 0 0 0 0 0 0 127 0" result="hardAlpha"/>
<feOffset dy="1.90476"/>
<feGaussianBlur stdDeviation="6.66667"/>
<feComposite in2="hardAlpha" operator="out"/>
<feColorMatrix type="matrix" values="0 0 0 0 0.695898 0 0 0 0 0.695898 0 0 0 0 0.695898 0 0 0 0.25 0"/>
<feBlend mode="normal" in2="BackgroundImageFix" result="effect1_dropShadow_1273_186"/>
<feBlend mode="normal" in="SourceGraphic" in2="effect1_dropShadow_1273_186" result="shape"/>
</filter>
<clipPath id="clip0_1273_186">
<rect width="71" height="71" fill="white" transform="translate(39 37)"/>
</clipPath>
</defs>
</svg>
