<svg width="148" height="148" viewBox="0 0 148 148" fill="none" xmlns="http://www.w3.org/2000/svg">
<g filter="url(#filter0_d_1778_114)">
<circle cx="74" cy="72" r="60" fill="white"/>
</g>
<g clip-path="url(#clip0_1778_114)">
<path d="M74.4992 99.125C74.1069 99.125 73.7306 98.9692 73.4533 98.6918C73.1759 98.4144 73.02 98.0382 73.02 97.6459V81.375C73.02 80.9827 73.1759 80.6065 73.4533 80.3291C73.7306 80.0517 74.1069 79.8959 74.4992 79.8959C74.8915 79.8959 75.2677 80.0517 75.5451 80.3291C75.8225 80.6065 75.9783 80.9827 75.9783 81.375V97.6459C75.9783 98.0382 75.8225 98.4144 75.5451 98.6918C75.2677 98.9692 74.8915 99.125 74.4992 99.125ZM91.5096 95.4271C91.3153 95.4273 91.1229 95.3891 90.9435 95.3148C90.764 95.2404 90.601 95.1313 90.4638 94.9937L86.7659 91.2958C86.6283 91.1586 86.5193 90.9956 86.4449 90.8162C86.3705 90.6367 86.3323 90.4443 86.3325 90.25V81.375C86.3325 80.9827 86.4884 80.6065 86.7658 80.3291C87.0431 80.0517 87.4194 79.8959 87.8117 79.8959C88.204 79.8959 88.5802 80.0517 88.8576 80.3291C89.135 80.6065 89.2908 80.9827 89.2908 81.375V89.6377L92.5554 92.9022C92.7629 93.1088 92.9044 93.3724 92.9618 93.6595C93.0193 93.9466 92.9901 94.2443 92.8781 94.5149C92.766 94.7854 92.5761 95.0166 92.3325 95.179C92.0888 95.3414 91.8024 95.4278 91.5096 95.4271ZM57.4888 95.4271C57.1959 95.4278 56.9095 95.3414 56.6659 95.179C56.4222 95.0166 56.2323 94.7854 56.1203 94.5149C56.0082 94.2443 55.9791 93.9466 56.0365 93.6595C56.094 93.3724 56.2355 93.1088 56.443 92.9022L59.7075 89.6377V81.375C59.7075 80.9827 59.8634 80.6065 60.1408 80.3291C60.4181 80.0517 60.7944 79.8959 61.1867 79.8959C61.579 79.8959 61.9552 80.0517 62.2326 80.3291C62.51 80.6065 62.6658 80.9827 62.6658 81.375V90.25C62.6658 90.6435 62.5105 91.0192 62.2325 91.2958L58.5345 94.9937C58.3974 95.1313 58.2344 95.2404 58.0549 95.3148C57.8754 95.3891 57.683 95.4273 57.4888 95.4271Z" fill="#AECEE8"/>
<path d="M74.5 105.042C76.9508 105.042 78.9375 103.055 78.9375 100.604C78.9375 98.1535 76.9508 96.1667 74.5 96.1667C72.0492 96.1667 70.0625 98.1535 70.0625 100.604C70.0625 103.055 72.0492 105.042 74.5 105.042Z" fill="#0588E2"/>
<path d="M74.4987 102.083C75.3156 102.083 75.9779 101.421 75.9779 100.604C75.9779 99.7872 75.3156 99.125 74.4987 99.125C73.6818 99.125 73.0195 99.7872 73.0195 100.604C73.0195 101.421 73.6818 102.083 74.4987 102.083Z" fill="#EFF3F9"/>
<path d="M93.7305 100.604C96.1812 100.604 98.168 98.6175 98.168 96.1667C98.168 93.716 96.1812 91.7292 93.7305 91.7292C91.2797 91.7292 89.293 93.716 89.293 96.1667C89.293 98.6175 91.2797 100.604 93.7305 100.604Z" fill="#0588E2"/>
<path d="M93.7292 97.6458C94.5461 97.6458 95.2083 96.9836 95.2083 96.1667C95.2083 95.3497 94.5461 94.6875 93.7292 94.6875C92.9122 94.6875 92.25 95.3497 92.25 96.1667C92.25 96.9836 92.9122 97.6458 93.7292 97.6458Z" fill="#EFF3F9"/>
<path d="M55.2695 100.604C57.7203 100.604 59.707 98.6175 59.707 96.1667C59.707 93.716 57.7203 91.7292 55.2695 91.7292C52.8188 91.7292 50.832 93.716 50.832 96.1667C50.832 98.6175 52.8188 100.604 55.2695 100.604Z" fill="#0588E2"/>
<path d="M55.2721 97.6458C56.0891 97.6458 56.7513 96.9836 56.7513 96.1667C56.7513 95.3497 56.0891 94.6875 55.2721 94.6875C54.4552 94.6875 53.793 95.3497 53.793 96.1667C53.793 96.9836 54.4552 97.6458 55.2721 97.6458Z" fill="#EFF3F9"/>
<path d="M96.5899 56.2617C95.8754 50.4102 90.898 45.875 84.8542 45.875C82.6465 45.8756 80.4836 46.4968 78.6121 47.6678C77.34 45.3342 75.4624 43.3867 73.177 42.03C70.8916 40.6733 68.2828 39.9577 65.625 39.9584C57.4556 39.9584 50.8333 46.5806 50.8333 54.75C50.8333 55.3106 50.8703 55.8624 50.931 56.4067C44.18 57.4303 39 63.2434 39 70.2813C39 74.0081 40.4805 77.5823 43.1158 80.2176C45.751 82.8529 49.3252 84.3334 53.0521 84.3334H95.9479C99.6748 84.3334 103.249 82.8529 105.884 80.2176C108.52 77.5823 110 74.0081 110 70.2813C110 62.7375 104.051 56.599 96.5899 56.2617Z" fill="#EFF3F9"/>
<path d="M99.5216 78.4167H49.4755C45.9225 78.4167 42.6417 77.2748 39.957 75.3534C41.9924 80.6044 47.0807 84.3334 53.0506 84.3334H95.9464C101.916 84.3334 107.003 80.6044 109.04 75.3534C106.267 77.3468 102.937 78.4183 99.5216 78.4167Z" fill="#CFE0F3"/>
</g>
<defs>
<filter id="filter0_d_1778_114" x="0.666667" y="0.571429" width="146.667" height="146.667" filterUnits="userSpaceOnUse" color-interpolation-filters="sRGB">
<feFlood flood-opacity="0" result="BackgroundImageFix"/>
<feColorMatrix in="SourceAlpha" type="matrix" values="0 0 0 0 0 0 0 0 0 0 0 0 0 0 0 0 0 0 127 0" result="hardAlpha"/>
<feOffset dy="1.90476"/>
<feGaussianBlur stdDeviation="6.66667"/>
<feComposite in2="hardAlpha" operator="out"/>
<feColorMatrix type="matrix" values="0 0 0 0 0.695898 0 0 0 0 0.695898 0 0 0 0 0.695898 0 0 0 0.25 0"/>
<feBlend mode="normal" in2="BackgroundImageFix" result="effect1_dropShadow_1778_114"/>
<feBlend mode="normal" in="SourceGraphic" in2="effect1_dropShadow_1778_114" result="shape"/>
</filter>
<clipPath id="clip0_1778_114">
<rect width="71" height="71" fill="white" transform="translate(39 37)"/>
</clipPath>
</defs>
</svg>
