<svg width="200" height="199" viewBox="0 0 200 199" fill="none" xmlns="http://www.w3.org/2000/svg">
<g filter="url(#filter0_d_2228_481)">
<circle cx="100" cy="97" r="81" fill="white"/>
</g>
<circle cx="100" cy="97" r="81" fill="#D8E2E4"/>
<g clip-path="url(#clip0_2228_481)">
<path d="M115.009 61.9898C118.296 57.7502 120.787 51.7537 119.886 45.6338C114.513 46.0073 108.238 49.4431 104.575 53.9214C101.235 57.9808 98.491 64.0146 99.5643 69.8764C105.436 70.0599 111.496 66.5412 115.009 61.9898Z" fill="black"/>
<path d="M141.109 79.438C135.954 72.969 128.704 69.2197 121.858 69.2197C112.823 69.2197 108.999 73.5454 102.725 73.5454C96.2513 73.5454 91.3346 69.2327 83.5195 69.2327C75.8408 69.2327 67.6652 73.9254 62.4838 81.9467C55.1997 93.2463 56.4419 114.482 68.2546 132.574C72.478 139.049 78.1173 146.323 85.4972 146.39C92.0653 146.455 93.918 142.178 102.818 142.129C111.714 142.077 113.405 146.445 119.96 146.371C127.345 146.312 133.297 138.249 137.519 131.773C140.546 127.136 141.676 124.796 144.025 119.558C126.937 113.058 124.198 88.7632 141.109 79.438Z" fill="#1B546B"/>
<path d="M130.748 91.9272C117.833 102.384 99.5739 108.918 79.3079 108.918C72.0465 108.918 65.0416 108.077 58.4492 106.522C59.5647 115.007 62.744 124.126 68.2599 132.571C72.4833 139.047 78.1226 146.321 85.5025 146.388C92.0706 146.453 93.9233 142.176 102.823 142.127C111.72 142.075 113.41 146.443 119.965 146.368C127.35 146.31 133.302 138.246 137.524 131.771C140.551 127.133 141.681 124.794 144.031 119.555C132.411 115.139 127.436 102.501 130.748 91.9272Z" fill="black"/>
</g>
<defs>
<filter id="filter0_d_2228_481" x="0.977737" y="0.552347" width="198.045" height="198.045" filterUnits="userSpaceOnUse" color-interpolation-filters="sRGB">
<feFlood flood-opacity="0" result="BackgroundImageFix"/>
<feColorMatrix in="SourceAlpha" type="matrix" values="0 0 0 0 0 0 0 0 0 0 0 0 0 0 0 0 0 0 127 0" result="hardAlpha"/>
<feOffset dy="2.57461"/>
<feGaussianBlur stdDeviation="9.01113"/>
<feComposite in2="hardAlpha" operator="out"/>
<feColorMatrix type="matrix" values="0 0 0 0 0.695898 0 0 0 0 0.695898 0 0 0 0 0.695898 0 0 0 0.25 0"/>
<feBlend mode="normal" in2="BackgroundImageFix" result="effect1_dropShadow_2228_481"/>
<feBlend mode="normal" in="SourceGraphic" in2="effect1_dropShadow_2228_481" result="shape"/>
</filter>
<clipPath id="clip0_2228_481">
<rect width="100.756" height="100.756" fill="white" transform="translate(50.6094 45.6343)"/>
</clipPath>
</defs>
</svg>
