<svg width="200" height="199" viewBox="0 0 200 199" fill="none" xmlns="http://www.w3.org/2000/svg">
<g filter="url(#filter0_d_1244_2844)">
<circle cx="100" cy="97" r="81" fill="#427595"/>
</g>
<g clip-path="url(#clip0_1244_2844)">
<path d="M75.7302 105.169C75.7302 102.695 85.1183 101.307 89.49 100.969L89.9082 101.211C88.2288 101.517 81.4903 102.705 81.4903 104.255C81.4903 105.943 91.8254 107.049 97.8236 107.049C108.012 107.049 114.937 105.506 116.8 104.999L119.406 106.515C117.621 107.389 109.96 109.678 97.8236 109.678C84.3365 109.678 75.7302 107.04 75.7302 105.169ZM96.2864 139.912C90.9478 139.958 84.4306 139.517 78.9482 138.596L78.4391 138.887C83.9016 140.489 91.5063 141.455 99.8615 141.383C116.271 141.241 129.575 137.171 129.837 132.274L129.649 132.163C128.548 133.505 121.451 139.692 96.2864 139.912ZM97.6831 136.758C111.114 136.641 126.14 134.013 126.102 129.595C126.094 128.793 125.573 128.245 125.12 127.914L124.899 128.041C123.657 131.463 113.165 133.991 97.6614 134.125C87.6585 134.213 73.8011 131.816 73.7763 129.048C73.7531 126.271 80.3413 124.746 80.3413 124.746L79.8752 124.479C75.4605 125.088 67.3253 127.202 67.3516 130.255C67.39 134.667 86.0869 136.859 97.6831 136.758ZM127.94 106.351C127.669 111.533 122.882 114.759 118.097 117.485L118.53 117.736C123.636 116.298 132.746 112.116 131.993 105.687C131.618 102.482 128.687 100.191 124.867 100.191C123.677 100.191 122.62 100.401 121.762 100.662L121.758 100.67L121.576 101.126C124.995 100.457 128.117 102.953 127.94 106.351ZM88.4884 121.747C86.9298 122.058 83.5332 122.838 83.5332 124.489C83.5332 126.777 90.7991 128.53 97.8154 128.53C107.47 128.53 111.425 126.046 111.603 125.917L107.589 123.595C105.881 124.001 103.005 124.639 97.8253 124.639C92.0454 124.639 88.2786 123.651 88.2786 122.567C88.2786 122.337 88.4225 122.063 88.6901 121.864L88.4884 121.747ZM112.205 114.035C109.985 114.663 104.984 115.688 97.8318 115.688C90.8139 115.688 85.0802 114.488 85.0619 113.073C85.0486 112.131 86.1874 111.721 86.1874 111.721L85.9858 111.604C82.624 112.197 79.5033 113.116 79.5199 114.491C79.5513 116.985 89.0915 118.858 97.8185 118.858C105.238 118.858 112.363 117.613 115.578 115.982L112.205 114.035Z" fill="white"/>
<path d="M110.292 58.3932C110.292 72.1466 91.4448 77.4091 91.4448 87.1873C91.4448 94.0516 95.9967 98.3556 98.5156 101.078L98.3107 101.197C95.1306 99.2067 86.7656 94.2085 86.7656 85.9526C86.7656 74.3613 108.414 68.8227 108.414 55.6579C108.414 54.0381 108.175 52.7952 108.006 52.1257L108.225 52C108.91 52.8612 110.292 55.0165 110.292 58.3932ZM116.49 70.5729L116.264 70.444C112.163 71.8175 99.5355 76.8024 99.5355 86.0948C99.5355 91.349 104.668 94.2614 104.668 99.1885C104.668 100.947 103.674 102.595 102.868 103.58L103.272 103.815C105.41 102.426 109.191 99.4198 109.191 95.539C109.191 92.2516 104.643 88.3013 104.643 84.0766C104.643 77.419 113.419 72.196 116.49 70.5729Z" fill="#DE8E2F"/>
</g>
<defs>
<filter id="filter0_d_1244_2844" x="0.977737" y="0.552347" width="198.045" height="198.045" filterUnits="userSpaceOnUse" color-interpolation-filters="sRGB">
<feFlood flood-opacity="0" result="BackgroundImageFix"/>
<feColorMatrix in="SourceAlpha" type="matrix" values="0 0 0 0 0 0 0 0 0 0 0 0 0 0 0 0 0 0 127 0" result="hardAlpha"/>
<feOffset dy="2.57461"/>
<feGaussianBlur stdDeviation="9.01113"/>
<feComposite in2="hardAlpha" operator="out"/>
<feColorMatrix type="matrix" values="0 0 0 0 0.695898 0 0 0 0 0.695898 0 0 0 0 0.695898 0 0 0 0.25 0"/>
<feBlend mode="normal" in2="BackgroundImageFix" result="effect1_dropShadow_1244_2844"/>
<feBlend mode="normal" in="SourceGraphic" in2="effect1_dropShadow_1244_2844" result="shape"/>
</filter>
<clipPath id="clip0_1244_2844">
<rect width="89.3867" height="89.3867" fill="white" transform="translate(55 52)"/>
</clipPath>
</defs>
</svg>
