<svg width="71" height="71" viewBox="0 0 71 71" fill="none" xmlns="http://www.w3.org/2000/svg">
<g filter="url(#filter0_b_3538_3390)">
<circle cx="35.5" cy="35.5" r="35.5" fill="white" fill-opacity="0.7"/>
<circle cx="35.5" cy="35.5" r="34.75" stroke="#092A35" stroke-width="1.5"/>
</g>
<path d="M48.7492 20.833H40.2492C39.8735 20.833 39.5131 20.9823 39.2474 21.2479C38.9818 21.5136 38.8325 21.874 38.8325 22.2497C38.8325 22.6254 38.9818 22.9857 39.2474 23.2514C39.5131 23.5171 39.8735 23.6663 40.2492 23.6663H45.3293L33.5809 35.4148C33.4456 35.5454 33.3377 35.7018 33.2635 35.8746C33.1892 36.0474 33.1501 36.2333 33.1485 36.4214C33.1469 36.6095 33.1827 36.7961 33.2539 36.9702C33.3252 37.1443 33.4304 37.3025 33.5634 37.4355C33.6964 37.5685 33.8546 37.6737 34.0287 37.7449C34.2028 37.8162 34.3893 37.852 34.5774 37.8504C34.7655 37.8487 34.9514 37.8096 35.1243 37.7354C35.2971 37.6612 35.4534 37.5532 35.5841 37.4179L47.3325 25.6695V30.7497C47.3325 31.1254 47.4818 31.4857 47.7474 31.7514C48.0131 32.0171 48.3735 32.1663 48.7492 32.1663C49.1249 32.1663 49.4852 32.0171 49.7509 31.7514C50.0166 31.4857 50.1658 31.1254 50.1658 30.7497V22.2497C50.1658 21.874 50.0166 21.5136 49.7509 21.2479C49.4852 20.9823 49.1249 20.833 48.7492 20.833Z" fill="#092A35"/>
<path d="M45.9154 32.999C45.5396 32.999 45.1793 33.1483 44.9136 33.4139C44.648 33.6796 44.4987 34.04 44.4987 34.4157V44.5633C44.4983 45.0324 44.3118 45.4823 43.98 45.814C43.6483 46.1458 43.1984 46.3323 42.7293 46.3327H26.4348C25.9656 46.3323 25.5158 46.1458 25.184 45.814C24.8523 45.4823 24.6657 45.0324 24.6654 44.5633V28.2688C24.6657 27.7996 24.8523 27.3498 25.184 27.018C25.5158 26.6863 25.9656 26.4997 26.4348 26.4993H35.2493C35.625 26.4993 35.9853 26.3501 36.251 26.0844C36.5167 25.8187 36.6659 25.4584 36.6659 25.0827C36.6659 24.707 36.5167 24.3466 36.251 24.0809C35.9853 23.8153 35.625 23.666 35.2493 23.666H26.4348C25.2145 23.6675 24.0447 24.1529 23.1818 25.0158C22.3189 25.8786 21.8335 27.0485 21.832 28.2688V44.5604C21.8328 45.7812 22.3179 46.9518 23.1808 47.8152C24.0437 48.6787 25.214 49.1645 26.4348 49.166H42.7264C43.9472 49.1653 45.1178 48.6802 45.9813 47.8172C46.8447 46.9543 47.3305 45.784 47.332 44.5633V34.4157C47.332 34.04 47.1828 33.6796 46.9171 33.4139C46.6514 33.1483 46.2911 32.999 45.9154 32.999Z" fill="#092A35"/>
<defs>
<filter id="filter0_b_3538_3390" x="-7" y="-7" width="85" height="85" filterUnits="userSpaceOnUse" color-interpolation-filters="sRGB">
<feFlood flood-opacity="0" result="BackgroundImageFix"/>
<feGaussianBlur in="BackgroundImageFix" stdDeviation="3.5"/>
<feComposite in2="SourceAlpha" operator="in" result="effect1_backgroundBlur_3538_3390"/>
<feBlend mode="normal" in="SourceGraphic" in2="effect1_backgroundBlur_3538_3390" result="shape"/>
</filter>
</defs>
</svg>
