<svg width="401" height="401" viewBox="0 0 401 401" fill="none" xmlns="http://www.w3.org/2000/svg">
<rect width="400.768" height="400.768" transform="translate(0.230469 -0.382812)" fill="#202360"/>
<path d="M300.573 186.998H284.609V246.805H300.573V186.998Z" fill="#A6CF3C"/>
<path d="M347.793 186.548C332.863 183.67 324.934 190.595 322.836 194.417H321.262V211.505H323.51C322.97 205.21 327.482 201.238 329.806 200.038C342.217 197.52 345.17 203.786 345.095 207.233V247.03H360.833V203.186C359.754 192.214 351.69 187.522 347.793 186.548Z" fill="#A6CF3C"/>
<path d="M323.284 186.998H307.32V246.805H323.284V186.998Z" fill="#A6CF3C"/>
<path d="M313.342 152.373C303.449 157.23 295.13 167.887 292.207 172.609L285.563 169.186C285.053 168.923 284.475 168.741 283.924 168.899C282.205 169.392 282.006 171.404 282.194 172.848C282.251 173.285 282.467 173.681 282.758 174.012L292.207 184.75C293.826 186.729 295.88 185.574 296.704 184.75C303.079 171.33 312.425 161.039 317.121 156.795C317.712 156.261 318.095 155.506 317.981 154.719C317.476 151.201 314.765 151.628 313.342 152.373Z" fill="#A6CF3C"/>
<path d="M70.424 248.458C64.2515 248.458 58.9207 247.175 54.4316 244.61C49.9692 242.018 46.5356 238.357 44.1307 233.628C41.7259 228.871 40.5234 223.273 40.5234 216.834C40.5234 210.501 41.7259 204.943 44.1307 200.16C46.5623 195.35 49.9559 191.609 54.3114 188.937C58.6669 186.238 63.7839 184.889 69.6625 184.889C73.4568 184.889 77.0374 185.503 80.4043 186.733C83.7978 187.935 86.7905 189.806 89.3825 192.344C92.0011 194.882 94.0586 198.116 95.555 202.044C97.0513 205.945 97.7995 210.594 97.7995 215.992V220.441H47.3372V210.661H83.8913C83.8646 207.882 83.2634 205.41 82.0877 203.246C80.912 201.055 79.2686 199.332 77.1577 198.076C75.0735 196.82 72.6419 196.192 69.8629 196.192C66.8969 196.192 64.2916 196.913 62.0471 198.356C59.8025 199.772 58.0523 201.643 56.7964 203.968C55.5673 206.266 54.9393 208.791 54.9126 211.543V220.08C54.9126 223.661 55.5673 226.734 56.8766 229.299C58.1859 231.837 60.0163 233.788 62.3677 235.151C64.7191 236.487 67.4714 237.155 70.6244 237.155C72.7354 237.155 74.6459 236.861 76.3561 236.273C78.0662 235.658 79.5492 234.763 80.8051 233.588C82.0609 232.412 83.0095 230.956 83.6508 229.219L97.1983 230.742C96.3432 234.322 94.7133 237.449 92.3084 240.121C89.9302 242.766 86.8841 244.824 83.1699 246.293C79.4557 247.736 75.2071 248.458 70.424 248.458Z" fill="white"/>
<path d="M117.812 211.182V247.255H103.302V185.691H117.17V196.152H117.892C119.308 192.705 121.566 189.966 124.666 187.935C127.792 185.904 131.653 184.889 136.249 184.889C140.498 184.889 144.198 185.797 147.352 187.614C150.531 189.431 152.99 192.063 154.726 195.51C156.49 198.957 157.358 203.139 157.332 208.056V247.255H142.822V210.3C142.822 206.185 141.754 202.966 139.616 200.641C137.505 198.316 134.579 197.154 130.838 197.154C128.3 197.154 126.042 197.715 124.064 198.837C122.114 199.933 120.577 201.523 119.455 203.607C118.359 205.691 117.812 208.216 117.812 211.182Z" fill="white"/>
<path d="M165.31 247.255V185.691H179.378V195.951H180.019C181.142 192.397 183.066 189.659 185.791 187.735C188.543 185.784 191.683 184.809 195.21 184.809C196.012 184.809 196.907 184.849 197.896 184.929C198.911 184.982 199.753 185.076 200.421 185.21V198.557C199.806 198.343 198.831 198.156 197.495 197.995C196.185 197.808 194.916 197.715 193.687 197.715C191.042 197.715 188.664 198.289 186.553 199.438C184.468 200.561 182.825 202.124 181.623 204.128C180.42 206.132 179.819 208.443 179.819 211.062V247.255H165.31Z" fill="white"/>
<path d="M227.607 248.458C221.595 248.458 216.385 247.135 211.976 244.49C207.567 241.844 204.146 238.144 201.715 233.387C199.31 228.631 198.108 223.073 198.108 216.713C198.108 210.354 199.31 204.783 201.715 200C204.146 195.217 207.567 191.502 211.976 188.857C216.385 186.212 221.595 184.889 227.607 184.889C233.62 184.889 238.83 186.212 243.239 188.857C247.648 191.502 251.055 195.217 253.46 200C255.891 204.783 257.107 210.354 257.107 216.713C257.107 223.073 255.891 228.631 253.46 233.387C251.055 238.144 247.648 241.844 243.239 244.49C238.83 247.135 233.62 248.458 227.607 248.458ZM227.688 236.834C230.947 236.834 233.673 235.939 235.864 234.149C238.055 232.332 239.685 229.9 240.754 226.854C241.85 223.808 242.397 220.414 242.397 216.673C242.397 212.906 241.85 209.499 240.754 206.453C239.685 203.38 238.055 200.935 235.864 199.118C233.673 197.301 230.947 196.392 227.688 196.392C224.347 196.392 221.568 197.301 219.351 199.118C217.16 200.935 215.516 203.38 214.421 206.453C213.352 209.499 212.817 212.906 212.817 216.673C212.817 220.414 213.352 223.808 214.421 226.854C215.516 229.9 217.16 232.332 219.351 234.149C221.568 235.939 224.347 236.834 227.688 236.834Z" fill="white"/>
<path d="M277.159 165.169V247.255H262.65V165.169H277.159Z" fill="white"/>
</svg>
