<svg width="196" height="195" viewBox="0 0 196 195" fill="none" xmlns="http://www.w3.org/2000/svg">
<g filter="url(#filter0_d_2276_3348)">
<circle cx="98" cy="95.116" r="81" fill="white"/>
</g>
<path d="M89.0059 49.4036C81.8703 52.6008 74.8054 55.8607 69.3516 60.5482C70.3797 60.948 71.5337 61.7513 72.6577 62.0803C72.7109 62.4287 72.6453 62.0761 72.6577 62.0803C77.5287 63.5082 83.2972 64.3713 88.8508 65.1829C88.8342 65.1705 88.7103 64.7198 88.6893 64.7115C88.2523 64.4535 86.9741 64.1369 86.6161 63.8913C88.6934 63.2585 91.1915 62.1386 92.4404 61.0439C93.1816 62.3845 94.7012 64.1414 95.3506 65.0154C93.8103 65.1112 91.6495 64.8488 90.1051 64.9405H90.0761C90.3092 64.974 90.1834 65.6502 90.4124 65.6877C90.4707 65.696 90.7278 65.8304 90.7861 65.8387C92.822 66.1426 96.9078 66.0145 96.9037 66.0145H96.9078C93.294 60.8187 90.7669 55.2444 89.0059 49.4036ZM88.315 51.9472C89.0935 54.3994 90.0054 56.485 91.1542 57.917C87.1827 57.8294 83.0861 57.3966 78.7438 56.285C81.5416 54.4449 84.7764 53.0464 88.315 51.9472ZM76.246 62.4549C75.4507 62.0634 75.0389 61.4805 72.9198 61.1101C73.5151 59.6322 74.6102 58.404 76.0381 57.8505C77.079 59.2369 78.2902 60.9852 80.1679 62.1886C78.8607 62.2759 77.5577 62.3676 76.2546 62.4593C76.2543 62.459 76.2502 62.459 76.246 62.4549ZM84.8471 63.4706C81.9869 62.0134 79.1063 59.2035 77.6367 57.1883C81.7958 58.4413 87.6197 59.8278 91.7788 59.9651C90.0758 61.2643 87.4739 62.5466 84.8471 63.4706Z" fill="url(#paint0_linear_2276_3348)"/>
<path d="M105.514 94.0737C105.51 94.0654 105.51 94.0571 105.51 94.0488C105.514 94.0737 104.883 93.953 104.608 94.0488C100.483 95.4519 96.4748 96.6183 92.4989 98.0379C89.2679 99.1909 85.8102 100.266 82.6938 101.568C78.4054 103.359 74.5346 105.942 70.4936 108.295C70.2063 111.492 70.7475 114.461 72.4961 117.104C67.9665 118.282 63.437 119.464 58.9075 120.643C59.1906 116.941 61.3221 114.477 64.4279 112.192C41.2018 129.027 75.7309 139.935 96.9045 140.638C104.473 123.878 107.387 110.039 105.514 94.0737ZM92.8164 99.8145C93.2993 102.545 92.2587 106.526 91.7048 109.602C90.4725 109.036 87.3501 107.054 84.9107 102.87C87.2919 102.013 90.4352 100.672 92.8164 99.8145ZM95.3811 98.5656C99.286 99.8852 102.5 101.551 104.186 103.982C100.606 105.81 96.2595 108.332 92.6753 110.16C93.3244 106.526 94.7358 102.2 95.3811 98.5656ZM91.4468 111.65C90.8474 115.559 87.0339 121.275 83.6618 124.81C80.3936 123.091 77.5671 120.972 75.8268 117.866C80.7598 116.942 87.1587 113.411 91.4468 111.65ZM75.0649 116.584C77.2839 112.554 81.5134 107.591 83.7325 103.566C85.5808 107.429 88.4493 109.511 90.6642 110.785C86.4469 113.095 79.4696 116.126 75.0649 116.584ZM72.7044 107.937C75.5729 106.734 78.4369 105.53 81.3055 104.327C79.7234 108.182 77.2505 111.909 74.3696 115.576C72.4544 114.115 71.6259 110.468 72.7044 107.937ZM63.8285 130.227C60.3398 128.686 58.8868 125.655 58.8161 121.617C63.308 120.597 67.8 119.581 72.2881 118.561C70.7309 122.791 67.7958 126.646 63.8285 130.227ZM74.024 119.115C75.7102 121.488 78.1165 123.595 81.651 125.922C76.3972 128.17 71.0058 129.735 65.5647 131.059C68.9909 127.337 71.8925 123.39 74.024 119.115ZM66.3972 131.542C71.9842 130.535 78.0541 128.457 83.1748 126.613C82.5253 129.931 79.6444 133.528 76.5886 136.196C72.9417 135.276 69.4903 133.852 66.3972 131.542ZM84.7524 127.312C88.7073 129.631 93.2703 130.297 97.5998 131.126C91.5758 133.861 84.9397 135.501 78.0789 136.75C81.0223 133.59 83.1955 130.755 84.7524 127.312ZM95.8681 139.389C90.8681 139.231 85.9847 138.528 81.1682 137.445C87.2215 136.059 93.104 134.148 98.8825 131.925C97.9954 134.623 97.3042 137.154 95.8681 139.389ZM100.027 129.948C95.6308 129.144 89.5154 128.736 86.0888 125.988C91.5427 123.674 97.7623 121.151 103.216 118.84C102.592 122.82 101.343 126.313 100.027 129.948ZM84.84 125.572C87.5502 122.775 91.5175 116.272 92.3794 111.992C96.0929 114.627 100.531 116.896 103.32 117.313C98.2827 119.277 89.8813 123.607 84.84 125.572ZM103.949 115.293C99.9855 114.919 96.1926 113.532 93.0744 111.063C96.7714 109.14 100.976 107.221 104.673 105.297C104.835 108.886 104.34 111.775 103.949 115.293ZM104.744 102.246C103.241 100.123 100.86 98.7657 97.8788 97.9413C99.9813 97.425 102.083 96.9087 104.186 96.3969C104.615 98.3449 104.869 100.293 104.744 102.246Z" fill="url(#paint1_linear_2276_3348)"/>
<path d="M138.382 85.041C127.653 71.7897 113.449 68.6798 96.9085 66.0154H96.9043C94.9519 65.6991 92.966 65.3908 90.9511 65.0704L90.7721 65.0456C90.5513 65.008 90.3306 64.9748 90.1061 64.9414C89.6356 64.8666 89.1652 64.7872 88.6906 64.7124C84.6567 64.0629 80.51 63.3552 76.2553 62.4602C76.2553 62.4602 76.2512 62.4602 76.247 62.4561C75.1652 62.2289 74.0855 61.9916 73.0081 61.7442C72.8791 61.7149 72.7542 61.6818 72.6294 61.6525C72.617 61.6483 72.6001 61.6442 72.5877 61.64C70.9473 61.2279 69.8399 60.7699 69.3529 60.5495C69.2863 60.5205 69.228 60.4953 69.1863 60.4746C69.4984 60.6536 70.4145 61.1989 72.0089 62.3564C87.8621 73.8884 88.3202 89.2253 70.6269 106.261C69.099 107.735 67.4421 109.5 65.8477 111.198C65.8894 111.173 65.9266 111.148 65.9684 111.124C67.4711 110.187 68.97 109.246 70.4772 108.309C70.4855 108.305 70.4896 108.301 70.4979 108.297C77.7252 104.496 85.2271 101.248 92.5251 98.5092C96.5392 97.0051 100.594 95.6127 104.686 94.3336C104.965 94.2421 105.239 94.1587 105.518 94.0756C120.505 89.4336 133.111 87.1397 138.324 86.8151C139.41 86.7479 139.502 86.423 138.382 85.041ZM122.845 74.4082C116.663 76.1899 110.805 78.5756 105.268 81.5603C107.042 78.5338 108.728 73.6504 108.841 70.0701C113.465 71.0027 118.407 72.5474 122.845 74.4082ZM103.811 80.8653C101.788 79.1377 99.3607 77.9178 96.6008 77.1184C100.119 73.996 103.936 71.5814 108.008 69.7579C107.221 73.6504 106.076 77.435 103.811 80.8653ZM84.6356 75.8402C87.0878 76.5314 89.5397 77.2222 91.9878 77.9134C89.5856 80.0324 87.321 82.1515 84.9147 84.2664C85.0519 81.6896 84.9729 78.7963 84.6356 75.8402ZM93.445 78.5756L89.111 89.5788C88.0787 88.1551 86.6215 87.3142 84.8481 86.9062C87.7121 84.1291 90.5806 81.3523 93.445 78.5756ZM88.9403 91.6603C90.3016 93.1841 90.3475 95.7401 90.6013 97.9092C86.7795 99.1163 82.2583 100.994 77.808 103.363C81.2053 99.8075 85.5389 95.2155 88.9403 91.6603ZM94.8687 79.1998C97.3499 79.7662 99.3607 80.8067 101.109 82.1142C97.3063 84.7985 93.5039 87.4838 89.7022 90.17C91.4215 86.5148 93.1453 82.8551 94.8687 79.1998ZM106.276 69.1668C102.291 71.0734 98.5737 73.4632 95.1433 76.3858C94.7146 73.3549 94.2897 70.3242 93.861 67.2936C98.1408 67.3933 102.271 68.0469 106.276 69.1668ZM93.5488 76.1109C90.8096 75.2283 88.0701 74.3499 85.3306 73.4714C87.1582 70.5988 90.014 68.9585 92.787 67.2226L93.5488 76.1109ZM74.7733 63.2593C76.1139 63.2928 77.6208 63.5673 79.2611 64.2168C80.4268 66.0444 81.2387 68.4425 81.5716 70.3656C79.9271 67.9762 77.3376 65.1828 74.7733 63.2593ZM83.6323 72.6388C83.087 70.3077 82.5331 67.972 81.3967 64.9745C84.7022 65.2408 88.1701 65.6115 91.3839 66.7104C88.5947 68.3342 85.7765 70.2742 83.6323 72.6388ZM83.8779 89.0249C85.0354 89.2498 86.0801 89.8534 86.9627 91.0026C85.2265 92.1725 83.4947 93.3424 81.763 94.5078C82.6832 92.7885 83.5116 91.0233 83.8779 89.0249ZM81.3467 95.4114C81.613 96.244 81.8754 97.0766 82.1417 97.9092C79.9851 99.3912 77.8329 100.873 75.6763 102.356C78.6824 99.4495 80.0937 97.2846 81.3467 95.4114ZM91.7795 97.4929C91.6088 95.0158 91.0925 92.8385 90.1809 91.0067C94.3442 88.4007 98.5071 85.7987 102.666 83.1924C99.2483 87.8219 95.2016 92.8675 91.7795 97.4929ZM93.9986 96.5561C97.2582 92.4594 100.863 88.2589 104.123 84.1626C107.225 85.578 109.727 87.7595 112.271 90.657C106.18 92.6219 100.089 94.5912 93.9986 96.5561ZM106.238 82.2556C112.029 79.4082 118.27 77.3805 124.614 75.5529C121.359 80.5277 117.466 85.3697 113.657 90.3445C112.017 87.3015 109.452 84.3705 106.238 82.2556ZM115.389 89.8868C119.41 85.5487 122.566 80.9195 125.48 76.2109C130.185 78.6297 133.981 81.8562 137.025 85.757C129.914 86.4355 122.687 87.9133 115.389 89.8868Z" fill="url(#paint2_radial_2276_3348)"/>
<defs>
<filter id="filter0_d_2276_3348" x="0.676929" y="0.124763" width="194.646" height="194.646" filterUnits="userSpaceOnUse" color-interpolation-filters="sRGB">
<feFlood flood-opacity="0" result="BackgroundImageFix"/>
<feColorMatrix in="SourceAlpha" type="matrix" values="0 0 0 0 0 0 0 0 0 0 0 0 0 0 0 0 0 0 127 0" result="hardAlpha"/>
<feOffset dy="2.33187"/>
<feGaussianBlur stdDeviation="8.16154"/>
<feComposite in2="hardAlpha" operator="out"/>
<feColorMatrix type="matrix" values="0 0 0 0 0.695898 0 0 0 0 0.695898 0 0 0 0 0.695898 0 0 0 0.25 0"/>
<feBlend mode="normal" in2="BackgroundImageFix" result="effect1_dropShadow_2276_3348"/>
<feBlend mode="normal" in="SourceGraphic" in2="effect1_dropShadow_2276_3348" result="shape"/>
</filter>
<linearGradient id="paint0_linear_2276_3348" x1="69.8735" y1="60.4398" x2="95.2999" y2="52.2396" gradientUnits="userSpaceOnUse">
<stop stop-color="#868789"/>
<stop offset="1" stop-color="white"/>
</linearGradient>
<linearGradient id="paint1_linear_2276_3348" x1="58.7096" y1="127.188" x2="106.272" y2="114.62" gradientUnits="userSpaceOnUse">
<stop stop-color="#868789"/>
<stop offset="1" stop-color="white"/>
</linearGradient>
<radialGradient id="paint2_radial_2276_3348" cx="0" cy="0" r="1" gradientUnits="userSpaceOnUse" gradientTransform="translate(98.8173 83.2937) scale(73.276 50.7473)">
<stop stop-color="#E75A47"/>
<stop offset="1" stop-color="#9A2123"/>
</radialGradient>
</defs>
</svg>
