<svg width="148" height="148" viewBox="0 0 148 148" fill="none" xmlns="http://www.w3.org/2000/svg">
<g filter="url(#filter0_d_1778_100)">
<circle cx="74" cy="72" r="60" fill="white"/>
</g>
<path d="M81.1562 83.5938H101.125V48.0938C101.125 47.5053 100.891 46.941 100.475 46.5249C100.059 46.1088 99.4947 45.875 98.9062 45.875H87.2279C89.0535 48.4743 90.0325 51.5737 90.0312 54.75C90.0384 58.0951 88.9612 61.3524 86.9612 64.0337C84.9611 66.715 82.1459 68.6758 78.9375 69.6223V74.7188C78.9375 77.166 76.9473 79.1562 74.5 79.1562C72.0527 79.1562 70.0625 77.166 70.0625 74.7188V69.6223C66.8541 68.6758 64.0389 66.715 62.0388 64.0337C60.0388 61.3524 58.9616 58.0951 58.9688 54.75C58.9688 51.4507 60.0105 48.3933 61.7721 45.875H50.0938C49.5053 45.875 48.941 46.1088 48.5249 46.5249C48.1088 46.941 47.875 47.5053 47.875 48.0938V85.8125H81.1562V83.5938Z" fill="#505050"/>
<path d="M47.875 85.8125H45.6562C45.0678 85.8125 44.5035 86.0463 44.0874 86.4624C43.6713 86.8785 43.4375 87.4428 43.4375 88.0312V92.4688C43.4375 93.0572 43.6713 93.6215 44.0874 94.0376C44.5035 94.4537 45.0678 94.6875 45.6562 94.6875H81.1562V85.8125H47.875Z" fill="#F0F0F0"/>
<path d="M89.3767 50.3125C89.7983 51.7203 90.0312 53.208 90.0312 54.75C90.0384 58.0951 88.9612 61.3524 86.9612 64.0337C84.9611 66.715 82.1459 68.6758 78.9375 69.6223V74.7188C78.9375 77.166 76.9473 79.1562 74.5 79.1562C72.0527 79.1562 70.0625 77.166 70.0625 74.7188V69.6223C66.8541 68.6758 64.0389 66.715 62.0388 64.0337C60.0388 61.3524 58.9616 58.0951 58.9688 54.75C58.9688 53.208 59.2017 51.7203 59.6233 50.3125H52.3125V81.375H96.6875V50.3125H89.3767Z" fill="#64C8F0"/>
<path d="M54.5312 45.875H50.0938C49.5053 45.875 48.941 46.1088 48.5249 46.5249C48.1088 46.941 47.875 47.5053 47.875 48.0938V85.8125H52.3125V48.0938C52.3125 47.5053 52.5463 46.941 52.9624 46.5249C53.3785 46.1088 53.9428 45.875 54.5312 45.875Z" fill="#3C3C3C"/>
<path d="M47.875 92.4688V88.0312C47.875 87.4428 48.1088 86.8785 48.5249 86.4624C48.941 86.0463 49.5053 85.8125 50.0938 85.8125H45.6562C45.0678 85.8125 44.5035 86.0463 44.0874 86.4624C43.6713 86.8785 43.4375 87.4428 43.4375 88.0312V92.4688C43.4375 93.0572 43.6713 93.6215 44.0874 94.0376C44.5035 94.4537 45.0678 94.6875 45.6562 94.6875H50.0938C49.5053 94.6875 48.941 94.4537 48.5249 94.0376C48.1088 93.6215 47.875 93.0572 47.875 92.4688ZM78.9375 90.25H70.0625C69.4741 90.25 68.9097 90.0162 68.4936 89.6001C68.0775 89.184 67.8438 88.6197 67.8438 88.0312V85.8125H81.1562V88.0312C81.1562 88.6197 80.9225 89.184 80.5064 89.6001C80.0903 90.0162 79.5259 90.25 78.9375 90.25Z" fill="#D2D2D2"/>
<path d="M74.5 76.9375C75.0884 76.9375 75.6528 76.7037 76.0689 76.2876C76.485 75.8715 76.7188 75.3072 76.7188 74.7188V65.8438H72.2812V74.7188C72.2812 75.3072 72.515 75.8715 72.9311 76.2876C73.3472 76.7037 73.9116 76.9375 74.5 76.9375Z" fill="#505050"/>
<path d="M74.5 74.7188V65.8438H72.2812V74.7188C72.2812 75.3072 72.515 75.8715 72.9311 76.2876C73.3472 76.7037 73.9116 76.9375 74.5 76.9375C74.906 76.9375 75.2821 76.8199 75.6094 76.6302C74.9493 76.2452 74.5 75.5375 74.5 74.7188Z" fill="#3C3C3C"/>
<path d="M72.2812 70.2812H76.7188V72.5H72.2812V70.2812Z" fill="#FAB400"/>
<path d="M72.2812 70.2812H74.5V72.5H72.2812V70.2812Z" fill="#DC9600"/>
<path d="M74.5 68.0625C67.1604 68.0625 61.1875 62.0907 61.1875 54.75C61.1875 47.4093 67.1604 41.4375 74.5 41.4375C81.8396 41.4375 87.8125 47.4093 87.8125 54.75C87.8125 62.0907 81.8396 68.0625 74.5 68.0625Z" fill="#505050"/>
<path d="M63.4062 54.75C63.4062 47.7842 68.7878 42.061 75.6094 41.4941C75.2406 41.4595 74.8704 41.4407 74.5 41.4375C67.1604 41.4375 61.1875 47.4093 61.1875 54.75C61.1875 62.0907 67.1604 68.0625 74.5 68.0625C74.875 68.0625 75.2422 68.037 75.6094 68.0059C68.7878 67.439 63.4062 61.7158 63.4062 54.75Z" fill="#3C3C3C"/>
<path d="M74.5 65.8438C68.3829 65.8438 63.4062 60.8671 63.4062 54.75C63.4062 48.6329 68.3829 43.6562 74.5 43.6562C80.6171 43.6562 85.5938 48.6329 85.5938 54.75C85.5938 60.8671 80.6171 65.8438 74.5 65.8438Z" fill="#3CC8B4"/>
<path d="M81.1562 56.0813V53.4188H79.6508C79.527 52.9377 79.3362 52.4765 79.0839 52.0487L80.1489 50.9837L78.2663 49.1011L77.2013 50.1661C76.7737 49.9134 76.3124 49.7226 75.8313 49.5992V48.0938H73.1687V49.5992C72.6877 49.723 72.2265 49.9138 71.7987 50.1661L70.7337 49.1011L68.8511 50.9837L69.9161 52.0487C69.6634 52.4763 69.4726 52.9376 69.3492 53.4188H67.8438V56.0813H69.3492C69.4745 56.5683 69.6665 57.0275 69.9161 57.4513L68.8511 58.5163L70.7337 60.3989L71.7987 59.3339C72.2213 59.5835 72.6806 59.7755 73.1687 59.9008V61.4062H75.8313V59.9008C76.3123 59.777 76.7735 59.5862 77.2013 59.3339L78.2663 60.3989L80.1489 58.5163L79.0839 57.4513C79.3335 57.0287 79.5255 56.5694 79.6508 56.0813H81.1562ZM74.5 57.4125C73.0312 57.4125 71.8375 56.2177 71.8375 54.75C71.8375 53.2823 73.0312 52.0875 74.5 52.0875C75.9688 52.0875 77.1625 53.2823 77.1625 54.75C77.1625 56.2177 75.9688 57.4125 74.5 57.4125Z" fill="#F0F0F0"/>
<path d="M83.375 85.8125H105.562V103.562H83.375V85.8125Z" fill="#FAB400"/>
<path d="M83.375 85.8125H85.5938V103.562H83.375V85.8125Z" fill="#DC9600"/>
<path d="M98.9062 99.125H103.344V101.344H98.9062V99.125ZM98.9062 94.6875H103.344V96.9062H98.9062V94.6875Z" fill="#BE7800"/>
<path d="M92.25 85.8125V91.5502L94.4688 89.3314L96.6875 91.5502V85.8125H92.25Z" fill="#FA6450"/>
<path d="M54.5312 63.625H61.7588C59.9404 61.0229 58.9664 57.9245 58.9688 54.75H54.5312V63.625ZM94.4688 63.625V54.75H90.0312C90.0312 58.036 89.0029 61.0978 87.2412 63.625H94.4688ZM63.627 65.8438H54.5312V68.0625H66.5103C65.4653 67.4388 64.4976 66.6941 63.627 65.8438ZM82.4897 68.0625H94.4688V65.8438H85.373C84.5024 66.6941 83.5347 67.4388 82.4897 68.0625ZM54.5312 70.2812H70.0625V72.5H54.5312V70.2812ZM78.9375 70.2812H94.4688V72.5H78.9375V70.2812ZM54.5312 74.7188V76.9375H70.6793C70.28 76.2659 70.0671 75.5 70.0625 74.7188H54.5312ZM94.4688 76.9375V74.7188H78.9375C78.9375 75.5308 78.7023 76.2819 78.3207 76.9375H94.4688Z" fill="#46AAD2"/>
<defs>
<filter id="filter0_d_1778_100" x="0.666667" y="0.571429" width="146.667" height="146.667" filterUnits="userSpaceOnUse" color-interpolation-filters="sRGB">
<feFlood flood-opacity="0" result="BackgroundImageFix"/>
<feColorMatrix in="SourceAlpha" type="matrix" values="0 0 0 0 0 0 0 0 0 0 0 0 0 0 0 0 0 0 127 0" result="hardAlpha"/>
<feOffset dy="1.90476"/>
<feGaussianBlur stdDeviation="6.66667"/>
<feComposite in2="hardAlpha" operator="out"/>
<feColorMatrix type="matrix" values="0 0 0 0 0.695898 0 0 0 0 0.695898 0 0 0 0 0.695898 0 0 0 0.25 0"/>
<feBlend mode="normal" in2="BackgroundImageFix" result="effect1_dropShadow_1778_100"/>
<feBlend mode="normal" in="SourceGraphic" in2="effect1_dropShadow_1778_100" result="shape"/>
</filter>
</defs>
</svg>
