<svg width="200" height="199" viewBox="0 0 200 199" fill="none" xmlns="http://www.w3.org/2000/svg">
<g filter="url(#filter0_d_1244_2813)">
<circle cx="100" cy="97" r="81" fill="white"/>
</g>
<g clip-path="url(#clip0_1244_2813)">
<path d="M96.4359 98.6501V84.2736L83.9854 77.0854L71.5352 84.2736V98.6501L83.9854 105.838L96.4359 98.6501Z" fill="#3B8739"/>
<path d="M145.461 96.4681L153.575 101.154L145.461 105.839L133.012 98.6506V84.2738L145.461 77.0854L153.006 81.4436C153.772 84.6804 154.243 87.9801 154.412 91.3019L149.799 93.9652V88.9571L145.461 86.4541L141.123 88.9571V93.9652L145.461 96.4681Z" fill="#333333"/>
<path d="M147.869 92.8598V90.0692L145.452 88.6738L143.035 90.0692V92.8598L145.452 94.2554L147.869 92.8598Z" fill="#66A060"/>
<path d="M65.6463 84.274V103.232L57.3429 98.4951V88.7767L53.1971 86.382L49.051 88.7765V98.4948L44.3363 101.185C44.0442 98.8714 43.8979 96.5413 43.8984 94.209C43.8984 89.8802 44.395 85.6666 45.3361 81.6242L53.1971 77.0854L65.6463 84.274Z" fill="#333333"/>
<path d="M83.9805 77.0854L96.4306 98.6498L83.9806 105.838L71.5304 84.2735L83.9805 77.0854Z" fill="#6DA75D"/>
<path d="M71.5352 98.6534L75.8102 91.6819L71.5352 84.2769V98.6534Z" fill="#55A344"/>
<path d="M92.2804 91.4613L96.431 84.2736L83.9805 77.0854L92.2804 91.4613Z" fill="#639D57"/>
<path d="M118.742 60.4219V79.4953L114.569 77.0847L102.117 84.2731V98.6499L114.569 105.838L127.018 98.6499V64.8522L118.742 60.4219ZM118.719 93.8562L114.569 96.2532L110.418 93.8562V89.0648L114.569 86.6679L118.719 89.0648V93.8562Z" fill="#333333"/>
<path d="M104.838 116.394C104.838 116.394 104.593 114.293 102.345 114.293C100.097 114.293 98.5579 114.586 98.5579 115.832C98.5579 117.078 102.932 117.078 104.593 117.567C106.255 118.056 107.721 119.326 106.988 121.574C106.255 123.823 104.007 124.067 100.537 124.067C97.0673 124.067 96.2852 121.183 96.2852 120.059H98.2399C98.2399 120.059 97.9954 121.819 100.292 122.112C102.589 122.405 104.785 122.57 105.082 120.793C105.473 118.447 97.6533 119.62 96.969 117.323C96.391 115.382 96.7245 112.827 100.634 112.436C104.544 112.044 106.694 113.771 106.694 116.345L104.838 116.394Z" fill="#66A060"/>
<path d="M85.9572 125.556L90.2789 128.051C92.4503 129.305 95.1645 127.738 95.1645 125.23V112.812H93.4031V124.74C93.4031 126.11 91.9209 126.966 90.7349 126.281L87.7185 124.539V111.808L98.7436 105.444L109.769 111.808V124.539L98.7436 130.904L95.5676 129.071L93.4936 129.907L98.7434 132.938L111.53 125.555V110.792L98.7436 103.41L85.957 110.792V125.556H85.9572Z" fill="#66A060"/>
</g>
<defs>
<filter id="filter0_d_1244_2813" x="0.977737" y="0.552347" width="198.045" height="198.045" filterUnits="userSpaceOnUse" color-interpolation-filters="sRGB">
<feFlood flood-opacity="0" result="BackgroundImageFix"/>
<feColorMatrix in="SourceAlpha" type="matrix" values="0 0 0 0 0 0 0 0 0 0 0 0 0 0 0 0 0 0 127 0" result="hardAlpha"/>
<feOffset dy="2.57461"/>
<feGaussianBlur stdDeviation="9.01113"/>
<feComposite in2="hardAlpha" operator="out"/>
<feColorMatrix type="matrix" values="0 0 0 0 0.695898 0 0 0 0 0.695898 0 0 0 0 0.695898 0 0 0 0.25 0"/>
<feBlend mode="normal" in2="BackgroundImageFix" result="effect1_dropShadow_1244_2813"/>
<feBlend mode="normal" in="SourceGraphic" in2="effect1_dropShadow_1244_2813" result="shape"/>
</filter>
<clipPath id="clip0_1244_2813">
<rect width="110.59" height="110.59" fill="white" transform="translate(43.9062 38.915)"/>
</clipPath>
</defs>
</svg>
