<svg width="148" height="148" viewBox="0 0 148 148" fill="none" xmlns="http://www.w3.org/2000/svg">
<g filter="url(#filter0_d_1273_204)">
<circle cx="74" cy="72" r="60" fill="white"/>
</g>
<path d="M97.6247 52.2209H97.5784L90.918 63.6933V98.4822H104.239L104.285 63.6933L97.6247 52.2209Z" fill="#FF9214"/>
<path d="M67.7385 52.2209L61.0781 63.6933V98.4822H90.9178V63.6933L97.5782 52.2209H67.7385Z" fill="#FFD160"/>
<path d="M76.059 70.1008C74.0063 70.1007 71.9996 70.7093 70.2927 71.8497C68.5859 72.9901 67.2555 74.611 66.4699 76.5074C65.6843 78.4039 65.4786 80.4907 65.879 82.504C66.2795 84.5174 67.2679 86.3667 68.7194 87.8183C70.1708 89.2698 72.0202 90.2584 74.0335 90.6589C76.0467 91.0594 78.1336 90.8539 80.0301 90.0684C81.9266 89.2828 83.5476 87.9526 84.688 86.2458C85.8285 84.539 86.4372 82.5323 86.4372 80.4796C86.4372 77.7271 85.3438 75.0873 83.3975 73.1409C81.4513 71.1945 78.8115 70.101 76.059 70.1008Z" fill="#48BBAD"/>
<path d="M67.7374 45.7183H97.5771V52.2211H67.7374V45.7183ZM97.5741 64.1267H90.9167V98.4821H90.9536L97.5741 91.9567V64.1267ZM65.0855 98.4821H48.7974L45.7812 67.9177H68.1013L65.0855 98.4821Z" fill="#F6A337"/>
<path d="M47.543 59.4482H66.3422V64.0727H47.543V59.4482Z" fill="#34495E"/>
<path d="M44.4258 68.7523H69.458V65.5354C69.458 65.179 69.3878 64.826 69.2514 64.4967C69.115 64.1673 68.915 63.8681 68.663 63.6161C68.4109 63.364 68.1117 63.1641 67.7824 63.0277C67.4531 62.8913 67.1001 62.821 66.7436 62.821H47.1401C46.7837 62.821 46.4307 62.8913 46.1014 63.0277C45.7721 63.1641 45.4729 63.364 45.2208 63.6161C44.9687 63.8681 44.7688 64.1673 44.6324 64.4967C44.496 64.826 44.4258 65.179 44.4258 65.5354V68.7523ZM66.2669 86.5131L67.0895 78.1778H46.7943L47.6166 86.5131H66.2669Z" fill="#34495E"/>
<path d="M56.9401 88.5571C60.3825 88.5571 63.1731 85.7665 63.1731 82.3241C63.1731 78.8817 60.3825 76.0911 56.9401 76.0911C53.4976 76.0911 50.707 78.8817 50.707 82.3241C50.707 85.7665 53.4976 88.5571 56.9401 88.5571Z" fill="#48BBAD"/>
<path d="M97.5742 91.9568L97.5762 91.9545H97.625L104.238 98.473L104.284 64.1267H97.5742V91.9568Z" fill="#FFD160"/>
<defs>
<filter id="filter0_d_1273_204" x="0.666667" y="0.571429" width="146.667" height="146.667" filterUnits="userSpaceOnUse" color-interpolation-filters="sRGB">
<feFlood flood-opacity="0" result="BackgroundImageFix"/>
<feColorMatrix in="SourceAlpha" type="matrix" values="0 0 0 0 0 0 0 0 0 0 0 0 0 0 0 0 0 0 127 0" result="hardAlpha"/>
<feOffset dy="1.90476"/>
<feGaussianBlur stdDeviation="6.66667"/>
<feComposite in2="hardAlpha" operator="out"/>
<feColorMatrix type="matrix" values="0 0 0 0 0.695898 0 0 0 0 0.695898 0 0 0 0 0.695898 0 0 0 0.25 0"/>
<feBlend mode="normal" in2="BackgroundImageFix" result="effect1_dropShadow_1273_204"/>
<feBlend mode="normal" in="SourceGraphic" in2="effect1_dropShadow_1273_204" result="shape"/>
</filter>
</defs>
</svg>
