<svg width="200" height="199" viewBox="0 0 200 199" fill="none" xmlns="http://www.w3.org/2000/svg">
<g filter="url(#filter0_d_1244_2806)">
<circle cx="100" cy="97" r="81" fill="#8F9ED1"/>
</g>
<circle cx="100" cy="97" r="81" fill="#8F9ED1"/>
<path d="M155.371 93.5546C155.371 96.939 155.07 100.253 154.494 103.47C149.815 129.642 126.936 149.506 99.4198 149.506C78.6882 149.506 60.5898 138.231 50.9251 121.478C48.5404 117.349 46.6975 112.93 45.4419 108.33C44.1539 103.624 43.4688 98.6678 43.4688 93.5546C43.4688 62.6537 68.5189 37.6035 99.4198 37.6035C124.924 37.6035 146.441 54.6675 153.181 78.0024C154.606 82.9399 155.371 88.1582 155.371 93.5546Z" fill="#8F9ED1"/>
<path d="M71.907 76.5576H51.3011L45.4297 108.329C46.6852 112.928 48.5281 117.347 50.9129 121.476H52.8244L55.099 109.171H66.4216C80.2083 109.171 83.9148 96.7938 84.8033 90.7143C85.6939 84.6373 81.2476 76.5576 71.907 76.5576ZM74.8965 91.7396C74.3918 95.1858 71.8454 102.204 64.0306 102.204H56.3869L59.8034 83.7123H67.5841C75.1683 83.7123 75.4011 88.2936 74.8965 91.7396ZM153.169 78.0007C151.417 77.0964 149.33 76.5574 146.918 76.5574H126.312L118.011 121.476H127.835L130.11 109.171H141.432C147.564 109.171 151.702 106.723 154.481 103.469C155.066 100.196 155.36 96.8777 155.359 93.553C155.359 88.1565 154.594 82.9382 153.169 78.0007ZM149.907 91.7396C149.403 95.1858 146.856 102.204 139.039 102.204H131.398L134.814 83.7123H142.595C150.179 83.7123 150.412 88.2936 149.907 91.7396ZM111.043 76.7062H99.1106L101.35 64.5869H91.5664L83.2649 109.504H93.0489L97.8228 83.6737H104.076C108.226 83.6737 111.043 84.5632 110.45 88.4175C109.857 92.2718 106.448 109.32 106.448 109.32H116.38C116.38 109.32 120.234 90.3447 120.827 85.0077C121.42 79.671 116.528 76.7062 111.043 76.7062Z" fill="#F2F2F2"/>
<defs>
<filter id="filter0_d_1244_2806" x="0.977737" y="0.552347" width="198.045" height="198.045" filterUnits="userSpaceOnUse" color-interpolation-filters="sRGB">
<feFlood flood-opacity="0" result="BackgroundImageFix"/>
<feColorMatrix in="SourceAlpha" type="matrix" values="0 0 0 0 0 0 0 0 0 0 0 0 0 0 0 0 0 0 127 0" result="hardAlpha"/>
<feOffset dy="2.57461"/>
<feGaussianBlur stdDeviation="9.01113"/>
<feComposite in2="hardAlpha" operator="out"/>
<feColorMatrix type="matrix" values="0 0 0 0 0.695898 0 0 0 0 0.695898 0 0 0 0 0.695898 0 0 0 0.25 0"/>
<feBlend mode="normal" in2="BackgroundImageFix" result="effect1_dropShadow_1244_2806"/>
<feBlend mode="normal" in="SourceGraphic" in2="effect1_dropShadow_1244_2806" result="shape"/>
</filter>
</defs>
</svg>
