<svg width="148" height="148" viewBox="0 0 148 148" fill="none" xmlns="http://www.w3.org/2000/svg">
<g filter="url(#filter0_d_1273_157)">
<circle cx="74" cy="72" r="60" fill="white"/>
</g>
<g clip-path="url(#clip0_1273_157)">
<path d="M74.5013 66.2404L77.4548 74.4532L74.5013 82.6231L68.8158 85.5469L64.8664 80.4861L63.9062 70.771L74.5013 66.2404Z" fill="#F4F4F7"/>
<path d="M84.1349 80.4861L79.2395 84.9333L74.5 82.6231V66.2404L82.889 70.4757L84.1349 80.4861Z" fill="#E2E2EB"/>
<path d="M74.4997 66.2404C69.6448 69.5006 66.1073 74.576 64.8648 80.4862L50.8281 77.5218L52.1763 64.5139L63.8573 57.5057L74.4997 66.2404Z" fill="#2EE66B"/>
<path d="M96.8234 64.5139L97.6111 78.7491L84.1349 80.4861C82.8924 74.5759 79.3549 69.5005 74.5 66.2404L84.5817 53.918L96.8234 64.5139Z" fill="#FF9933"/>
<path d="M74.499 82.623L77.3655 91.2246L74.499 104.138L55.3594 96.5935L64.8641 80.4861C67.7914 81.8575 71.0572 82.623 74.499 82.623Z" fill="#E62E6B"/>
<path d="M91.2853 96.2631L74.5 104.138V82.623C77.9418 82.623 81.2076 81.8575 84.1349 80.4861L91.2853 96.2631Z" fill="#B32453"/>
<path d="M74.5 104.138C70.871 106.576 66.5042 108 61.8115 108C49.2326 108 39 97.7674 39 85.1885C39 76.0514 44.3999 68.1513 52.1766 64.5139C53.6673 71.6028 58.4598 77.4908 64.8651 80.4861C64.5395 82.0324 64.3759 83.6084 64.377 85.1885C64.377 93.0748 68.3984 100.039 74.5 104.138Z" fill="#80AAFF"/>
<path d="M74.499 37L80.3085 45.2318L74.499 66.2404C70.87 63.8011 66.5032 62.377 61.8106 62.377C58.3687 62.377 55.103 63.1424 52.1756 64.5139C51.85 62.9676 51.6865 61.3917 51.6875 59.8115C51.6875 47.2326 61.9201 37 74.499 37Z" fill="#FFE666"/>
<path d="M97.3115 59.8115C97.3115 61.4229 97.1437 62.9968 96.8234 64.5139C93.896 63.1424 90.6303 62.377 87.1885 62.377C82.4958 62.377 78.129 63.8011 74.5 66.2404V37C87.0789 37 97.3115 47.2326 97.3115 59.8115Z" fill="#FFC34D"/>
<path d="M110 85.1885C110 97.7674 99.7674 108 87.1885 108C82.4958 108 78.129 106.576 74.5 104.138C80.6016 100.039 84.623 93.0748 84.623 85.1885C84.623 83.5771 84.4553 82.0032 84.1349 80.4861C90.5402 77.4908 95.3327 71.6028 96.8234 64.5139C104.6 68.1513 110 76.0514 110 85.1885Z" fill="#FF4D88"/>
<path d="M48.9844 37H41.0801C39.9313 37 39 37.9313 39 39.0801V46.9844C39 48.1331 39.9313 49.0645 41.0801 49.0645C42.2288 49.0645 43.1602 48.1331 43.1602 46.9844V41.1602H48.9844C50.1331 41.1602 51.0645 40.2288 51.0645 39.0801C51.0645 37.9313 50.1331 37 48.9844 37Z" fill="#335373"/>
<path d="M107.922 37H100.018C98.8688 37 97.9375 37.9313 97.9375 39.0801C97.9375 40.2288 98.8688 41.1602 100.018 41.1602H105.842V46.9844C105.842 48.1331 106.773 49.0645 107.922 49.0645C109.071 49.0645 110.002 48.1331 110.002 46.9844V39.0801C110.002 37.9313 109.071 37 107.922 37Z" fill="#1F3C59"/>
</g>
<defs>
<filter id="filter0_d_1273_157" x="0.666667" y="0.571429" width="146.667" height="146.667" filterUnits="userSpaceOnUse" color-interpolation-filters="sRGB">
<feFlood flood-opacity="0" result="BackgroundImageFix"/>
<feColorMatrix in="SourceAlpha" type="matrix" values="0 0 0 0 0 0 0 0 0 0 0 0 0 0 0 0 0 0 127 0" result="hardAlpha"/>
<feOffset dy="1.90476"/>
<feGaussianBlur stdDeviation="6.66667"/>
<feComposite in2="hardAlpha" operator="out"/>
<feColorMatrix type="matrix" values="0 0 0 0 0.695898 0 0 0 0 0.695898 0 0 0 0 0.695898 0 0 0 0.25 0"/>
<feBlend mode="normal" in2="BackgroundImageFix" result="effect1_dropShadow_1273_157"/>
<feBlend mode="normal" in="SourceGraphic" in2="effect1_dropShadow_1273_157" result="shape"/>
</filter>
<clipPath id="clip0_1273_157">
<rect width="71" height="71" fill="white" transform="translate(39 37)"/>
</clipPath>
</defs>
</svg>
