<svg width="148" height="148" viewBox="0 0 148 148" fill="none" xmlns="http://www.w3.org/2000/svg">
<g filter="url(#filter0_d_1778_86)">
<circle cx="74" cy="72" r="60" fill="white"/>
</g>
<path fill-rule="evenodd" clip-rule="evenodd" d="M74.4989 79.9945L82.0525 75.4584L75.6625 71.6323C75.3094 71.426 74.9078 71.3174 74.4989 71.3174C74.09 71.3174 73.6884 71.426 73.3353 71.6323L66.9453 75.4584L74.4989 79.9945Z" fill="#072A30"/>
<path fill-rule="evenodd" clip-rule="evenodd" d="M76.8281 83.86C76.1268 84.2867 75.3218 84.5124 74.5009 84.5124C73.68 84.5124 72.8749 84.2867 72.1736 83.86L64.8173 79.4422V87.2325C64.8148 87.6287 64.9153 88.0188 65.1089 88.3646C65.3025 88.7103 65.5826 88.9998 65.9217 89.2047L73.3373 93.662C73.6883 93.8743 74.0907 93.9865 74.5009 93.9865C74.9111 93.9865 75.3135 93.8743 75.6645 93.662L83.08 89.2047C83.4192 88.9998 83.6992 88.7103 83.8928 88.3646C84.0864 88.0188 84.1869 87.6287 84.1845 87.2325V79.4422L76.8281 83.86ZM106.056 56.7222V49.9575C106.051 47.5687 105.1 45.2792 103.411 43.5901C101.722 41.9009 99.4322 40.9497 97.0434 40.9445H51.9584C49.5696 40.9497 47.2801 41.9009 45.5909 43.5901C43.9018 45.2792 42.9505 47.5687 42.9453 49.9575V56.7222H106.056ZM94.795 47.7092C95.2389 47.7131 95.6716 47.8482 96.0387 48.0976C96.4059 48.347 96.691 48.6995 96.8581 49.1107C97.0253 49.5218 97.067 49.9733 96.978 50.4081C96.889 50.8429 96.6734 51.2417 96.3582 51.5542C96.043 51.8666 95.6423 52.0788 95.2067 52.164C94.7711 52.2491 94.3201 52.2035 93.9104 52.0328C93.5007 51.862 93.1508 51.5738 92.9046 51.2045C92.6584 50.8352 92.527 50.4013 92.527 49.9575C92.527 49.6606 92.5858 49.3666 92.7 49.0925C92.8142 48.8185 92.9816 48.5697 93.1925 48.3607C93.4033 48.1517 93.6535 47.9865 93.9286 47.8746C94.2036 47.7628 94.4981 47.7066 94.795 47.7092ZM85.7623 47.7092C86.2069 47.7092 86.6416 47.841 87.0114 48.0881C87.3811 48.3351 87.6693 48.6863 87.8394 49.0971C88.0096 49.5079 88.0541 49.96 87.9674 50.3961C87.8806 50.8323 87.6665 51.2329 87.3521 51.5473C87.0376 51.8618 86.637 52.0759 86.2009 52.1626C85.7648 52.2494 85.3127 52.2049 84.9019 52.0347C84.491 51.8645 84.1399 51.5764 83.8928 51.2066C83.6458 50.8369 83.5139 50.4022 83.5139 49.9575C83.5139 49.3612 83.7508 48.7893 84.1724 48.3677C84.5941 47.9461 85.166 47.7092 85.7623 47.7092ZM54.2067 47.7092H63.2395C63.8358 47.7092 64.4076 47.9461 64.8293 48.3677C65.2509 48.7893 65.4878 49.3612 65.4878 49.9575C65.4878 50.5538 65.2509 51.1257 64.8293 51.5473C64.4076 51.969 63.8358 52.2058 63.2395 52.2058H54.2067C53.6104 52.2058 53.0385 51.969 52.6169 51.5473C52.1952 51.1257 51.9584 50.5538 51.9584 49.9575C51.9584 49.3612 52.1952 48.7893 52.6169 48.3677C53.0385 47.9461 53.6104 47.7092 54.2067 47.7092Z" fill="#072A30"/>
<path fill-rule="evenodd" clip-rule="evenodd" d="M106.056 61.2386H42.9453V95.0425C42.9505 97.4313 43.9018 99.7208 45.5909 101.41C47.2801 103.099 49.5696 104.05 51.9584 104.056H97.0434C99.4322 104.05 101.722 103.099 103.411 101.41C105.1 99.7208 106.051 97.4313 106.056 95.0425V61.2386ZM88.6811 87.2325C88.678 88.3986 88.3753 89.5442 87.802 90.5596C87.2287 91.5749 86.4041 92.4259 85.4073 93.0309L77.972 97.4881C76.9242 98.1195 75.7241 98.4531 74.5009 98.4531C73.2776 98.4531 72.0775 98.1195 71.0298 97.4881L63.5945 93.0309C62.5977 92.4259 61.7731 91.5749 61.1998 90.5596C60.6265 89.5442 60.3237 88.3986 60.3206 87.2325V78.0223C60.3237 76.8562 60.6265 75.7106 61.1998 74.6952C61.7731 73.6799 62.5977 72.8289 63.5945 72.2239L71.0298 67.7667C72.0782 67.1374 73.278 66.805 74.5009 66.805C75.7237 66.805 76.9235 67.1374 77.972 67.7667L85.4073 72.2239C86.4041 72.8289 87.2287 73.6799 87.802 74.6952C88.3753 75.7106 88.678 76.8562 88.6811 78.0223V87.2325Z" fill="#43D685"/>
<defs>
<filter id="filter0_d_1778_86" x="0.666667" y="0.571429" width="146.667" height="146.667" filterUnits="userSpaceOnUse" color-interpolation-filters="sRGB">
<feFlood flood-opacity="0" result="BackgroundImageFix"/>
<feColorMatrix in="SourceAlpha" type="matrix" values="0 0 0 0 0 0 0 0 0 0 0 0 0 0 0 0 0 0 127 0" result="hardAlpha"/>
<feOffset dy="1.90476"/>
<feGaussianBlur stdDeviation="6.66667"/>
<feComposite in2="hardAlpha" operator="out"/>
<feColorMatrix type="matrix" values="0 0 0 0 0.695898 0 0 0 0 0.695898 0 0 0 0 0.695898 0 0 0 0.25 0"/>
<feBlend mode="normal" in2="BackgroundImageFix" result="effect1_dropShadow_1778_86"/>
<feBlend mode="normal" in="SourceGraphic" in2="effect1_dropShadow_1778_86" result="shape"/>
</filter>
</defs>
</svg>
