<svg width="200" height="199" viewBox="0 0 200 199" fill="none" xmlns="http://www.w3.org/2000/svg">
<g filter="url(#filter0_d_2310_2259)">
<circle cx="100" cy="97" r="81" fill="white"/>
</g>
<g clip-path="url(#clip0_2310_2259)">
<path d="M61 70C61 63.3726 66.3726 58 73 58H125.014C128.721 58 132.275 59.4725 134.896 62.0935C137.518 64.7146 138.99 68.2695 138.99 71.9762V123.99C138.99 130.617 133.617 135.99 126.99 135.99H74.9762C71.2695 135.99 67.7146 134.518 65.0935 131.896C62.4725 129.275 61 125.721 61 122.014V70Z" fill="#002732"/>
<path d="M125.014 61.545C127.779 61.5485 130.43 62.6486 132.386 64.6041C134.341 66.5596 135.441 69.2107 135.445 71.9762V123.445C135.445 128.416 131.416 132.445 126.445 132.445H74.9762C72.2107 132.441 69.5596 131.341 67.6041 129.386C65.6486 127.43 64.5485 124.779 64.545 122.014V70.545C64.545 65.5744 68.5744 61.545 73.545 61.545H125.014ZM125.014 58H73C66.3726 58 61 63.3726 61 70V122.014C61 125.721 62.4725 129.275 65.0935 131.896C67.7146 134.518 71.2695 135.99 74.9762 135.99H126.99C133.617 135.99 138.99 130.617 138.99 123.99V71.9762C138.99 68.2695 137.518 64.7146 134.896 62.0935C132.275 59.4725 128.721 58 125.014 58Z" fill="#00D4FF"/>
<path d="M82.3655 109.845V83.834C82.3604 83.7962 82.3641 83.7576 82.3763 83.7214C82.3885 83.6852 82.4089 83.6523 82.436 83.6253C82.463 83.5983 82.4959 83.5779 82.5321 83.5657C82.5683 83.5534 82.6068 83.5497 82.6447 83.5549C84.6653 83.5017 87.231 83.4751 90.3418 83.4751C94.0108 83.4751 96.7036 84.2993 98.4199 85.9477C99.2526 86.7275 99.9118 87.6738 100.355 88.725C100.797 89.7763 101.014 90.9091 100.99 92.0496C100.99 95.051 99.9266 97.2903 97.7996 98.7673C95.6726 100.244 93.0064 100.97 89.8012 100.943H87.4304V109.806C87.4363 109.849 87.4321 109.893 87.4181 109.934C87.4041 109.976 87.3808 110.013 87.3499 110.044C87.3191 110.075 87.2815 110.098 87.2401 110.112C87.1987 110.126 87.1547 110.13 87.1114 110.125H82.6801C82.4704 110.119 82.3655 110.026 82.3655 109.845ZM87.4304 87.3037V97.1145C88.2925 97.1864 89.1578 97.213 90.0227 97.1942C91.7952 97.1942 93.2383 96.8013 94.352 96.0155C95.4658 95.2297 96.0167 93.9476 96.0049 92.1692C96.0049 90.6005 95.5204 89.3908 94.5515 88.54C93.5825 87.6892 92.1793 87.2579 90.3418 87.2461H87.9356L87.4304 87.3037ZM116.105 95.2799C114.714 94.3818 113.095 93.9006 111.439 93.893C110.715 93.836 109.993 94.0181 109.383 94.4114C109.183 94.5507 109.02 94.7354 108.906 94.9504C108.792 95.1654 108.73 95.4044 108.727 95.6477C108.73 95.8843 108.783 96.1175 108.881 96.3326C108.98 96.5478 109.122 96.7401 109.299 96.8974C110.009 97.4415 110.804 97.8652 111.652 98.1514C113.858 99.0022 115.406 99.9003 116.296 100.846C117.202 101.838 117.68 103.149 117.625 104.493C117.651 105.331 117.479 106.165 117.121 106.924C116.764 107.683 116.232 108.347 115.569 108.862C114.198 109.964 112.344 110.515 110.008 110.515C107.671 110.515 105.751 110.089 104.247 109.238C104.167 109.21 104.1 109.154 104.056 109.082C104.013 109.009 103.996 108.923 104.008 108.84V105.131C104.003 105.089 104.009 105.047 104.026 105.008C104.043 104.97 104.071 104.937 104.105 104.913C104.13 104.891 104.163 104.879 104.196 104.879C104.23 104.879 104.262 104.891 104.287 104.913C105.875 106.142 107.823 106.814 109.83 106.828C110.574 106.875 111.315 106.702 111.962 106.331C112.187 106.198 112.374 106.008 112.504 105.78C112.633 105.553 112.702 105.295 112.702 105.033C112.707 104.769 112.656 104.506 112.553 104.263C112.45 104.019 112.297 103.8 112.104 103.62C111.4 103.063 110.604 102.637 109.751 102.361C107.624 101.537 106.147 100.651 105.319 99.7023C104.466 98.7124 104.018 97.4368 104.065 96.1307C104.053 95.344 104.214 94.5642 104.538 93.8472C104.863 93.1302 105.341 92.4936 105.94 91.9831C107.186 90.893 108.966 90.348 111.279 90.348C113.433 90.348 115.095 90.6434 116.265 91.2342C116.398 91.314 116.464 91.4868 116.464 91.7527V95.0628C116.464 95.3671 116.344 95.4395 116.105 95.2799Z" fill="#00D4FF"/>
</g>
<defs>
<filter id="filter0_d_2310_2259" x="0.932835" y="0.513858" width="198.134" height="198.134" filterUnits="userSpaceOnUse" color-interpolation-filters="sRGB">
<feFlood flood-opacity="0" result="BackgroundImageFix"/>
<feColorMatrix in="SourceAlpha" type="matrix" values="0 0 0 0 0 0 0 0 0 0 0 0 0 0 0 0 0 0 127 0" result="hardAlpha"/>
<feOffset dy="2.58102"/>
<feGaussianBlur stdDeviation="9.03358"/>
<feComposite in2="hardAlpha" operator="out"/>
<feColorMatrix type="matrix" values="0 0 0 0 0.695898 0 0 0 0 0.695898 0 0 0 0 0.695898 0 0 0 0.25 0"/>
<feBlend mode="normal" in2="BackgroundImageFix" result="effect1_dropShadow_2310_2259"/>
<feBlend mode="normal" in="SourceGraphic" in2="effect1_dropShadow_2310_2259" result="shape"/>
</filter>
<clipPath id="clip0_2310_2259">
<rect width="77.99" height="77.99" fill="white" transform="translate(61 58)"/>
</clipPath>
</defs>
</svg>
