<svg width="148" height="148" viewBox="0 0 148 148" fill="none" xmlns="http://www.w3.org/2000/svg">
<g filter="url(#filter0_d_1778_122)">
<circle cx="74" cy="72" r="60" fill="white"/>
</g>
<path d="M101.125 58.0781V88.0312H47.875V58.0781C47.875 56.8578 48.8734 55.8594 50.0938 55.8594H98.9062C100.127 55.8594 101.125 56.8578 101.125 58.0781Z" fill="#0A5078"/>
<path d="M98.7066 88.0312H92.4497L83.7855 79.3781C81.2006 81.3195 77.9834 82.4844 74.5 82.4844C65.9245 82.4844 58.9688 75.5286 58.9688 66.9531C58.9688 62.6044 60.7548 58.6772 63.6392 55.8594H85.3608C86.8418 57.3021 88.0183 59.0273 88.8205 60.9328C89.6228 62.8384 90.0345 64.8856 90.0312 66.9531C90.0312 70.4366 88.8664 73.6537 86.925 76.2386L98.7066 88.0312Z" fill="#00325A"/>
<path d="M98.9062 60.2969V84.7031C98.9062 85.3133 98.407 85.8125 97.7969 85.8125H51.2031C50.593 85.8125 50.0938 85.3133 50.0938 84.7031V60.2969C50.0938 59.6867 50.593 59.1875 51.2031 59.1875H97.7969C98.407 59.1875 98.9062 59.6867 98.9062 60.2969Z" fill="#FAB400"/>
<path d="M105.562 89.1406C105.562 90.6716 104.941 92.0583 103.943 93.0678C102.933 94.0663 101.547 94.6875 100.016 94.6875H48.9844C45.9225 94.6875 43.4375 92.2025 43.4375 89.1406C43.4375 88.5305 43.9367 88.0312 44.5469 88.0312H104.453C105.063 88.0312 105.562 88.5305 105.562 89.1406Z" fill="#00A0C8"/>
<path d="M100.47 92.9236C99.6052 93.8 98.2073 93.8 97.342 92.9236L92.4497 88.0312H98.7066L100.47 89.7952C101.347 90.6605 101.347 92.0583 100.47 92.9236ZM80.0469 90.25H68.9531C68.6589 90.25 68.3767 90.1331 68.1687 89.9251C67.9606 89.717 67.8438 89.4348 67.8438 89.1406V88.0312H81.1562V89.1406C81.1562 89.4348 81.0394 89.717 80.8313 89.9251C80.6233 90.1331 80.3411 90.25 80.0469 90.25Z" fill="#0082AA"/>
<path d="M97.7969 59.1875H51.2031C50.593 59.1875 50.0938 59.6867 50.0938 60.2969V61.4062C50.0938 60.7961 50.593 60.2969 51.2031 60.2969H60.4742C59.4808 62.3751 58.9664 64.6497 58.9688 66.9531C58.9688 75.5286 65.9245 82.4844 74.5 82.4844C78.3939 82.4844 81.9328 81.0422 84.6619 78.6792L87.2356 81.2641C86.8141 81.6967 86.8141 82.3956 87.2467 82.8283L90.2309 85.8125H96.4878L90.3752 79.6998C89.9425 79.2672 89.2436 79.2672 88.8109 79.6887L86.2261 77.115C88.5891 74.3859 90.0312 70.847 90.0312 66.9531C90.0312 64.5702 89.4899 62.3159 88.5258 60.2969H97.7969C98.407 60.2969 98.9062 60.7961 98.9062 61.4062V60.2969C98.9062 59.6867 98.407 59.1875 97.7969 59.1875Z" fill="#DC9600"/>
<path d="M57.8594 76.9374H53.4219C53.1277 76.9374 52.8455 76.8206 52.6374 76.6125C52.4294 76.4045 52.3125 76.1223 52.3125 75.8281C52.3125 75.5338 52.4294 75.2517 52.6374 75.0436C52.8455 74.8356 53.1277 74.7187 53.4219 74.7187H57.8594C58.1536 74.7187 58.4358 74.8356 58.6438 75.0436C58.8519 75.2517 58.9688 75.5338 58.9688 75.8281C58.9688 76.1223 58.8519 76.4045 58.6438 76.6125C58.4358 76.8206 58.1536 76.9374 57.8594 76.9374ZM57.8594 81.3749H53.4219C53.1277 81.3749 52.8455 81.2581 52.6374 81.05C52.4294 80.842 52.3125 80.5598 52.3125 80.2656C52.3125 79.9713 52.4294 79.6892 52.6374 79.4811C52.8455 79.2731 53.1277 79.1562 53.4219 79.1562H57.8594C58.1536 79.1562 58.4358 79.2731 58.6438 79.4811C58.8519 79.6892 58.9688 79.9713 58.9688 80.2656C58.9688 80.5598 58.8519 80.842 58.6438 81.05C58.4358 81.2581 58.1536 81.3749 57.8594 81.3749ZM82.5774 75.5052L84.1527 73.9299L90.8078 80.5862L89.2325 82.1604L82.5774 75.5052Z" fill="#00325A"/>
<path d="M86.735 76.5049C86.2802 77.0929 85.7809 77.6476 85.2373 78.1579L82.5859 75.5065L84.1612 73.9312L86.735 76.5049Z" fill="#00143C"/>
<path d="M74.5 81.375C83.0777 81.375 90.0312 74.4214 90.0312 65.8438C90.0312 57.2661 83.0777 50.3125 74.5 50.3125C65.9223 50.3125 58.9688 57.2661 58.9688 65.8438C58.9688 74.4214 65.9223 81.375 74.5 81.375Z" fill="#C8094F"/>
<path d="M74.5 79.1562C81.8523 79.1562 87.8125 73.196 87.8125 65.8438C87.8125 58.4915 81.8523 52.5312 74.5 52.5312C67.1477 52.5312 61.1875 58.4915 61.1875 65.8438C61.1875 73.196 67.1477 79.1562 74.5 79.1562Z" fill="#F0F0F0"/>
<path d="M78.4214 61.6914L72.93 67.1828L70.577 64.8299C70.474 64.7268 70.3518 64.6449 70.2172 64.5891C70.0826 64.5333 69.9383 64.5046 69.7926 64.5046C69.6469 64.5046 69.5027 64.5333 69.3681 64.5891C69.2335 64.6449 69.1113 64.7268 69.0083 64.8299L67.4386 66.3985C67.3354 66.5015 67.2536 66.6237 67.1978 66.7583C67.142 66.8929 67.1133 67.0372 67.1133 67.1828C67.1133 67.3285 67.142 67.4728 67.1978 67.6074C67.2536 67.742 67.3354 67.8642 67.4386 67.9672L71.3613 71.8899C71.7774 72.3059 72.3416 72.5395 72.93 72.5395C73.5183 72.5395 74.0825 72.3059 74.4986 71.8899L81.5587 64.8299C81.6618 64.7269 81.7436 64.6047 81.7994 64.4701C81.8552 64.3355 81.8839 64.1912 81.8839 64.0455C81.8839 63.8998 81.8552 63.7556 81.7994 63.621C81.7436 63.4864 81.6618 63.3641 81.5587 63.2612L79.99 61.6926C79.7821 61.4844 79.5001 61.3674 79.2059 61.3672C78.9118 61.367 78.6295 61.4836 78.4214 61.6914Z" fill="#D2D2D2"/>
<path d="M78.4214 60.5821L72.93 66.0735L70.577 63.7205C70.474 63.6174 70.3518 63.5356 70.2172 63.4798C70.0826 63.4239 69.9383 63.3952 69.7926 63.3952C69.6469 63.3952 69.5027 63.4239 69.3681 63.4798C69.2335 63.5356 69.1113 63.6174 69.0083 63.7205L67.4386 65.2891C67.3354 65.3921 67.2536 65.5143 67.1978 65.6489C67.142 65.7835 67.1133 65.9278 67.1133 66.0735C67.1133 66.2192 67.142 66.3634 67.1978 66.498C67.2536 66.6326 67.3354 66.7549 67.4386 66.8578L71.3613 70.7806C71.7774 71.1965 72.3416 71.4302 72.93 71.4302C73.5183 71.4302 74.0825 71.1965 74.4986 70.7806L81.5587 63.7205C81.6618 63.6176 81.7436 63.4953 81.7994 63.3607C81.8552 63.2261 81.8839 63.0819 81.8839 62.9362C81.8839 62.7905 81.8552 62.6462 81.7994 62.5116C81.7436 62.377 81.6618 62.2548 81.5587 62.1518L79.99 60.5832C79.7821 60.3751 79.5001 60.258 79.2059 60.2578C78.9118 60.2576 78.6295 60.3742 78.4214 60.5821Z" fill="#00325A"/>
<path d="M87.8125 65.8438C87.8125 66.0323 87.8125 66.2098 87.7903 66.3984C87.513 59.2984 81.6666 53.6406 74.5 53.6406C67.3334 53.6406 61.487 59.2984 61.2097 66.3984C61.1875 66.2098 61.1875 66.0323 61.1875 65.8438C61.1875 58.4886 67.1448 52.5312 74.5 52.5312C81.8552 52.5312 87.8125 58.4886 87.8125 65.8438Z" fill="#D2D2D2"/>
<path d="M100.47 91.8143C99.605 92.6907 98.2072 92.6907 97.3419 91.8143L87.2432 81.7157C87.1401 81.6127 87.0583 81.4905 87.0025 81.3559C86.9467 81.2213 86.918 81.077 86.918 80.9313C86.918 80.7856 86.9467 80.6414 87.0025 80.5068C87.0583 80.3722 87.1401 80.25 87.2432 80.147L88.803 78.5872C88.906 78.4841 89.0282 78.4023 89.1628 78.3465C89.2974 78.2907 89.4416 78.262 89.5873 78.262C89.733 78.262 89.8773 78.2907 90.0119 78.3465C90.1465 78.4023 90.2687 78.4841 90.3717 78.5872L100.47 88.6859C101.347 89.5512 101.347 90.949 100.47 91.8143Z" fill="#C8094F"/>
<defs>
<filter id="filter0_d_1778_122" x="0.666667" y="0.571429" width="146.667" height="146.667" filterUnits="userSpaceOnUse" color-interpolation-filters="sRGB">
<feFlood flood-opacity="0" result="BackgroundImageFix"/>
<feColorMatrix in="SourceAlpha" type="matrix" values="0 0 0 0 0 0 0 0 0 0 0 0 0 0 0 0 0 0 127 0" result="hardAlpha"/>
<feOffset dy="1.90476"/>
<feGaussianBlur stdDeviation="6.66667"/>
<feComposite in2="hardAlpha" operator="out"/>
<feColorMatrix type="matrix" values="0 0 0 0 0.695898 0 0 0 0 0.695898 0 0 0 0 0.695898 0 0 0 0.25 0"/>
<feBlend mode="normal" in2="BackgroundImageFix" result="effect1_dropShadow_1778_122"/>
<feBlend mode="normal" in="SourceGraphic" in2="effect1_dropShadow_1778_122" result="shape"/>
</filter>
</defs>
</svg>
