<svg width="200" height="199" viewBox="0 0 200 199" fill="none" xmlns="http://www.w3.org/2000/svg">
<g filter="url(#filter0_d_2269_139)">
<circle cx="100" cy="97" r="81" fill="white"/>
</g>
<g filter="url(#filter1_d_2269_139)">
<circle cx="100" cy="97" r="81" fill="#09D3AC"/>
</g>
<path d="M98.9685 87.7295C93.1087 87.7295 88.3203 92.5178 88.3203 98.3777C88.3203 104.238 93.1087 109.026 98.9685 109.026C104.828 109.026 109.617 104.238 109.617 98.3777C109.617 92.5178 104.828 87.7295 98.9685 87.7295Z" fill="white"/>
<path d="M49.2773 98.3775C49.2773 101.659 50.9248 104.693 53.5835 107.258C56.2422 109.816 59.9322 111.999 64.4192 113.821C73.3798 117.477 85.5415 119.674 98.969 119.674C112.396 119.674 124.551 117.477 133.525 113.821C137.999 111.999 141.696 109.816 144.354 107.258C147.006 104.693 148.661 101.659 148.661 98.3775C148.661 95.0959 147.006 92.0555 144.354 89.4973C141.696 86.939 137.999 84.7558 133.519 82.9342C124.558 79.2777 112.396 77.0811 98.9623 77.0811C85.5281 77.0811 73.3798 79.2777 64.4192 82.9275C59.9322 84.7558 56.2422 86.939 53.5835 89.4973C50.9248 92.0555 49.2773 95.0959 49.2773 98.3775ZM52.8267 98.3775C52.8267 96.2746 53.8581 94.1718 56.0547 92.0555C58.2446 89.946 61.5663 87.9302 65.7586 86.2224C74.1365 82.807 85.9299 80.6372 98.969 80.6372C112.008 80.6372 123.801 82.807 132.179 86.2224C136.365 87.9302 139.693 89.946 141.883 92.0555C144.073 94.1718 145.104 96.2746 145.104 98.3775C145.104 100.48 144.073 102.583 141.883 104.693C139.693 106.802 136.365 108.825 132.173 110.532C123.801 113.948 112.001 116.118 98.969 116.118C85.9366 116.118 74.1365 113.948 65.7519 110.532C61.5663 108.825 58.2446 106.802 56.0547 104.693C53.8581 102.583 52.8267 100.48 52.8267 98.3775Z" fill="white"/>
<path d="M124.873 143.201C127.733 141.554 129.494 138.533 130.311 134.863C131.128 131.193 131.088 126.787 130.331 121.844C128.805 111.946 124.364 99.8849 117.359 87.77C110.354 75.6552 102.124 65.7838 94.3084 59.5155C90.404 56.3813 86.6001 54.1445 83.0106 53.0194C79.421 51.8943 75.9251 51.9077 73.0655 53.5551C70.2059 55.2026 68.4446 58.2229 67.6276 61.8862C66.8106 65.5561 66.8507 69.9695 67.6075 74.9118C69.1344 84.81 73.5812 96.8712 80.5795 108.986C87.5779 121.101 95.8152 130.972 103.631 137.241C107.535 140.368 111.339 142.612 114.928 143.737C118.518 144.862 122.014 144.848 124.873 143.201ZM123.092 140.12C121.304 141.158 118.96 141.279 115.993 140.348C113.013 139.41 109.524 137.415 105.854 134.468C98.5141 128.588 90.471 118.998 83.6602 107.211C76.8426 95.418 72.5499 83.6648 71.1234 74.3761C70.4068 69.7284 70.4135 65.7102 71.0966 62.6697C71.773 59.6293 73.0521 57.6671 74.8469 56.6358C76.635 55.6044 78.9723 55.4772 81.9457 56.4081C84.9192 57.3456 88.415 59.3413 92.085 62.2813C99.4182 68.168 107.461 77.7513 114.279 89.5514C121.09 101.338 125.382 113.091 126.816 122.38C127.532 127.028 127.519 131.053 126.836 134.086C126.159 137.127 124.887 139.089 123.092 140.12Z" fill="white"/>
<path d="M73.0627 143.201C70.2031 141.553 68.4418 138.533 67.6248 134.863C66.8011 131.2 66.8412 126.793 67.6047 121.844C69.1316 111.952 73.5717 99.8778 80.5768 87.7697C87.5751 75.6548 95.8124 65.7768 103.628 59.5084C107.532 56.3809 111.329 54.1441 114.926 53.0123C118.515 51.8939 122.011 51.9073 124.871 53.5548C127.73 55.2023 129.492 58.2226 130.309 61.8858C131.126 65.5558 131.085 69.9624 130.322 74.9115C128.802 84.8029 124.362 96.8709 117.357 108.979C110.352 121.101 102.114 130.979 94.2989 137.24C90.3945 140.374 86.5973 142.611 83.0078 143.736C79.4182 144.861 75.9224 144.848 73.0627 143.201ZM74.8441 140.12C76.6322 141.158 78.9695 141.279 81.9429 140.348C84.9164 139.417 88.4122 137.414 92.0822 134.468C99.4154 128.588 107.465 118.998 114.276 107.211C121.094 95.4176 125.38 83.6644 126.813 74.3757C127.529 69.728 127.523 65.7031 126.84 62.6627C126.163 59.629 124.884 57.6667 123.089 56.6354C121.301 55.5974 118.964 55.4768 115.99 56.4077C113.017 57.3386 109.521 59.341 105.851 62.281C98.5113 68.1676 90.4749 77.751 83.6574 89.5444C76.8398 101.331 72.5471 113.091 71.1206 122.38C70.404 127.027 70.4107 131.052 71.0938 134.093C71.7702 137.126 73.0493 139.089 74.8441 140.12Z" fill="white"/>
<defs>
<filter id="filter0_d_2269_139" x="0.977737" y="0.552347" width="198.045" height="198.045" filterUnits="userSpaceOnUse" color-interpolation-filters="sRGB">
<feFlood flood-opacity="0" result="BackgroundImageFix"/>
<feColorMatrix in="SourceAlpha" type="matrix" values="0 0 0 0 0 0 0 0 0 0 0 0 0 0 0 0 0 0 127 0" result="hardAlpha"/>
<feOffset dy="2.57461"/>
<feGaussianBlur stdDeviation="9.01113"/>
<feComposite in2="hardAlpha" operator="out"/>
<feColorMatrix type="matrix" values="0 0 0 0 0.695898 0 0 0 0 0.695898 0 0 0 0 0.695898 0 0 0 0.25 0"/>
<feBlend mode="normal" in2="BackgroundImageFix" result="effect1_dropShadow_2269_139"/>
<feBlend mode="normal" in="SourceGraphic" in2="effect1_dropShadow_2269_139" result="shape"/>
</filter>
<filter id="filter1_d_2269_139" x="0.977737" y="0.552347" width="198.045" height="198.045" filterUnits="userSpaceOnUse" color-interpolation-filters="sRGB">
<feFlood flood-opacity="0" result="BackgroundImageFix"/>
<feColorMatrix in="SourceAlpha" type="matrix" values="0 0 0 0 0 0 0 0 0 0 0 0 0 0 0 0 0 0 127 0" result="hardAlpha"/>
<feOffset dy="2.57461"/>
<feGaussianBlur stdDeviation="9.01113"/>
<feComposite in2="hardAlpha" operator="out"/>
<feColorMatrix type="matrix" values="0 0 0 0 0.695898 0 0 0 0 0.695898 0 0 0 0 0.695898 0 0 0 0.25 0"/>
<feBlend mode="normal" in2="BackgroundImageFix" result="effect1_dropShadow_2269_139"/>
<feBlend mode="normal" in="SourceGraphic" in2="effect1_dropShadow_2269_139" result="shape"/>
</filter>
</defs>
</svg>
