<svg width="200" height="199" viewBox="0 0 200 199" fill="none" xmlns="http://www.w3.org/2000/svg">
<g filter="url(#filter0_d_2269_112)">
<circle cx="100" cy="97" r="81" fill="#53C1DE"/>
</g>
<path d="M98.9685 87.7285C93.1087 87.7285 88.3203 92.5169 88.3203 98.3767C88.3203 104.237 93.1087 109.025 98.9685 109.025C104.828 109.025 109.617 104.237 109.617 98.3767C109.617 92.5169 104.828 87.7285 98.9685 87.7285Z" fill="white"/>
<path d="M49.2773 98.3765C49.2773 101.658 50.9248 104.692 53.5835 107.257C56.2422 109.815 59.9322 111.998 64.4192 113.82C73.3798 117.476 85.5415 119.673 98.969 119.673C112.396 119.673 124.551 117.476 133.525 113.82C137.999 111.998 141.696 109.815 144.354 107.257C147.006 104.692 148.661 101.658 148.661 98.3765C148.661 95.095 147.006 92.0545 144.354 89.4963C141.696 86.938 137.999 84.7548 133.519 82.9332C124.558 79.2767 112.396 77.0801 98.9623 77.0801C85.5281 77.0801 73.3798 79.2767 64.4192 82.9265C59.9322 84.7548 56.2422 86.938 53.5835 89.4963C50.9248 92.0545 49.2773 95.095 49.2773 98.3765ZM52.8267 98.3765C52.8267 96.2736 53.8581 94.1708 56.0547 92.0545C58.2446 89.945 61.5663 87.9292 65.7586 86.2215C74.1365 82.806 85.9299 80.6362 98.969 80.6362C112.008 80.6362 123.801 82.806 132.179 86.2215C136.365 87.9292 139.693 89.945 141.883 92.0545C144.073 94.1708 145.104 96.2736 145.104 98.3765C145.104 100.479 144.073 102.582 141.883 104.692C139.693 106.801 136.365 108.824 132.173 110.532C123.801 113.947 112.001 116.117 98.969 116.117C85.9366 116.117 74.1365 113.947 65.7519 110.532C61.5663 108.824 58.2446 106.801 56.0547 104.692C53.8581 102.582 52.8267 100.479 52.8267 98.3765Z" fill="white"/>
<path d="M124.873 143.2C127.733 141.553 129.494 138.532 130.311 134.862C131.128 131.192 131.088 126.786 130.331 121.843C128.805 111.945 124.364 99.8839 117.359 87.7691C110.354 75.6542 102.124 65.7829 94.3084 59.5145C90.404 56.3803 86.6001 54.1435 83.0106 53.0184C79.421 51.8933 75.9251 51.9067 73.0655 53.5542C70.2059 55.2016 68.4446 58.222 67.6276 61.8852C66.8106 65.5552 66.8507 69.9685 67.6075 74.9109C69.1344 84.809 73.5812 96.8703 80.5795 108.985C87.5779 121.1 95.8152 130.971 103.631 137.24C107.535 140.367 111.339 142.611 114.928 143.736C118.518 144.861 122.014 144.847 124.873 143.2ZM123.092 140.119C121.304 141.157 118.96 141.278 115.993 140.347C113.013 139.409 109.524 137.414 105.854 134.467C98.5141 128.587 90.471 118.997 83.6602 107.21C76.8426 95.417 72.5499 83.6638 71.1234 74.3751C70.4068 69.7274 70.4135 65.7092 71.0966 62.6688C71.773 59.6283 73.0521 57.6661 74.8469 56.6348C76.635 55.6034 78.9723 55.4762 81.9457 56.4071C84.9192 57.3447 88.415 59.3404 92.085 62.2803C99.4182 68.167 107.461 77.7504 114.279 89.5505C121.09 101.337 125.382 113.09 126.816 122.379C127.532 127.027 127.519 131.052 126.836 134.085C126.159 137.126 124.887 139.088 123.092 140.119Z" fill="white"/>
<path d="M73.0627 143.2C70.2031 141.553 68.4418 138.532 67.6248 134.862C66.8011 131.199 66.8412 126.793 67.6047 121.843C69.1316 111.952 73.5717 99.8773 80.5768 87.7692C87.5751 75.6544 95.8124 65.7763 103.628 59.5079C107.532 56.3804 111.329 54.1436 114.926 53.0119C118.515 51.8935 122.011 51.9069 124.871 53.5543C127.73 55.2018 129.492 58.2221 130.309 61.8854C131.126 65.5553 131.085 69.9619 130.322 74.911C128.802 84.8024 124.362 96.8704 117.357 108.979C110.352 121.1 102.114 130.978 94.2989 137.24C90.3945 140.374 86.5973 142.611 83.0078 143.736C79.4182 144.861 75.9224 144.848 73.0627 143.2ZM74.8441 140.12C76.6322 141.158 78.9695 141.278 81.9429 140.347C84.9164 139.416 88.4122 137.414 92.0822 134.467C99.4154 128.587 107.465 118.997 114.276 107.211C121.094 95.4171 125.38 83.6639 126.813 74.3752C127.529 69.7275 127.523 65.7026 126.84 62.6622C126.163 59.6285 124.884 57.6663 123.089 56.6349C121.301 55.5969 118.964 55.4763 115.99 56.4072C113.017 57.3381 109.521 59.3405 105.851 62.2805C98.5113 68.1671 90.4749 77.7505 83.6574 89.5439C76.8398 101.331 72.5471 113.09 71.1206 122.379C70.404 127.027 70.4107 131.052 71.0938 134.092C71.7702 137.126 73.0493 139.088 74.8441 140.12Z" fill="white"/>
<defs>
<filter id="filter0_d_2269_112" x="0.977737" y="0.552347" width="198.045" height="198.045" filterUnits="userSpaceOnUse" color-interpolation-filters="sRGB">
<feFlood flood-opacity="0" result="BackgroundImageFix"/>
<feColorMatrix in="SourceAlpha" type="matrix" values="0 0 0 0 0 0 0 0 0 0 0 0 0 0 0 0 0 0 127 0" result="hardAlpha"/>
<feOffset dy="2.57461"/>
<feGaussianBlur stdDeviation="9.01113"/>
<feComposite in2="hardAlpha" operator="out"/>
<feColorMatrix type="matrix" values="0 0 0 0 0.695898 0 0 0 0 0.695898 0 0 0 0 0.695898 0 0 0 0.25 0"/>
<feBlend mode="normal" in2="BackgroundImageFix" result="effect1_dropShadow_2269_112"/>
<feBlend mode="normal" in="SourceGraphic" in2="effect1_dropShadow_2269_112" result="shape"/>
</filter>
</defs>
</svg>
