<svg width="196" height="195" viewBox="0 0 196 195" fill="none" xmlns="http://www.w3.org/2000/svg">
<g filter="url(#filter0_d_2276_3370)">
<circle cx="98" cy="95" r="81" fill="white"/>
</g>
<path fill-rule="evenodd" clip-rule="evenodd" d="M114.88 59.7219C110.015 57.3557 104.572 56.0317 98.8275 56.0317C88.8058 56.0317 79.7036 60.0611 72.9842 66.6229C65.8403 73.5992 127.524 65.872 114.88 59.7219Z" fill="#FCC397"/>
<path fill-rule="evenodd" clip-rule="evenodd" d="M128.076 70.4242C128.118 70.4789 125.022 74.7135 115.716 75.9157C96.9332 78.3422 64.686 78.5986 64.7344 78.4895C66.7196 74.0317 69.5199 70.0037 72.9843 66.6227C77.0371 67.9175 81.4483 68.2401 85.6209 67.4532C92.5105 66.1635 98.6402 62.09 105.455 60.4299C108.48 59.6865 111.775 59.4691 114.879 59.7215C120.037 62.2297 124.545 65.9094 128.076 70.4242Z" fill="#FC9F95"/>
<path fill-rule="evenodd" clip-rule="evenodd" d="M135.813 88.3382C135.837 88.4924 93.4574 92.5688 72.809 91.3807C66.0816 90.9935 62.1115 86.8316 62.1566 86.6043C62.7169 83.8083 63.583 81.0856 64.7386 78.4879C70.7038 75.1469 77.7222 73.2186 84.5274 73.2947C93.0616 73.3841 101.434 76.2956 109.968 76.0785C116.306 75.9135 122.694 73.8438 128.079 70.4229C132.048 75.498 134.782 81.629 135.813 88.3382Z" fill="#F77C88"/>
<path fill-rule="evenodd" clip-rule="evenodd" d="M136.258 94.3414C136.258 94.5536 136.253 94.977 136.253 94.977C136.253 94.977 124.482 98.0149 109.322 97.8336C88.0894 97.5797 61.3823 94.0752 61.3828 94.0111C61.4022 91.5164 61.6588 89.0295 62.149 86.5856C67.2364 89.7974 73.4057 91.3706 79.3436 90.7084C84.0656 90.1848 88.5507 88.3971 92.9237 86.4944C97.2965 84.5917 101.645 82.5486 106.267 81.4504C113.057 79.8414 120.32 80.4033 126.811 83.0211C129.969 84.2955 133.102 86.1274 135.801 88.3363C136.106 90.3227 136.259 92.3305 136.258 94.3414Z" fill="#F25192"/>
<path fill-rule="evenodd" clip-rule="evenodd" d="M93.8008 106.779C82.5686 108.901 63.2924 106.454 63.2437 106.302C62.0365 102.539 61.3828 98.5177 61.3828 94.3405C61.3828 94.2302 61.3833 94.1201 61.3841 94.01C63.0892 92.6263 65.081 91.3928 67.0255 90.434C71.8345 88.0461 77.2913 87.05 82.6112 87.5864C87.8688 88.1227 92.8895 90.1148 97.7485 92.2601C101.842 94.0675 105.909 96.02 110.158 97.369C110.574 97.5012 106.165 104.443 93.8008 106.779Z" fill="#D34CA3"/>
<path fill-rule="evenodd" clip-rule="evenodd" d="M134.907 104.573C134.122 105.928 126.663 110.494 116.551 111.276C103.163 112.312 87.347 108.171 92.5936 106.063C100.854 102.743 108.017 96.7795 116.551 94.2894C122.927 92.4207 129.994 92.7162 136.252 94.9744C136.203 98.2193 135.751 101.445 134.907 104.573V104.573Z" fill="#9A50A5"/>
<path fill-rule="evenodd" clip-rule="evenodd" d="M131.287 113.433C124.823 124.918 77.9368 127.798 71.0876 120.073C67.6009 116.14 64.9021 111.463 63.2461 106.302C69.0038 102.934 75.7437 101.504 82.2222 102.411C90.6069 103.586 98.1195 108.374 106.392 110.239C113.07 111.745 120.146 111.273 126.575 108.898C129.481 107.816 132.363 106.366 134.911 104.573C134.073 107.671 132.856 110.648 131.287 113.433Z" fill="#59569E"/>
<path fill-rule="evenodd" clip-rule="evenodd" d="M131.336 113.339C124.884 124.876 112.738 132.651 98.8173 132.651C87.8187 132.651 77.9276 127.798 71.0781 120.07C72.2147 120.514 73.4861 120.899 74.6512 121.235C81.1672 123.074 88.1814 123.023 94.6599 121.069C98.8086 119.817 102.708 117.825 106.782 116.319C114.556 113.45 123.113 112.44 131.336 113.339Z" fill="#39477F"/>
<defs>
<filter id="filter0_d_2276_3370" x="0.676929" y="0.00879669" width="194.646" height="194.646" filterUnits="userSpaceOnUse" color-interpolation-filters="sRGB">
<feFlood flood-opacity="0" result="BackgroundImageFix"/>
<feColorMatrix in="SourceAlpha" type="matrix" values="0 0 0 0 0 0 0 0 0 0 0 0 0 0 0 0 0 0 127 0" result="hardAlpha"/>
<feOffset dy="2.33187"/>
<feGaussianBlur stdDeviation="8.16154"/>
<feComposite in2="hardAlpha" operator="out"/>
<feColorMatrix type="matrix" values="0 0 0 0 0.695898 0 0 0 0 0.695898 0 0 0 0 0.695898 0 0 0 0.25 0"/>
<feBlend mode="normal" in2="BackgroundImageFix" result="effect1_dropShadow_2276_3370"/>
<feBlend mode="normal" in="SourceGraphic" in2="effect1_dropShadow_2276_3370" result="shape"/>
</filter>
</defs>
</svg>
