<svg width="148" height="148" viewBox="0 0 148 148" fill="none" xmlns="http://www.w3.org/2000/svg">
<g filter="url(#filter0_d_1273_291)">
<circle cx="74" cy="72" r="60" fill="white"/>
</g>
<g clip-path="url(#clip0_1273_291)">
<path d="M101.125 37H47.875C46.6496 37 45.6562 37.9934 45.6562 39.2188V82.4844C45.6562 83.7098 46.6496 84.7031 47.875 84.7031H101.125C102.35 84.7031 103.344 83.7098 103.344 82.4844V39.2188C103.344 37.9934 102.35 37 101.125 37Z" fill="#50D9D7"/>
<path d="M88.9219 94.6875H55.6406V37H77.3067C78.1311 36.9994 78.9394 37.2285 79.6409 37.6615C80.3424 38.0946 80.9094 38.7145 81.2783 39.4517L82.1436 41.2045C82.5125 41.9418 83.0795 42.5617 83.781 42.9947C84.4825 43.4278 85.2908 43.6568 86.1152 43.6563H88.9219V94.6875Z" fill="#93E6E5"/>
<path d="M103.344 43.6563V94.6875C103.344 95.2759 103.11 95.8403 102.694 96.2564C102.278 96.6725 101.713 96.9062 101.125 96.9062H41.2188C40.6303 96.9062 40.066 96.6725 39.6499 96.2564C39.2338 95.8403 39 95.2759 39 94.6875V39.2188C39 38.6303 39.2338 38.066 39.6499 37.6499C40.066 37.2338 40.6303 37 41.2188 37H58.4473C59.2717 36.9994 60.08 37.2285 60.7815 37.6615C61.483 38.0946 62.05 38.7145 62.4189 39.4517L63.2842 41.2045C63.6531 41.9418 64.2201 42.5617 64.9216 42.9947C65.6231 43.4278 66.4314 43.6568 67.2558 43.6563H103.344Z" fill="#F3F3F3"/>
<path d="M92.25 51.4219H50.0938C49.4811 51.4219 48.9844 51.9186 48.9844 52.5312V81.375C48.9844 81.9877 49.4811 82.4844 50.0938 82.4844H92.25C92.8627 82.4844 93.3594 81.9877 93.3594 81.375V52.5312C93.3594 51.9186 92.8627 51.4219 92.25 51.4219Z" fill="#D9D9D9"/>
<path d="M93.3594 54.75V81.375C93.3594 80.8314 94.0028 81.8409 82.0327 66.2764C81.9327 66.1473 81.8055 66.0419 81.6601 65.9676C81.5147 65.8933 81.3547 65.8521 81.1915 65.8468C81.0283 65.8415 80.866 65.8723 80.716 65.937C80.5661 66.0016 80.4323 66.0986 80.3242 66.2209L74.5 72.8772V63.625C74.4987 62.1193 74.8804 60.6381 75.6094 59.3206C75.6358 59.9668 75.8499 60.5912 76.2254 61.1176C76.601 61.6441 77.1218 62.0497 77.7242 62.2849C78.3265 62.5201 78.9844 62.5747 79.6173 62.4421C80.2502 62.3095 80.8308 61.9953 81.2881 61.5381C81.7453 61.0808 82.0595 60.5002 82.1921 59.8673C82.3247 59.2344 82.2701 58.5765 82.0349 57.9742C81.7997 57.3718 81.3941 56.851 80.8676 56.4754C80.3412 56.0999 79.7168 55.8858 79.0706 55.8594C80.3881 55.1304 81.8693 54.7487 83.375 54.75H93.3594Z" fill="#C8C8C8"/>
<path d="M93.3594 81.3751C93.3594 81.6693 93.2425 81.9515 93.0344 82.1596C92.8264 82.3676 92.5442 82.4845 92.25 82.4845H50.0938C49.8877 82.4845 49.6858 82.4271 49.5105 82.3188C49.3353 82.2105 49.1936 82.0555 49.1015 81.8712C49.0094 81.687 48.9704 81.4807 48.9889 81.2755C49.0074 81.0703 49.0826 80.8743 49.2063 80.7095L62.5188 62.9595C62.6226 62.8279 62.7549 62.7216 62.9057 62.6484C63.0566 62.5753 63.222 62.5374 63.3896 62.5374C63.5572 62.5374 63.7227 62.5753 63.8735 62.6484C64.0243 62.7216 64.1566 62.8279 64.2605 62.9595L73.3906 74.1087L80.2909 66.221C80.3991 66.0987 80.5329 66.0017 80.6828 65.9371C80.8327 65.8724 80.995 65.8416 81.1582 65.8469C81.3214 65.8522 81.4814 65.8934 81.6268 65.9677C81.7722 66.042 81.8994 66.1474 81.9994 66.2765C94.147 82.0185 93.3594 80.8426 93.3594 81.3751Z" fill="#00BEBD"/>
<path d="M78.9375 62.5156C80.7756 62.5156 82.2656 61.0256 82.2656 59.1875C82.2656 57.3494 80.7756 55.8594 78.9375 55.8594C77.0994 55.8594 75.6094 57.3494 75.6094 59.1875C75.6094 61.0256 77.0994 62.5156 78.9375 62.5156Z" fill="#FFAC00"/>
<path d="M98.9062 41.4375C99.5189 41.4375 100.016 40.9408 100.016 40.3281C100.016 39.7154 99.5189 39.2188 98.9062 39.2188C98.2936 39.2188 97.7969 39.7154 97.7969 40.3281C97.7969 40.9408 98.2936 41.4375 98.9062 41.4375Z" fill="#00BEBD"/>
<path d="M94.4688 41.4375C95.0814 41.4375 95.5781 40.9408 95.5781 40.3281C95.5781 39.7154 95.0814 39.2188 94.4688 39.2188C93.8561 39.2188 93.3594 39.7154 93.3594 40.3281C93.3594 40.9408 93.8561 41.4375 94.4688 41.4375Z" fill="#00BEBD"/>
<path d="M90.0312 41.4375C90.6439 41.4375 91.1406 40.9408 91.1406 40.3281C91.1406 39.7154 90.6439 39.2188 90.0312 39.2188C89.4186 39.2188 88.9219 39.7154 88.9219 40.3281C88.9219 40.9408 89.4186 41.4375 90.0312 41.4375Z" fill="#00BEBD"/>
<path d="M58.9688 41.4375C59.5814 41.4375 60.0781 40.9408 60.0781 40.3281C60.0781 39.7154 59.5814 39.2188 58.9688 39.2188C58.3561 39.2188 57.8594 39.7154 57.8594 40.3281C57.8594 40.9408 58.3561 41.4375 58.9688 41.4375Z" fill="#93E6E5"/>
<path d="M103.344 54.75V94.6875C103.344 95.2759 103.11 95.8403 102.694 96.2564C102.278 96.6725 101.713 96.9062 101.125 96.9062H74.5V82.4844H92.25C92.5442 82.4844 92.8264 82.3675 93.0344 82.1594C93.2425 81.9514 93.3594 81.6692 93.3594 81.375V54.75H103.344Z" fill="#D9D9D9"/>
<path d="M93.3594 81.375C93.3594 81.6692 93.2425 81.9514 93.0344 82.1594C92.8264 82.3675 92.5442 82.4844 92.25 82.4844H74.5V72.8772L80.3242 66.2209C80.4323 66.0986 80.5661 66.0016 80.716 65.9369C80.866 65.8723 81.0283 65.8415 81.1915 65.8468C81.3547 65.8521 81.5147 65.8933 81.6601 65.9676C81.8055 66.0419 81.9327 66.1473 82.0327 66.2764C94.147 82.0184 93.3594 80.8425 93.3594 81.375Z" fill="#00AAA8"/>
<path d="M82.2656 59.1875C82.2744 59.6246 82.1969 60.0591 82.0378 60.4662C81.8786 60.8733 81.6408 61.2451 81.3379 61.5603C81.035 61.8756 80.6731 62.128 80.2726 62.3034C79.8722 62.4787 79.4411 62.5734 79.0041 62.5822C78.1214 62.5998 77.2679 62.2661 76.6312 61.6545C75.9946 61.0428 75.627 60.2033 75.6094 59.3206C76.41 57.8608 77.6108 56.66 79.0706 55.8594C79.93 55.8938 80.7427 56.2595 81.3384 56.88C81.934 57.5005 82.2663 58.3274 82.2656 59.1875Z" fill="#EA9706"/>
<path d="M103.344 56.9688H83.375C79.6989 56.9688 76.7188 59.9489 76.7188 63.625V101.344C76.7188 105.02 79.6989 108 83.375 108H103.344C107.02 108 110 105.02 110 101.344V63.625C110 59.9489 107.02 56.9688 103.344 56.9688Z" fill="#50D9D7"/>
<path d="M98.3516 61.4062C98.1836 61.739 97.9268 62.0189 97.6096 62.2147C97.2924 62.4105 96.9272 62.5146 96.5544 62.5156H90.1644C89.7916 62.5146 89.4264 62.4105 89.1092 62.2147C88.7919 62.0189 88.5351 61.739 88.3672 61.4062C88.1992 61.0735 87.9424 60.7936 87.6252 60.5978C87.308 60.402 86.9428 60.2979 86.57 60.2969H84.4844C83.3075 60.2969 82.1788 60.7644 81.3466 61.5966C80.5144 62.4288 80.0469 63.5575 80.0469 64.7344V99.125C80.0469 100.302 80.5144 101.431 81.3466 102.263C82.1788 103.095 83.3075 103.562 84.4844 103.562H102.234C103.411 103.562 104.54 103.095 105.372 102.263C106.204 101.431 106.672 100.302 106.672 99.125V64.7344C106.672 63.5575 106.204 62.4288 105.372 61.5966C104.54 60.7644 103.411 60.2969 102.234 60.2969H100.149C99.776 60.2979 99.4107 60.402 99.0935 60.5978C98.7763 60.7936 98.5195 61.0735 98.3516 61.4062Z" fill="white"/>
<path d="M102.235 92.4689H84.4849C84.2958 92.4683 84.11 92.4194 83.9451 92.3268C83.7802 92.2342 83.6417 92.101 83.5428 91.9398C83.4439 91.7787 83.3878 91.5949 83.3799 91.4059C83.372 91.217 83.4125 91.0292 83.4976 90.8603L89.0445 79.7665C89.1395 79.5904 89.2804 79.4433 89.4523 79.3408C89.6242 79.2382 89.8206 79.1841 90.0207 79.1841C90.2208 79.1841 90.4172 79.2382 90.5891 79.3408C90.761 79.4433 90.9019 79.5904 90.997 79.7665L94.5913 86.0678L96.9099 82.9283C97.0199 82.7805 97.1648 82.6625 97.3318 82.5848C97.4987 82.5071 97.6824 82.4721 97.8662 82.4832C98.05 82.4942 98.2282 82.5507 98.3847 82.6478C98.5412 82.7449 98.6711 82.8794 98.7626 83.0392L103.2 90.8048C103.298 90.9738 103.349 91.1655 103.349 91.3606C103.349 91.5557 103.297 91.7473 103.199 91.9161C103.101 92.0849 102.96 92.2249 102.791 92.3219C102.622 92.419 102.43 92.4697 102.235 92.4689Z" fill="#00BEBD"/>
<path d="M98.9062 80.2656C100.744 80.2656 102.234 78.7756 102.234 76.9375C102.234 75.0994 100.744 73.6094 98.9062 73.6094C97.0682 73.6094 95.5781 75.0994 95.5781 76.9375C95.5781 78.7756 97.0682 80.2656 98.9062 80.2656Z" fill="#FFAC00"/>
<path d="M50.0938 86.9219C50.7064 86.9219 51.2031 86.4252 51.2031 85.8125C51.2031 85.1998 50.7064 84.7031 50.0938 84.7031C49.4811 84.7031 48.9844 85.1998 48.9844 85.8125C48.9844 86.4252 49.4811 86.9219 50.0938 86.9219Z" fill="#93E6E5"/>
<path d="M54.5312 86.9219C55.1439 86.9219 55.6406 86.4252 55.6406 85.8125C55.6406 85.1998 55.1439 84.7031 54.5312 84.7031C53.9186 84.7031 53.4219 85.1998 53.4219 85.8125C53.4219 86.4252 53.9186 86.9219 54.5312 86.9219Z" fill="#50D9D7"/>
<path d="M58.9688 86.9219C59.5814 86.9219 60.0781 86.4252 60.0781 85.8125C60.0781 85.1998 59.5814 84.7031 58.9688 84.7031C58.3561 84.7031 57.8594 85.1998 57.8594 85.8125C57.8594 86.4252 58.3561 86.9219 58.9688 86.9219Z" fill="#00BEBD"/>
<path d="M48.9844 90.25H64.5156V92.4688H48.9844V90.25Z" fill="#D9D9D9"/>
<path d="M73.3906 104.672H70.0625C69.1798 104.672 68.3333 104.321 67.7092 103.697C67.085 103.073 66.7344 102.226 66.7344 101.344V100.234C66.7344 99.9402 66.8513 99.658 67.0593 99.4499C67.2674 99.2419 67.5495 99.125 67.8438 99.125C68.138 99.125 68.4201 99.2419 68.6282 99.4499C68.8362 99.658 68.9531 99.9402 68.9531 100.234V101.344C68.9531 101.638 69.07 101.92 69.2781 102.128C69.4861 102.336 69.7683 102.453 70.0625 102.453H73.3906C73.6848 102.453 73.967 102.57 74.1751 102.778C74.3831 102.986 74.5 103.268 74.5 103.562C74.5 103.857 74.3831 104.139 74.1751 104.347C73.967 104.555 73.6848 104.672 73.3906 104.672Z" fill="#FFAC00"/>
</g>
<defs>
<filter id="filter0_d_1273_291" x="0.666667" y="0.571429" width="146.667" height="146.667" filterUnits="userSpaceOnUse" color-interpolation-filters="sRGB">
<feFlood flood-opacity="0" result="BackgroundImageFix"/>
<feColorMatrix in="SourceAlpha" type="matrix" values="0 0 0 0 0 0 0 0 0 0 0 0 0 0 0 0 0 0 127 0" result="hardAlpha"/>
<feOffset dy="1.90476"/>
<feGaussianBlur stdDeviation="6.66667"/>
<feComposite in2="hardAlpha" operator="out"/>
<feColorMatrix type="matrix" values="0 0 0 0 0.695898 0 0 0 0 0.695898 0 0 0 0 0.695898 0 0 0 0.25 0"/>
<feBlend mode="normal" in2="BackgroundImageFix" result="effect1_dropShadow_1273_291"/>
<feBlend mode="normal" in="SourceGraphic" in2="effect1_dropShadow_1273_291" result="shape"/>
</filter>
<clipPath id="clip0_1273_291">
<rect width="71" height="71" fill="white" transform="translate(39 37)"/>
</clipPath>
</defs>
</svg>
