<svg width="124" height="124" viewBox="0 0 124 124" fill="none" xmlns="http://www.w3.org/2000/svg">
<path d="M110.352 1.69287H13.1189C6.73863 1.69287 1.56641 6.86509 1.56641 13.2454V110.479C1.56641 116.859 6.73863 122.031 13.1189 122.031H110.352C116.733 122.031 121.905 116.859 121.905 110.479V13.2454C121.905 6.86509 116.733 1.69287 110.352 1.69287Z" fill="#E0F7FA"/>
<path d="M121.905 13.2454V27.686H1.56641V13.2454C1.56641 10.1814 2.78354 7.24303 4.95005 5.07652C7.11656 2.91 10.055 1.69287 13.1189 1.69287H110.352C113.416 1.69287 116.355 2.91 118.521 5.07652C120.688 7.24303 121.905 10.1814 121.905 13.2454Z" fill="#455A64"/>
<path d="M15.0444 18.059C16.6394 18.059 17.9325 16.7659 17.9325 15.1708C17.9325 13.5758 16.6394 12.2827 15.0444 12.2827C13.4493 12.2827 12.1562 13.5758 12.1562 15.1708C12.1562 16.7659 13.4493 18.059 15.0444 18.059Z" fill="#E91E63"/>
<path d="M45.853 18.059C47.448 18.059 48.7411 16.7659 48.7411 15.1708C48.7411 13.5758 47.448 12.2827 45.853 12.2827C44.2579 12.2827 42.9648 13.5758 42.9648 15.1708C42.9648 16.7659 44.2579 18.059 45.853 18.059Z" fill="#CDDC39"/>
<path d="M30.4506 18.059C32.0457 18.059 33.3387 16.7659 33.3387 15.1708C33.3387 13.5758 32.0457 12.2827 30.4506 12.2827C28.8556 12.2827 27.5625 13.5758 27.5625 15.1708C27.5625 16.7659 28.8556 18.059 30.4506 18.059Z" fill="#FFC107"/>
<path d="M107.459 12.2827H92.0561C91.2901 12.2827 90.5555 12.587 90.0139 13.1286C89.4722 13.6703 89.168 14.4049 89.168 15.1708C89.168 15.9368 89.4722 16.6714 90.0139 17.213C90.5555 17.7547 91.2901 18.059 92.0561 18.059H107.459C108.225 18.059 108.96 17.7547 109.502 17.213C110.043 16.6714 110.348 15.9368 110.348 15.1708C110.348 14.4049 110.043 13.6703 109.502 13.1286C108.96 12.587 108.225 12.2827 107.459 12.2827Z" fill="white"/>
<path d="M38.2322 39.5993L25.979 51.8526C23.7232 54.1084 23.7232 57.7657 25.979 60.0214L77.0342 111.077C79.2899 113.332 82.9473 113.332 85.203 111.077L97.4563 98.8234C99.712 96.5676 99.712 92.9103 97.4563 90.6546L46.401 39.5993C44.1453 37.3436 40.488 37.3436 38.2322 39.5993Z" fill="#455A64"/>
<path d="M38.2322 39.5993L25.979 51.8526C23.7232 54.1084 23.7232 57.7657 25.979 60.0214L77.0342 111.077C79.2899 113.332 82.9473 113.332 85.203 111.077L97.4563 98.8234C99.712 96.5676 99.712 92.9103 97.4563 90.6546L46.401 39.5993C44.1453 37.3436 40.488 37.3436 38.2322 39.5993Z" fill="#455A64"/>
<path d="M39.2731 63.0849C39.5414 63.3567 39.6918 63.7234 39.6918 64.1053C39.6918 64.4873 39.5414 64.8539 39.2731 65.1258L35.1912 69.2173L33.1406 67.1668L37.2225 63.0849C37.4962 62.8164 37.8644 62.666 38.2478 62.666C38.6312 62.666 38.9993 62.8164 39.2731 63.0849ZM47.4368 71.2583C47.5718 71.3917 47.6789 71.5507 47.752 71.7258C47.8251 71.901 47.8628 72.0889 47.8628 72.2787C47.8628 72.4685 47.8251 72.6565 47.752 72.8316C47.6789 73.0068 47.5718 73.1657 47.4368 73.2992L43.3549 77.3811L41.314 75.3401L45.3959 71.2583C45.5294 71.1233 45.6883 71.0162 45.8635 70.9431C46.0386 70.87 46.2265 70.8323 46.4164 70.8323C46.6062 70.8323 46.7941 70.87 46.9692 70.9431C47.1444 71.0162 47.3033 71.1233 47.4368 71.2583ZM55.6102 79.422C55.8785 79.6939 56.029 80.0605 56.029 80.4425C56.029 80.8245 55.8785 81.1911 55.6102 81.4629L51.5283 85.5545L49.4778 83.5039L53.5596 79.422C53.8334 79.1535 54.2015 79.0032 54.5849 79.0032C54.9683 79.0032 55.3365 79.1535 55.6102 79.422ZM64.4575 88.2789C64.7258 88.5508 64.8763 88.9174 64.8763 89.2994C64.8763 89.6814 64.7258 90.048 64.4575 90.3199L60.3756 94.4017L58.3347 92.3608L62.4165 88.2789C62.55 88.144 62.709 88.0368 62.8841 87.9637C63.0593 87.8906 63.2472 87.853 63.437 87.853C63.6268 87.853 63.8147 87.8906 63.9899 87.9637C64.1651 88.0368 64.324 88.144 64.4575 88.2789ZM71.9473 95.7591C72.2157 96.031 72.3661 96.3976 72.3661 96.7796C72.3661 97.1616 72.2157 97.5282 71.9473 97.8001L67.8655 101.892L65.8245 99.8507L69.9064 95.7591C70.1783 95.4908 70.5449 95.3404 70.9269 95.3404C71.3089 95.3404 71.6755 95.4908 71.9473 95.7591ZM80.7946 106.657L76.7127 110.739L74.6718 108.698L78.7537 104.616C78.8872 104.481 79.0461 104.374 79.2213 104.301C79.3964 104.228 79.5843 104.19 79.7741 104.19C79.964 104.19 80.1519 104.228 80.327 104.301C80.5022 104.374 80.6611 104.481 80.7946 104.616C81.0629 104.888 81.2134 105.255 81.2134 105.637C81.2134 106.019 81.0629 106.385 80.7946 106.657Z" fill="#37474F"/>
<path d="M41.3024 54.9162C42.4303 53.7884 42.4303 51.9597 41.3024 50.8318C40.1745 49.7039 38.3459 49.7039 37.218 50.8318C36.0901 51.9597 36.0901 53.7884 37.218 54.9162C38.3459 56.0441 40.1745 56.0441 41.3024 54.9162Z" fill="white"/>
<path d="M27.7141 95.9161L27.2482 108.16C27.233 108.559 27.3008 108.957 27.4473 109.329C27.5938 109.7 27.8157 110.038 28.0992 110.319C28.3827 110.6 28.7215 110.82 29.0941 110.964C29.4668 111.108 29.8653 111.173 30.2643 111.155L42.3434 110.607C43.9739 110.574 45.5284 109.911 46.6814 108.758L88.9105 66.5295L71.8918 49.5107L29.5519 91.8516C28.4656 92.938 27.8123 94.3829 27.7141 95.9161Z" fill="#FFC239"/>
<path d="M39.277 65.1257L35.1951 69.2172L33.1445 67.1667L37.2264 63.0848C37.3604 62.9501 37.5196 62.8432 37.695 62.7701C37.8703 62.697 38.0583 62.6591 38.2483 62.6587C38.4383 62.6582 38.6264 62.6952 38.8021 62.7675C38.9778 62.8398 39.1375 62.946 39.2722 63.08C39.4068 63.214 39.5137 63.3732 39.5868 63.5485C39.66 63.7239 39.6978 63.9119 39.6983 64.1019C39.6987 64.2918 39.6617 64.48 39.5894 64.6557C39.5172 64.8314 39.411 64.9911 39.277 65.1257ZM47.4407 73.2991L43.3589 77.381L41.3179 75.34L45.3998 71.2582C45.532 71.1163 45.6914 71.0025 45.8686 70.9236C46.0457 70.8446 46.2369 70.8022 46.4308 70.7988C46.6247 70.7954 46.8173 70.831 46.9971 70.9037C47.1769 70.9763 47.3403 71.0844 47.4774 71.2215C47.6145 71.3586 47.7226 71.522 47.7952 71.7018C47.8679 71.8816 47.9035 72.0742 47.9001 72.2681C47.8967 72.462 47.8543 72.6532 47.7753 72.8303C47.6964 73.0075 47.5826 73.1669 47.4407 73.2991ZM55.6141 81.4629L51.5322 85.5544L49.4817 83.5038L53.5635 79.4219C53.6976 79.2873 53.8568 79.1804 54.0321 79.1072C54.2074 79.0341 54.3955 78.9963 54.5854 78.9958C54.7754 78.9954 54.9636 79.0324 55.1393 79.1046C55.3149 79.1769 55.4747 79.2831 55.6093 79.4171C55.7439 79.5511 55.8509 79.7103 55.924 79.8857C55.9971 80.061 56.0349 80.249 56.0354 80.439C56.0358 80.629 55.9989 80.8172 55.9266 80.9928C55.8543 81.1685 55.7481 81.3282 55.6141 81.4629ZM64.4614 90.3198L60.3795 94.4016L58.3386 92.3607L62.4204 88.2788C62.5539 88.1439 62.7129 88.0368 62.888 87.9636C63.0632 87.8905 63.2511 87.8529 63.4409 87.8529C63.6307 87.8529 63.8187 87.8905 63.9938 87.9636C64.169 88.0368 64.3279 88.1439 64.4614 88.2788C64.7297 88.5507 64.8802 88.9173 64.8802 89.2993C64.8802 89.6813 64.7297 90.0479 64.4614 90.3198ZM71.9512 97.8L67.8694 101.892L65.8284 99.8506L69.9103 95.7591C70.1841 95.504 70.5461 95.3651 70.9202 95.3717C71.2943 95.3783 71.6513 95.5299 71.9159 95.7944C72.1804 96.059 72.332 96.416 72.3386 96.7901C72.3452 97.1642 72.2063 97.5263 71.9512 97.8ZM80.7985 106.657L76.7166 110.739L74.6757 108.698L78.7576 104.616C78.8911 104.481 79.05 104.374 79.2252 104.301C79.4003 104.228 79.5882 104.19 79.778 104.19C79.9679 104.19 80.1558 104.228 80.331 104.301C80.5061 104.374 80.665 104.481 80.7985 104.616C81.0668 104.888 81.2173 105.254 81.2173 105.636C81.2173 106.018 81.0668 106.385 80.7985 106.657Z" fill="#37474F"/>
<path d="M44.3997 110.211C43.7415 110.458 43.0462 110.592 42.3433 110.607L30.2604 111.157C29.861 111.174 29.4625 111.108 29.0899 110.964C28.7172 110.819 28.3786 110.599 28.0953 110.317C27.8119 110.035 27.5901 109.697 27.4436 109.325C27.2971 108.953 27.2292 108.555 27.2442 108.156L27.7073 95.9157C27.7502 95.2816 27.8881 94.6576 28.1164 94.0645L35.0701 95.1879L36.1521 102.273L43.2386 103.357L44.3997 110.211Z" fill="#FFE0B2"/>
<path d="M71.8928 49.5103L29.5529 91.8511C28.9316 92.4815 28.4503 93.236 28.1406 94.0653L35.0721 95.1849L36.1542 102.27L43.2407 103.353L44.4046 110.207C45.2611 109.894 46.0393 109.398 46.6852 108.754L88.9115 66.529L71.8928 49.5103Z" fill="#FFB300"/>
<path d="M84.4861 62.1027L43.2341 103.355L36.1485 102.276L35.0703 95.191L76.3127 53.939L84.4861 62.1027Z" fill="#FFC107"/>
<path d="M77.3318 44.0518L94.3476 61.0676L88.9026 66.5127L71.8867 49.4968L77.3318 44.0518Z" fill="#455A64"/>
<path d="M95.3702 43.0438C93.1135 40.7873 90.0527 39.5195 86.8613 39.5195C83.6699 39.5195 80.6092 40.7873 78.3524 43.0438L77.3281 44.0653L94.3497 61.083L95.3702 60.0626C96.4877 58.9451 97.3742 57.6185 97.9789 56.1585C98.5837 54.6984 98.895 53.1336 98.895 51.5532C98.895 49.9729 98.5837 48.408 97.9789 46.948C97.3742 45.4879 96.4877 44.1613 95.3702 43.0438Z" fill="#EEEEEE"/>
<path d="M33.4845 111.01C33.776 110.16 33.8219 109.244 33.6169 108.369C33.4119 107.494 32.9643 106.694 32.3255 106.061C31.6866 105.429 30.8824 104.989 30.0051 104.793C29.1278 104.597 28.213 104.652 27.3655 104.952L27.2442 108.156C27.2292 108.555 27.2971 108.953 27.4436 109.325C27.5901 109.697 27.8119 110.035 28.0953 110.317C28.3786 110.599 28.7172 110.819 29.0899 110.964C29.4625 111.108 29.861 111.174 30.2604 111.157L33.4845 111.01Z" fill="#455A64"/>
</svg>
