<svg width="148" height="148" viewBox="0 0 148 148" fill="none" xmlns="http://www.w3.org/2000/svg">
<g filter="url(#filter0_d_1273_273)">
<circle cx="74" cy="72" r="60" fill="white"/>
</g>
<path d="M48.8749 39.2224C48.6653 39.2427 48.4658 39.3221 48.2996 39.4514C48.1334 39.5807 48.0074 39.7546 47.9362 39.9528C47.865 40.1509 47.8516 40.3652 47.8975 40.5707C47.9435 40.7762 48.0468 40.9644 48.1956 41.1134L55.6466 48.5518V50.967L52.9672 53.6421H50.5605L43.1095 46.1996C42.9537 46.0476 42.7567 45.9448 42.543 45.9038C42.3293 45.8628 42.1083 45.8855 41.9074 45.969C41.7064 46.0525 41.5344 46.1932 41.4127 46.3735C41.291 46.5539 41.2249 46.7661 41.2227 46.9836V55.8686C41.2246 56.1595 41.3405 56.438 41.5455 56.6443L47.0929 62.1916C47.3013 62.3987 47.5832 62.5148 47.8769 62.5145H56.2881L84.4818 90.7082V99.1277C84.4828 99.2738 84.5125 99.4182 84.5694 99.5528C84.6262 99.6873 84.709 99.8093 84.813 99.9118L90.3562 105.459C90.5639 105.668 90.8459 105.785 91.1403 105.786H100.021C100.24 105.785 100.455 105.718 100.636 105.595C100.818 105.472 100.959 105.298 101.042 105.095C101.125 104.892 101.146 104.669 101.103 104.454C101.059 104.239 100.952 104.041 100.797 103.887L93.3626 96.4484V94.0416L96.0377 91.3581H98.4487L105.891 98.8007C106.047 98.9543 106.245 99.0584 106.46 99.1001C106.674 99.1417 106.897 99.119 107.099 99.0348C107.301 98.9507 107.473 98.8087 107.595 98.6268C107.716 98.4449 107.782 98.2312 107.782 98.0124V89.1442C107.781 88.8498 107.664 88.5678 107.455 88.3601L101.912 82.8044C101.702 82.5979 101.418 82.4832 101.124 82.4857H92.7168L64.5189 54.2878V45.8725C64.517 45.5796 64.3994 45.2993 64.1919 45.0926L58.6488 39.5411C58.4386 39.3345 58.1551 39.2199 57.8605 39.2224H48.9797C48.9434 39.2206 48.9112 39.2206 48.8749 39.2224Z" fill="#33658A"/>
<path d="M103.22 39.2223C103.089 39.2378 102.961 39.2761 102.843 39.3355L91.7565 44.8786C91.5723 44.9712 91.4175 45.1132 91.3094 45.2886C91.2013 45.4641 91.1441 45.6662 91.1443 45.8724V49.8515L63.7305 77.2611L69.7348 83.2739L97.1445 55.8601H101.128C101.547 55.8601 101.929 55.6253 102.117 55.2479L107.669 44.149C107.771 43.9412 107.806 43.7067 107.768 43.4781C107.731 43.2496 107.623 43.0385 107.459 42.8744L104.13 39.5409C104.012 39.4229 103.869 39.333 103.711 39.2778C103.554 39.2226 103.386 39.2036 103.22 39.2223Z" fill="#DBE9EE"/>
<path d="M62.2822 74.716C61.9922 74.7202 61.7153 74.8375 61.5107 75.0431L43.5772 92.9765C40.5667 95.9829 40.3906 100.792 43.2963 103.698C46.2021 106.604 51.0114 106.423 54.0178 103.417L71.9512 85.4836C72.1574 85.2756 72.273 84.9945 72.273 84.7016C72.273 84.4088 72.1574 84.1277 71.9512 83.9196L63.0831 75.0431C62.9782 74.9378 62.8533 74.8546 62.7158 74.7984C62.5782 74.7422 62.4308 74.7142 62.2822 74.716Z" fill="#33B9EF"/>
<path d="M58.1797 78.3722L68.6202 88.8128L71.9495 85.4836C72.1556 85.2755 72.2712 84.9944 72.2712 84.7016C72.2712 84.4087 72.1556 84.1276 71.9495 83.9196L63.0813 75.0388C62.9765 74.9335 62.8516 74.8503 62.714 74.7941C62.5764 74.738 62.429 74.7099 62.2804 74.7118C61.9904 74.7159 61.7136 74.8333 61.5089 75.0388L58.1797 78.3722Z" fill="#2FA9DA"/>
<defs>
<filter id="filter0_d_1273_273" x="0.666667" y="0.571429" width="146.667" height="146.667" filterUnits="userSpaceOnUse" color-interpolation-filters="sRGB">
<feFlood flood-opacity="0" result="BackgroundImageFix"/>
<feColorMatrix in="SourceAlpha" type="matrix" values="0 0 0 0 0 0 0 0 0 0 0 0 0 0 0 0 0 0 127 0" result="hardAlpha"/>
<feOffset dy="1.90476"/>
<feGaussianBlur stdDeviation="6.66667"/>
<feComposite in2="hardAlpha" operator="out"/>
<feColorMatrix type="matrix" values="0 0 0 0 0.695898 0 0 0 0 0.695898 0 0 0 0 0.695898 0 0 0 0.25 0"/>
<feBlend mode="normal" in2="BackgroundImageFix" result="effect1_dropShadow_1273_273"/>
<feBlend mode="normal" in="SourceGraphic" in2="effect1_dropShadow_1273_273" result="shape"/>
</filter>
</defs>
</svg>
